{
.appVersion = "1192";
classes = (
{
automatic = 1;

glyphs = (
{
glyphname = A;
lastChange = "2019-01-16 15:38:21 +0000";
layers = (
{
anchors = (
{
name = bottom;
position = "{340.786, 0}";
},
{
name = ogonek;
position = "{668.204, 10}";
},
{
name = top;
position = "{397.019, 712}";
}
);
layerId = "CF304C0A-4888-46C0-9BE5-45819D47B95E";
paths = (
{
closed = 1;
nodes = (
"407.786 686.835 LINE",
"382.068 686.835 LINE",
"622.68 0 LINE",
"668.029 0 LINE",
"417.243 712 LINE",
"376.68 712 LINE",
"14.893 0 LINE",
"61.427 0 LINE"
);
},
{
closed = 1;
nodes = (
"563.34 197.311 LINE",
"553.65 236.573 LINE",
"169.738 236.573 LINE",
"155.796 197.311 LINE"
);
}
);
width = 720.80583;
},
{
anchors = (
{
name = bottom;
position = "{366.427, 0}";
},
{
name = ogonek;
position = "{700.592, 10}";
},
{
name = top;
position = "{419.961, 712}";
}
);
layerId = "EC690951-C754-4A23-894B-8F4258F2E540";
paths = (
{
closed = 1;
nodes = (
"433.427 561.33 LINE",
"392.864 561.33 LINE",
"591.641 0 LINE",
"771.942 0 LINE",
"495.515 712 LINE",
"345.641 712 LINE",
"-41.786 0 LINE",
"149.146 0 LINE"
);
},
{
closed = 1;
nodes = (
"617.32 147.379 LINE",
"557.699 287.854 LINE",
"207.524 287.854 LINE",
"123.408 147.379 LINE"
);
}
);
width = 769.38835;
},
{
anchors = (
{
name = bottom;
position = "{347.98, 0}";
},
{
name = ogonek;
position = "{677.291, 10}";
},
{
name = top;
position = "{403.456, 712}";
}
);
layerId = "FCB30AE2-FEFD-4E77-A1D9-4C86342947F4";
paths = (
{
closed = 1;
nodes = (
"414.98 651.621 LINE",
"385.097 651.621 LINE",
"613.971 0 LINE",
"697.184 0 LINE",
"439.204 712 LINE",
"367.971 712 LINE",
"-1.01 0 LINE",
"86.039 0 LINE"
);
},
{
closed = 1;
nodes = (
"578.485 183.301 LINE",
"554.786 250.961 LINE",
"180.34 250.961 LINE",
"146.709 183.301 LINE"
);
}
);
width = 734.4369;
}
);
leftKerningGroup = A;
rightKerningGroup = A;
unicode = 0041;
userData = {
anchors = (
);
b = {
};
com.typemytype.robofont.layerData = {
b = {
anchors = (
);
components = (
);
contours = (
{
points = (
{
segmentType = line;
smooth = 0;
x = 403;
y = 502;
},
{
segmentType = line;
smooth = 0;
x = 703;
y = 1275;
},
{
segmentType = line;
smooth = 0;
x = 705;
y = 1275;
},
{
segmentType = line;
smooth = 0;
x = 1004;
y = 502;
}
);
},
{
points = (
{
segmentType = curve;
smooth = 1;
x = 150;
y = 0;
},
{
smooth = 0;
x = 181;
y = 0;
},
{
smooth = 0;
x = 214;
y = 15;
},
{
segmentType = curve;
smooth = 1;
x = 229;
y = 53;
},
{
segmentType = line;
smooth = 0;
x = 356;
y = 373;
},
{
segmentType = line;
smooth = 0;
x = 1051;
y = 373;
},
{
segmentType = line;
smooth = 1;
x = 1179;
y = 53;
},
{
smooth = 0;
x = 1193;
y = 17;
},
{
smooth = 0;
x = 1228;
y = 0;
},
{
segmentType = curve;
smooth = 1;
x = 1260;
y = 0;
},
{
smooth = 0;
x = 1306;
y = 0;
},
{
smooth = 0;
x = 1354;
y = 31;
},
{
segmentType = curve;
smooth = 1;
x = 1354;
y = 80;
},
{
smooth = 0;
x = 1354;
y = 87;
},
{
smooth = 0;
x = 1352;
y = 97;
},
{
segmentType = curve;
smooth = 0;
x = 1349;
y = 108;
},
{
segmentType = line;
smooth = 1;
x = 871;
y = 1288;
},
{
smooth = 0;
x = 817;
y = 1420;
},
{
smooth = 0;
x = 777;
y = 1430;
},
{
segmentType = curve;
smooth = 1;
x = 710;
y = 1430;
},
{
smooth = 0;
x = 644;
y = 1430;
},
{
smooth = 0;
x = 596;
y = 1413;
},
{
segmentType = curve;
smooth = 1;
x = 542;
y = 1280;
},
{
segmentType = line;
smooth = 1;
x = 66;
y = 108;
},
{
smooth = 0;
x = 62;
y = 97;
},
{
smooth = 0;
x = 60;
y = 87;
},
{
segmentType = curve;
smooth = 1;
x = 60;
y = 78;
},
{
smooth = 0;
x = 60;
y = 32;
},
{
smooth = 0;
x = 106;
y = 0;
}
);
}
);
lib = {
};
name = A;
unicodes = (
);
width = 1414;
};
};
components = (
);
contours = {
};
lib = {
};
name = A;
points = {
};
segmentType = line;
unicodes = (
);
width = 1445;
x = 718;
y = 1232;
};
},
{
glyphname = Aogonek;
lastChange = "2019-01-16 15:38:21 +0000";
layers = (
{
layerId = "CF304C0A-4888-46C0-9BE5-45819D47B95E";
paths = (
{
closed = 1;
nodes = (
"563.34 197.311 LINE",
"553.65 236.573 LINE",
"169.738 236.573 LINE",
"155.796 197.311 LINE"
);
},
{
closed = 1;
nodes = (
"668.689 -146.379 OFFCURVE",
"643.99 -152.612 OFFCURVE",
"626.99 -152.612 CURVE SMOOTH",
"588.408 -152.612 OFFCURVE",
"565.175 -131.262 OFFCURVE",
"565.175 -89.214 CURVE SMOOTH",
"565.175 -47.864 OFFCURVE",
"589.126 0 OFFCURVE",
"666.388 0 CURVE SMOOTH",
"668.029 0 LINE",
"417.243 712 LINE",
"376.68 712 LINE",
"14.893 0 LINE",
"61.427 0 LINE",
"407.786 686.835 LINE",
"382.068 686.835 LINE",
"622.68 0 LINE",
"650.379 38.583 LINE",
"559 24.398 OFFCURVE",
"519 -30.117 OFFCURVE",
"519 -93.117 CURVE SMOOTH",
"519 -153.883 OFFCURVE",
"560.068 -192.301 OFFCURVE",
"624.67 -192.301 CURVE SMOOTH",
"656.553 -192.301 OFFCURVE",
"687.437 -180.835 OFFCURVE",
"703.922 -168.951 CURVE",
"690.689 -132.796 LINE"
);
}
);
width = 720.80583;
},
{
layerId = "EC690951-C754-4A23-894B-8F4258F2E540";
paths = (
{
closed = 1;
nodes = (
"617.32 147.379 LINE",
"557.699 287.854 LINE",
"207.524 287.854 LINE",
"123.408 147.379 LINE"
);
},
{
closed = 1;
nodes = (
"718.621 -107.243 OFFCURVE",
"702.019 -110.777 OFFCURVE",
"685.019 -110.777 CURVE SMOOTH",
"653.184 -110.777 OFFCURVE",
"632.65 -93.476 OFFCURVE",
"632.65 -63.573 CURVE SMOOTH",
"632.65 -26.272 OFFCURVE",
"668.748 0 OFFCURVE",
"708.223 0 CURVE SMOOTH",
"771.942 0 LINE",
"495.515 712 LINE",
"345.641 712 LINE",
"-41.786 0 LINE",
"149.146 0 LINE",
"433.427 561.33 LINE",
"392.864 561.33 LINE",
"591.641 0 LINE",
"611.243 31.835 LINE",
"559 8.204 OFFCURVE",
"519 -28.767 OFFCURVE",
"519 -91.767 CURVE SMOOTH",
"519 -155.233 OFFCURVE",
"570.864 -200.398 OFFCURVE",
"651.66 -200.398 CURVE SMOOTH",
"684.893 -200.398 OFFCURVE",
"717.126 -194.33 OFFCURVE",
"751.155 -181.097 CURVE",
"740.621 -100.408 LINE"
);
}
);
width = 769.38835;
},
{
layerId = "FCB30AE2-FEFD-4E77-A1D9-4C86342947F4";
paths = (
{
closed = 1;
nodes = (
"578.485 183.301 LINE",
"554.786 250.961 LINE",
"180.34 250.961 LINE",
"146.709 183.301 LINE"
);
},
{
closed = 1;
nodes = (
"682.699 -135.398 OFFCURVE",
"660.272 -140.874 OFFCURVE",
"643.272 -140.874 CURVE SMOOTH",
"606.583 -140.874 OFFCURVE",
"584.107 -120.66 OFFCURVE",
"584.107 -82.02 CURVE SMOOTH",
"584.107 -41.806 OFFCURVE",
"611.466 0 OFFCURVE",
"678.126 0 CURVE SMOOTH",
"697.184 0 LINE",
"439.204 712 LINE",
"367.971 712 LINE",
"-1.01 0 LINE",
"86.039 0 LINE",
"414.98 651.621 LINE",
"385.097 651.621 LINE",
"613.971 0 LINE",
"639.398 36.69 LINE",
"559 19.854 OFFCURVE",
"519 -29.738 OFFCURVE",
"519 -92.738 CURVE SMOOTH",
"519 -154.262 OFFCURVE",
"563.097 -194.573 OFFCURVE",
"632.243 -194.573 CURVE SMOOTH",
"664.505 -194.573 OFFCURVE",
"695.767 -184.621 OFFCURVE",
"717.174 -172.359 CURVE",
"704.699 -123.709 LINE"
);
}
);
width = 734.4369;
}
);
leftKerningGroup = A;
rightKerningGroup = A;
unicode = 0104;
},
{
glyphname = Aring;
lastChange = "2019-01-16 15:38:21 +0000";
layers = (
{
layerId = "CF304C0A-4888-46C0-9BE5-45819D47B95E";
paths = (
{
closed = 1;
nodes = (
"61.427 0 LINE",
"407.786 686.835 LINE",
"382.068 686.835 LINE",
"622.68 0 LINE",
"668.029 0 LINE",
"417.243 712 LINE",
"376.68 712 LINE",
"14.893 0 LINE"
);
},
{
closed = 1;
nodes = (
"563.34 197.311 LINE",
"553.65 236.573 LINE",
"169.738 236.573 LINE",
"155.796 197.311 LINE"
);
},
{
closed = 1;
nodes = (
"453.738 682.583 OFFCURVE",
"497.155 724 OFFCURVE",
"497.155 778.184 CURVE SMOOTH",
"497.155 831.369 OFFCURVE",
"453.738 873.786 OFFCURVE",
"399.553 873.786 CURVE SMOOTH",
"345.252 873.786 OFFCURVE",
"301.951 831.369 OFFCURVE",
"301.951 778.184 CURVE SMOOTH",
"301.951 724 OFFCURVE",
"345.252 682.583 OFFCURVE",
"399.553 682.583 CURVE SMOOTH"
);
},
{
closed = 1;
nodes = (
"370.087 724.369 OFFCURVE",
"347.621 747.602 OFFCURVE",
"347.621 778.184 CURVE SMOOTH",
"347.621 807.65 OFFCURVE",
"370.087 831 OFFCURVE",
"399.553 831 CURVE SMOOTH",
"429.019 831 OFFCURVE",
"450.252 807.65 OFFCURVE",
"450.252 778.184 CURVE SMOOTH",
"450.252 747.602 OFFCURVE",
"429.019 724.369 OFFCURVE",
"399.553 724.369 CURVE SMOOTH"
);
}
);
width = 720.80583;
},
{
layerId = "EC690951-C754-4A23-894B-8F4258F2E540";
paths = (
{
closed = 1;
nodes = (
"149.146 0 LINE",
"433.427 561.33 LINE",
"392.864 561.33 LINE",
"591.641 0 LINE",
"771.942 0 LINE",
"495.515 712 LINE",
"345.641 712 LINE",
"-41.786 0 LINE"
);
},
{
closed = 1;
nodes = (
"617.32 147.379 LINE",
"557.699 287.854 LINE",
"207.524 287.854 LINE",
"123.408 147.379 LINE"
);
},
{
closed = 1;
nodes = (
"491.524 675.835 OFFCURVE",
"541.689 724 OFFCURVE",
"541.689 787.631 CURVE SMOOTH",
"541.689 850.262 OFFCURVE",
"491.524 899.427 OFFCURVE",
"427.893 899.427 CURVE SMOOTH",
"365.495 899.427 OFFCURVE",
"314.097 850.262 OFFCURVE",
"314.097 787.631 CURVE SMOOTH",
"314.097 724 OFFCURVE",
"365.495 675.835 OFFCURVE",
"427.893 675.835 CURVE SMOOTH"
);
},
{
closed = 1;
nodes = (
"403.825 743.262 OFFCURVE",
"386.757 763.796 OFFCURVE",
"386.757 787.631 CURVE SMOOTH",
"386.757 811.699 OFFCURVE",
"403.825 831 OFFCURVE",
"427.893 831 CURVE SMOOTH",
"451.961 831 OFFCURVE",
"470.495 811.699 OFFCURVE",
"470.495 787.631 CURVE SMOOTH",
"470.495 763.796 OFFCURVE",
"451.961 743.262 OFFCURVE",
"427.893 743.262 CURVE SMOOTH"
);
}
);
width = 769.38835;
},
{
layerId = "FCB30AE2-FEFD-4E77-A1D9-4C86342947F4";
paths = (
{
closed = 1;
nodes = (
"86.039 0 LINE",
"414.98 651.621 LINE",
"385.097 651.621 LINE",
"613.971 0 LINE",
"697.184 0 LINE",
"439.204 712 LINE",
"367.971 712 LINE",
"-1.01 0 LINE"
);
},
{
closed = 1;
nodes = (
"578.485 183.301 LINE",
"554.786 250.961 LINE",
"180.34 250.961 LINE",
"146.709 183.301 LINE"
);
},
{
closed = 1;
nodes = (
"464.34 680.69 OFFCURVE",
"509.65 724 OFFCURVE",
"509.65 780.835 CURVE SMOOTH",
"509.65 836.67 OFFCURVE",
"464.34 880.98 OFFCURVE",
"407.505 880.98 CURVE SMOOTH",
"350.932 880.98 OFFCURVE",
"305.359 836.67 OFFCURVE",
"305.359 780.835 CURVE SMOOTH",
"305.359 724 OFFCURVE",
"350.932 680.69 OFFCURVE",
"407.505 680.69 CURVE SMOOTH"
);
},
{
closed = 1;
nodes = (
"379.553 729.67 OFFCURVE",
"358.602 752.146 OFFCURVE",
"358.602 780.835 CURVE SMOOTH",
"358.602 808.786 OFFCURVE",
"379.553 831 OFFCURVE",
"407.505 831 CURVE SMOOTH",
"435.456 831 OFFCURVE",
"455.932 808.786 OFFCURVE",
"455.932 780.835 CURVE SMOOTH",
"455.932 752.146 OFFCURVE",
"435.456 729.67 OFFCURVE",
"407.505 729.67 CURVE SMOOTH"
);
}
);
width = 734.4369;
}
);
leftKerningGroup = A;
rightKerningGroup = A;
unicode = 00C5;
},
{
glyphname = Aringacute;
lastChange = "2019-01-16 15:38:21 +0000";
layers = (
{
layerId = "CF304C0A-4888-46C0-9BE5-45819D47B95E";
paths = (
{
closed = 1;
nodes = (
"61.427 0 LINE",
"407.786 686.835 LINE",
"382.068 686.835 LINE",
"622.68 0 LINE",
"668.029 0 LINE",
"417.243 712 LINE",
"376.68 712 LINE",
"14.893 0 LINE"
);
},
{
closed = 1;
nodes = (
"563.34 197.311 LINE",
"553.65 236.573 LINE",
"169.738 236.573 LINE",
"155.796 197.311 LINE"
);
},
{
closed = 1;
nodes = (
"453.738 682.583 OFFCURVE",
"497.155 724 OFFCURVE",
"497.155 778.184 CURVE SMOOTH",
"497.155 831.369 OFFCURVE",
"453.738 873.786 OFFCURVE",
"399.553 873.786 CURVE SMOOTH",
"345.252 873.786 OFFCURVE",
"301.951 831.369 OFFCURVE",
"301.951 778.184 CURVE SMOOTH",
"301.951 724 OFFCURVE",
"345.252 682.583 OFFCURVE",
"399.553 682.583 CURVE SMOOTH"
);
},
{
closed = 1;
nodes = (
"370.087 724.369 OFFCURVE",
"347.621 747.602 OFFCURVE",
"347.621 778.184 CURVE SMOOTH",
"347.621 807.65 OFFCURVE",
"370.087 831 OFFCURVE",
"399.553 831 CURVE SMOOTH",
"429.019 831 OFFCURVE",
"450.252 807.65 OFFCURVE",
"450.252 778.184 CURVE SMOOTH",
"450.252 747.602 OFFCURVE",
"429.019 724.369 OFFCURVE",
"399.553 724.369 CURVE SMOOTH"
);
},
{
closed = 1;
nodes = (
"628.01 947.184 LINE",
"559.864 947.184 LINE",
"447.602 840.087 LINE",
"476.456 826.466 LINE"
);
}
);
width = 720.80583;
},
{
layerId = "EC690951-C754-4A23-894B-8F4258F2E540";
paths = (
{
closed = 1;
nodes = (
"149.146 0 LINE",
"433.427 561.33 LINE",
"392.864 561.33 LINE",
"591.641 0 LINE",
"771.942 0 LINE",
"495.515 712 LINE",
"345.641 712 LINE",
"-41.786 0 LINE"
);
},
{
closed = 1;
nodes = (
"617.32 147.379 LINE",
"557.699 287.854 LINE",
"207.524 287.854 LINE",
"123.408 147.379 LINE"
);
},
{
closed = 1;
nodes = (
"491.524 675.835 OFFCURVE",
"541.689 724 OFFCURVE",
"541.689 787.631 CURVE SMOOTH",
"541.689 850.262 OFFCURVE",
"491.524 899.427 OFFCURVE",
"427.893 899.427 CURVE SMOOTH",
"365.495 899.427 OFFCURVE",
"314.097 850.262 OFFCURVE",
"314.097 787.631 CURVE SMOOTH",
"314.097 724 OFFCURVE",
"365.495 675.835 OFFCURVE",
"427.893 675.835 CURVE SMOOTH"
);
},
{
closed = 1;
nodes = (
"403.825 743.262 OFFCURVE",
"386.757 763.796 OFFCURVE",
"386.757 787.631 CURVE SMOOTH",
"386.757 811.699 OFFCURVE",
"403.825 831 OFFCURVE",
"427.893 831 CURVE SMOOTH",
"451.961 831 OFFCURVE",
"470.495 811.699 OFFCURVE",
"470.495 787.631 CURVE SMOOTH",
"470.495 763.796 OFFCURVE",
"451.961 743.262 OFFCURVE",
"427.893 743.262 CURVE SMOOTH"
);
},
{
closed = 1;
nodes = (
"708.981 956.631 LINE",
"538.272 956.631 LINE",
"463.796 873.825 LINE",
"529.087 821.068 LINE"
);
}
);
width = 769.38835;
},
{
layerId = "FCB30AE2-FEFD-4E77-A1D9-4C86342947F4";
paths = (
{
closed = 1;
nodes = (
"86.039 0 LINE",
"414.98 651.621 LINE",
"385.097 651.621 LINE",
"613.971 0 LINE",
"697.184 0 LINE",
"439.204 712 LINE",
"367.971 712 LINE",
"-1.01 0 LINE"
);
},
{
closed = 1;
nodes = (
"578.485 183.301 LINE",
"554.786 250.961 LINE",
"180.34 250.961 LINE",
"146.709 183.301 LINE"
);
},
{
closed = 1;
nodes = (
"464.34 680.69 OFFCURVE",
"509.65 724 OFFCURVE",
"509.65 780.835 CURVE SMOOTH",
"509.65 836.67 OFFCURVE",
"464.34 880.98 OFFCURVE",
"407.505 880.98 CURVE SMOOTH",
"350.932 880.98 OFFCURVE",
"305.359 836.67 OFFCURVE",
"305.359 780.835 CURVE SMOOTH",
"305.359 724 OFFCURVE",
"350.932 680.69 OFFCURVE",
"407.505 680.69 CURVE SMOOTH"
);
},
{
closed = 1;
nodes = (
"379.553 729.67 OFFCURVE",
"358.602 752.146 OFFCURVE",
"358.602 780.835 CURVE SMOOTH",
"358.602 808.786 OFFCURVE",
"379.553 831 OFFCURVE",
"407.505 831 CURVE SMOOTH",
"435.456 831 OFFCURVE",
"455.932 808.786 OFFCURVE",
"455.932 780.835 CURVE SMOOTH",
"455.932 752.146 OFFCURVE",
"435.456 729.67 OFFCURVE",
"407.505 729.67 CURVE SMOOTH"
);
},
{
closed = 1;
nodes = (
"650.728 949.835 LINE",
"553.806 949.835 LINE",
"452.146 849.553 LINE",
"491.223 824.951 LINE"
);
}
);
width = 734.4369;
}
);
leftKerningGroup = A;
rightKerningGroup = A;
unicode = 01FA;
},
{
glyphname = AE;
lastChange = "2019-01-16 15:38:21 +0000";
layers = (
{
anchors = (
{
name = bottom;
position = "{503.398, 0}";
},
{
name = top;
position = "{619.806, 712}";
}
);
layerId = "CF304C0A-4888-46C0-9BE5-45819D47B95E";
paths = (
{
closed = 1;
nodes = (
"44.495 0 LINE",
"499.621 679.573 LINE",
"472.32 671.971 LINE",
"974.204 671.971 LINE",
"976.505 712 LINE",
"475.563 712 LINE",
"-4.874 0 LINE"
);
},
{
closed = 1;
nodes = (
"569.485 197.311 LINE",
"566.932 236.573 LINE",
"159.573 236.573 LINE",
"144.631 197.311 LINE"
);
},
{
closed = 1;
nodes = (
"920.505 0 LINE",
"923.689 40.029 LINE",
"581.981 40.029 LINE",
"570.35 693.709 LINE",
"532.767 693.709 LINE",
"544.981 0 LINE"
);
},
{
closed = 1;
nodes = (
"926.854 341.427 LINE",
"930.039 381.456 LINE",
"573.718 381.456 LINE",
"570.417 341.427 LINE"
);
}
);
width = 996.48544;
},
{
anchors = (
{
name = bottom;
position = "{487.204, 0}";
},
{
name = top;
position = "{529.388, 712}";
}
);
layerId = "EC690951-C754-4A23-894B-8F4258F2E540";
paths = (
{
closed = 1;
nodes = (
"143.01 0 LINE",
"538.757 591.854 LINE",
"503.359 568.058 LINE",
"1006.592 568.058 LINE",
"1016.99 712 LINE",
"445.874 712 LINE",
"-64.252 0 LINE"
);
},
{
closed = 1;
nodes = (
"587.029 147.379 LINE",
"556.136 287.854 LINE",
"210.854 287.854 LINE",
"125.738 147.379 LINE"
);
},
{
closed = 1;
nodes = (
"960.99 0 LINE",
"973.621 143.942 LINE",
"698.039 143.942 LINE",
"705.301 627.583 LINE",
"535.466 627.583 LINE",
"522.039 0 LINE"
);
},
{
closed = 1;
nodes = (
"963.291 290.146 LINE",
"975.922 434.087 LINE",
"588.563 434.087 LINE",
"577.165 290.146 LINE"
);
}
);
width = 1014.02913;
},
{
anchors = (
{
name = bottom;
position = "{498.854, 0}";
},
{
name = top;
position = "{594.437, 712}";
}
);
layerId = "FCB30AE2-FEFD-4E77-A1D9-4C86342947F4";
paths = (
{
closed = 1;
nodes = (
"72.136 0 LINE",
"510.602 654.961 LINE",
"481.029 642.816 LINE",
"983.291 642.816 LINE",
"987.864 712 LINE",
"467.233 712 LINE",
"-21.534 0 LINE"
);
},
{
closed = 1;
nodes = (
"574.407 183.301 LINE",
"563.903 250.961 LINE",
"173.961 250.961 LINE",
"139.33 183.301 LINE"
);
},
{
closed = 1;
nodes = (
"931.864 0 LINE",
"937.699 69.184 LINE",
"614.544 69.184 LINE",
"608.214 675.156 LINE",
"533.524 675.156 LINE",
"538.544 0 LINE"
);
},
{
closed = 1;
nodes = (
"937.077 327.039 LINE",
"942.913 396.223 LINE",
"577.883 396.223 LINE",
"572.31 327.039 LINE"
);
}
);
width = 1001.40777;
}
);
leftKerningGroup = A;
rightKerningGroup = E;
unicode = 00C6;
userData = {
com.typemytype.robofont.layerData = {
b = {
anchors = (
);
components = (
);
contours = (
);
lib = {
};
name = AE;
unicodes = (
);
width = 1976;
};
};
};
},
{
glyphname = B;
lastChange = "2019-01-16 15:38:21 +0000";
layers = (
{
anchors = (
{
name = bottom;
position = "{321.718, 0}";
},
{
name = top;
position = "{376.602, 712}";
}
);
layerId = "CF304C0A-4888-46C0-9BE5-45819D47B95E";
paths = (
{
closed = 1;
nodes = (
"363.505 0 LINE SMOOTH",
"513.806 0 OFFCURVE",
"598.709 76.466 OFFCURVE",
"598.709 206.35 CURVE SMOOTH",
"598.709 293.932 OFFCURVE",
"551.709 350.883 OFFCURVE",
"457.66 366.65 CURVE",
"470.058 359.767 LINE",
"562.942 386.417 OFFCURVE",
"608.942 452.35 OFFCURVE",
"608.942 538.583 CURVE SMOOTH",
"608.942 651.515 OFFCURVE",
"533.291 712 OFFCURVE",
"386.689 712 CURVE SMOOTH",
"133.796 712 LINE",
"78.796 0 LINE"
);
},
{
closed = 1;
nodes = (
"174.379 672.854 LINE",
"389.835 672.854 LINE SMOOTH",
"505.913 672.854 OFFCURVE",
"565.825 628.107 OFFCURVE",
"565.825 541.379 CURVE SMOOTH",
"565.825 437.951 OFFCURVE",
"494.214 381.573 OFFCURVE",
"377.835 381.573 CURVE SMOOTH",
"138.796 381.573 LINE",
"135.495 341.311 LINE",
"378.136 341.311 LINE SMOOTH",
"497.447 341.311 OFFCURVE",
"553.893 292.214 OFFCURVE",
"553.893 198.369 CURVE SMOOTH",
"553.893 93.291 OFFCURVE",
"486.864 39.146 OFFCURVE",
"366.136 39.146 CURVE SMOOTH",
"123.981 39.146 LINE"
);
}
);
width = 673.5534;
},
{
anchors = (
{
name = bottom;
position = "{336.563, 0}";
},
{
name = top;
position = "{392.796, 712}";
}
);
layerId = "EC690951-C754-4A23-894B-8F4258F2E540";
paths = (
{
closed = 1;
nodes = (
"403.99 0 LINE SMOOTH",
"562.388 0 OFFCURVE",
"671.583 71.068 OFFCURVE",
"671.583 202.301 CURVE SMOOTH",
"671.583 283.136 OFFCURVE",
"624.583 352.233 OFFCURVE",
"542.68 370.699 CURVE",
"538.883 362.466 LINE",
"633.117 393.165 OFFCURVE",
"679.117 448.301 OFFCURVE",
"679.117 531.835 CURVE SMOOTH",
"679.117 633.971 OFFCURVE",
"599.417 712 OFFCURVE",
"436.621 712 CURVE SMOOTH",
"101.408 712 LINE",
"46.408 0 LINE"
);
},
{
closed = 1;
nodes = (
"274.243 570.291 LINE",
"403.33 570.291 LINE SMOOTH",
"472.175 570.291 OFFCURVE",
"498.35 545.786 OFFCURVE",
"498.35 502.243 CURVE SMOOTH",
"498.35 450.097 OFFCURVE",
"468.573 432.854 OFFCURVE",
"391.33 432.854 CURVE SMOOTH",
"245.408 432.854 LINE",
"234.01 291.379 LINE",
"399.728 291.379 LINE SMOOTH",
"469.107 291.379 OFFCURVE",
"497.214 266.573 OFFCURVE",
"497.214 217.262 CURVE SMOOTH",
"497.214 159.417 OFFCURVE",
"465.272 141.709 OFFCURVE",
"387.728 141.709 CURVE SMOOTH",
"240.039 141.709 LINE"
);
}
);
width = 701.8932;
},
{
anchors = (
{
name = bottom;
position = "{325.883, 0}";
},
{
name = top;
position = "{381.146, 712}";
}
);
layerId = "FCB30AE2-FEFD-4E77-A1D9-4C86342947F4";
paths = (
{
closed = 1;
nodes = (
"374.864 0 LINE SMOOTH",
"527.437 0 OFFCURVE",
"619.156 74.951 OFFCURVE",
"619.156 205.214 CURVE SMOOTH",
"619.156 290.903 OFFCURVE",
"572.156 351.262 OFFCURVE",
"481.515 367.786 CURVE",
"489.369 360.524 LINE",
"582.631 388.31 OFFCURVE",
"628.631 451.214 OFFCURVE",
"628.631 536.69 CURVE SMOOTH",
"628.631 646.593 OFFCURVE",
"551.844 712 OFFCURVE",
"400.699 712 CURVE SMOOTH",
"124.709 712 LINE",
"69.709 0 LINE"
);
},
{
closed = 1;
nodes = (
"202.398 644.077 LINE",
"393.621 644.077 LINE SMOOTH",
"496.447 644.077 OFFCURVE",
"546.893 605.01 OFFCURVE",
"546.893 530.398 CURVE SMOOTH",
"546.893 441.359 OFFCURVE",
"487.02 395.961 OFFCURVE",
"381.621 395.961 CURVE SMOOTH",
"168.709 395.961 LINE",
"163.136 327.301 LINE",
"384.194 327.301 LINE SMOOTH",
"489.495 327.301 OFFCURVE",
"537.99 285.02 OFFCURVE",
"537.99 203.67 CURVE SMOOTH",
"537.99 111.844 OFFCURVE",
"480.806 67.923 OFFCURVE",
"372.194 67.923 CURVE SMOOTH",
"156.544 67.923 LINE"
);
}
);
width = 681.50485;
}
);
leftKerningGroup = H;
rightKerningGroup = B;
unicode = 0042;
userData = {
anchors = (
);
b = {
};
com.typemytype.robofont.layerData = {
b = {
anchors = (
);
components = (
);
contours = (
{
points = (
{
segmentType = curve;
smooth = 1;
x = 266;
y = 0;
},
{
segmentType = line;
smooth = 1;
x = 1035;
y = 0;
},
{
smooth = 0;
x = 1084;
y = 0;
},
{
smooth = 0;
x = 1108;
y = 36;
},
{
segmentType = curve;
smooth = 1;
x = 1108;
y = 73;
},
{
smooth = 0;
x = 1108;
y = 109;
},
{
smooth = 0;
x = 1084;
y = 145;
},
{
segmentType = curve;
smooth = 1;
x = 1035;
y = 145;
},
{
segmentType = line;
smooth = 0;
x = 353;
y = 145;
},
{
segmentType = line;
smooth = 0;
x = 353;
y = 662;
},
{
segmentType = line;
smooth = 1;
x = 975;
y = 662;
},
{
smooth = 0;
x = 1024;
y = 662;
},
{
smooth = 0;
x = 1049;
y = 698;
},
{
segmentType = curve;
smooth = 1;
x = 1049;
y = 734;
},
{
smooth = 0;
x = 1049;
y = 770;
},
{
smooth = 0;
x = 1026;
y = 806;
},
{
segmentType = curve;
smooth = 1;
x = 975;
y = 806;
},
{
segmentType = line;
smooth = 0;
x = 353;
y = 806;
},
{
segmentType = line;
smooth = 0;
x = 353;
y = 1281;
},
{
segmentType = line;
smooth = 1;
x = 1007;
y = 1281;
},
{
smooth = 0;
x = 1056;
y = 1281;
},
{
smooth = 0;
x = 1080;
y = 1317;
},
{
segmentType = curve;
smooth = 1;
x = 1080;
y = 1354;
},
{
smooth = 0;
x = 1080;
y = 1390;
},
{
smooth = 0;
x = 1056;
y = 1426;
},
{
segmentType = curve;
smooth = 1;
x = 1007;
y = 1426;
},
{
segmentType = line;
smooth = 1;
x = 261;
y = 1426;
},
{
smooth = 0;
x = 213;
y = 1426;
},
{
smooth = 0;
x = 178;
y = 1383;
},
{
segmentType = curve;
smooth = 1;
x = 178;
y = 1340;
},
{
segmentType = line;
smooth = 1;
x = 178;
y = 86;
},
{
smooth = 0;
x = 178;
y = 41;
},
{
smooth = 0;
x = 222;
y = 0;
}
);
}
);
lib = {
};
name = B;
unicodes = (
);
width = 1292;
};
};
components = (
);
contours = {
};
lib = {
};
name = B;
points = {
};
segmentType = curve;
unicodes = (
);
width = 1395;
x = 676;
y = 1260;
};
},
{
glyphname = C;
lastChange = "2019-01-16 15:38:21 +0000";
layers = (
{
anchors = (
{
name = bottom;
position = "{365.485, 0}";
},
{
name = top;
position = "{421.602, 712}";
}
);
layerId = "CF304C0A-4888-46C0-9BE5-45819D47B95E";
paths = (
{
closed = 1;
nodes = (
"466.553 -7.883 OFFCURVE",
"547.272 24.233 OFFCURVE",
"615.019 87.631 CURVE",
"596.466 123.243 LINE",
"528.699 58.262 OFFCURVE",
"452.068 32.796 OFFCURVE",
"377.437 32.796 CURVE SMOOTH",
"213.427 32.796 OFFCURVE",
"120.282 136.942 OFFCURVE",
"120.282 321.951 CURVE SMOOTH",
"120.282 544.476 OFFCURVE",
"224.078 679.204 OFFCURVE",
"401.155 679.204 CURVE SMOOTH",
"502.883 679.204 OFFCURVE",
"567.932 652.505 OFFCURVE",
"632.515 589.874 CURVE",
"657.786 624.369 LINE",
"598.252 688.534 OFFCURVE",
"510.136 719.883 OFFCURVE",
"404.204 719.883 CURVE SMOOTH",
"200.534 719.883 OFFCURVE",
"75.864 565.65 OFFCURVE",
"75.864 323.068 CURVE SMOOTH",
"75.864 116.417 OFFCURVE",
"190.35 -7.883 OFFCURVE",
"363.621 -7.883 CURVE SMOOTH"
);
}
);
width = 683.8835;
},
{
anchors = (
{
name = bottom;
position = "{383.029, 0}";
},
{
name = top;
position = "{437.796, 712}";
}
);
layerId = "EC690951-C754-4A23-894B-8F4258F2E540";
paths = (
{
closed = 1;
nodes = (
"494.893 -9.233 OFFCURVE",
"590.456 21.534 OFFCURVE",
"637.961 68.738 CURVE",
"591.068 201.515 LINE",
"520.602 159.476 OFFCURVE",
"462.864 139.408 OFFCURVE",
"407.126 139.408 CURVE SMOOTH",
"301.146 139.408 OFFCURVE",
"244.437 207.117 OFFCURVE",
"244.437 334.097 CURVE SMOOTH",
"244.437 481.049 OFFCURVE",
"315.845 572.592 OFFCURVE",
"445.689 572.592 CURVE SMOOTH",
"504.233 572.592 OFFCURVE",
"557.136 553.99 OFFCURVE",
"614.971 510.252 CURVE",
"683.427 643.262 LINE",
"618.495 693.932 OFFCURVE",
"531.728 721.233 OFFCURVE",
"436.592 721.233 CURVE SMOOTH",
"205.932 721.233 OFFCURVE",
"54.272 569.699 OFFCURVE",
"54.272 333.864 CURVE SMOOTH",
"54.272 123.165 OFFCURVE",
"186.301 -9.233 OFFCURVE",
"402.757 -9.233 CURVE SMOOTH"
);
}
);
width = 685.23301;
},
{
anchors = (
{
name = bottom;
position = "{370.407, 0}";
},
{
name = top;
position = "{426.146, 712}";
}
);
layerId = "FCB30AE2-FEFD-4E77-A1D9-4C86342947F4";
paths = (
{
closed = 1;
nodes = (
"474.505 -8.262 OFFCURVE",
"559.388 23.476 OFFCURVE",
"621.456 82.33 CURVE",
"594.951 145.204 LINE",
"526.427 86.66 OFFCURVE",
"455.097 62.709 OFFCURVE",
"385.767 62.709 CURVE SMOOTH",
"238.039 62.709 OFFCURVE",
"155.117 156.631 OFFCURVE",
"155.117 325.359 CURVE SMOOTH",
"155.117 526.68 OFFCURVE",
"249.826 649.291 OFFCURVE",
"413.65 649.291 CURVE SMOOTH",
"503.262 649.291 OFFCURVE",
"564.903 624.864 OFFCURVE",
"627.593 567.534 CURVE",
"664.98 629.67 LINE",
"603.932 690.049 OFFCURVE",
"516.194 720.262 OFFCURVE",
"413.291 720.262 CURVE SMOOTH",
"202.049 720.262 OFFCURVE",
"69.806 566.786 OFFCURVE",
"69.806 326.097 CURVE SMOOTH",
"69.806 118.31 OFFCURVE",
"189.214 -8.262 OFFCURVE",
"374.602 -8.262 CURVE SMOOTH"
);
}
);
width = 684.26214;
}
);
leftKerningGroup = O;
rightKerningGroup = C;
unicode = 0043;
userData = {
anchors = (
);
b = {
};
com.typemytype.robofont.layerData = {
b = {
anchors = (
);
components = (
);
contours = (
);
lib = {
};
name = C;
unicodes = (
);
width = 1353.89;
};
};
components = (
);
contours = (
);
lib = {
};
name = C;
unicodes = (
);
width = 1354;
};
},
{
glyphname = D;
lastChange = "2019-01-16 15:38:21 +0000";
layers = (
{
anchors = (
{
name = bottom;
position = "{348.019, 0}";
},
{
name = center;
position = "{377.136, 357}";
},
{
name = top;
position = "{403.019, 712}";
}
);
layerId = "CF304C0A-4888-46C0-9BE5-45819D47B95E";
paths = (
{
closed = 1;
nodes = (
"325.369 0 LINE SMOOTH",
"550.039 0 OFFCURVE",
"675.058 146.816 OFFCURVE",
"675.058 387.816 CURVE SMOOTH",
"675.058 596.165 OFFCURVE",
"562.155 712 OFFCURVE",
"347.155 712 CURVE SMOOTH",
"133.913 712 LINE",
"78.913 0 LINE"
);
},
{
closed = 1;
nodes = (
"174.146 673.67 LINE",
"348.485 673.67 LINE SMOOTH",
"538.194 673.67 OFFCURVE",
"629.175 575.757 OFFCURVE",
"629.175 388.816 CURVE SMOOTH",
"629.175 168.573 OFFCURVE",
"526.728 38.33 OFFCURVE",
"325.883 38.33 CURVE SMOOTH",
"123.631 38.33 LINE"
);
}
);
width = 734.03883;
},
{
anchors = (
{
name = bottom;
position = "{370.961, 0}";
},
{
name = center;
position = "{398.728, 357}";
},
{
name = top;
position = "{425.961, 712}";
}
);
layerId = "EC690951-C754-4A23-894B-8F4258F2E540";
paths = (
{
closed = 1;
nodes = (
"344.262 0 LINE SMOOTH",
"595.922 0 OFFCURVE",
"743.883 137.369 OFFCURVE",
"743.883 378.369 CURVE SMOOTH",
"743.883 582.67 OFFCURVE",
"606.689 712 OFFCURVE",
"391.689 712 CURVE SMOOTH",
"100.175 712 LINE",
"45.175 0 LINE"
);
},
{
closed = 1;
nodes = (
"276.709 561.66 LINE",
"366.029 561.66 LINE SMOOTH",
"489.612 561.66 OFFCURVE",
"557.65 497.485 OFFCURVE",
"557.65 379.369 CURVE SMOOTH",
"557.65 219.854 OFFCURVE",
"483.544 150.34 OFFCURVE",
"327.233 150.34 CURVE SMOOTH",
"243.738 150.34 LINE"
);
}
);
width = 779.92233;
},
{
anchors = (
{
name = bottom;
position = "{354.456, 0}";
},
{
name = center;
position = "{383.194, 357}";
},
{
name = top;
position = "{409.456, 712}";
}
);
layerId = "FCB30AE2-FEFD-4E77-A1D9-4C86342947F4";
paths = (
{
closed = 1;
nodes = (
"330.67 0 LINE SMOOTH",
"562.913 0 OFFCURVE",
"694.369 144.165 OFFCURVE",
"694.369 385.165 CURVE SMOOTH",
"694.369 592.379 OFFCURVE",
"574.65 712 OFFCURVE",
"359.65 712 CURVE SMOOTH",
"124.447 712 LINE",
"69.447 0 LINE"
);
},
{
closed = 1;
nodes = (
"202.923 642.243 LINE",
"353.407 642.243 LINE SMOOTH",
"524.563 642.243 OFFCURVE",
"609.107 553.796 OFFCURVE",
"609.107 386.165 CURVE SMOOTH",
"609.107 182.961 OFFCURVE",
"514.612 69.757 OFFCURVE",
"326.262 69.757 CURVE SMOOTH",
"157.33 69.757 LINE"
);
}
);
width = 746.91262;
}
);
leftKerningGroup = H;
rightKerningGroup = O;
unicode = 0044;
userData = {
anchors = (
);
b = {
};
com.typemytype.robofont.layerData = {
b = {
anchors = (
);
components = (
);
contours = (
{
points = (
{
segmentType = curve;
smooth = 1;
x = 266;
y = 0;
},
{
segmentType = line;
smooth = 1;
x = 1035;
y = 0;
},
{
smooth = 0;
x = 1084;
y = 0;
},
{
smooth = 0;
x = 1108;
y = 34;
},
{
segmentType = curve;
smooth = 1;
x = 1108;
y = 71;
},
{
smooth = 0;
x = 1108;
y = 107;
},
{
smooth = 0;
x = 1084;
y = 141;
},
{
segmentType = curve;
smooth = 1;
x = 1035;
y = 141;
},
{
segmentType = line;
smooth = 0;
x = 356;
y = 141;
},
{
segmentType = line;
smooth = 0;
x = 356;
y = 665;
},
{
segmentType = line;
smooth = 1;
x = 975;
y = 665;
},
{
smooth = 0;
x = 1024;
y = 665;
},
{
smooth = 0;
x = 1049;
y = 698;
},
{
segmentType = curve;
smooth = 1;
x = 1049;
y = 734;
},
{
smooth = 0;
x = 1049;
y = 770;
},
{
smooth = 0;
x = 1026;
y = 803;
},
{
segmentType = curve;
smooth = 1;
x = 975;
y = 803;
},
{
segmentType = line;
smooth = 0;
x = 356;
y = 803;
},
{
segmentType = line;
smooth = 0;
x = 356;
y = 1285;
},
{
segmentType = line;
smooth = 1;
x = 1007;
y = 1285;
},
{
smooth = 0;
x = 1056;
y = 1285;
},
{
smooth = 0;
x = 1080;
y = 1319;
},
{
segmentType = curve;
smooth = 1;
x = 1080;
y = 1356;
},
{
smooth = 0;
x = 1080;
y = 1392;
},
{
smooth = 0;
x = 1056;
y = 1426;
},
{
segmentType = curve;
smooth = 1;
x = 1007;
y = 1426;
},
{
segmentType = line;
smooth = 1;
x = 261;
y = 1426;
},
{
smooth = 0;
x = 213;
y = 1426;
},
{
smooth = 0;
x = 178;
y = 1383;
},
{
segmentType = curve;
smooth = 1;
x = 178;
y = 1340;
},
{
segmentType = line;
smooth = 1;
x = 178;
y = 86;
},
{
smooth = 0;
x = 178;
y = 41;
},
{
smooth = 0;
x = 222;
y = 0;
}
);
}
);
lib = {
};
name = D;
unicodes = (
);
width = 1499;
};
};
components = (
);
contours = (
);
lib = {
};
name = D;
unicodes = (
);
width = 1535;
};
},
{
glyphname = Eth;
lastChange = "2019-01-16 15:38:21 +0000";
layers = (
{
layerId = "CF304C0A-4888-46C0-9BE5-45819D47B95E";
paths = (
{
closed = 1;
nodes = (
"348.932 342.66 LINE",
"352.233 380.806 LINE",
"14.485 380.806 LINE",
"11.184 342.66 LINE"
);
},
{
closed = 1;
nodes = (
"328.34 0 LINE SMOOTH",
"554.243 0 OFFCURVE",
"678.029 146.816 OFFCURVE",
"678.029 387.816 CURVE SMOOTH",
"678.029 596.165 OFFCURVE",
"565.243 712 OFFCURVE",
"351.359 712 CURVE SMOOTH",
"137 712 LINE",
"82 0 LINE"
);
},
{
closed = 1;
nodes = (
"177.233 673.67 LINE",
"352.689 673.67 LINE SMOOTH",
"541.282 673.67 OFFCURVE",
"632.262 575.757 OFFCURVE",
"632.262 388.816 CURVE SMOOTH",
"632.262 168.573 OFFCURVE",
"529.816 38.33 OFFCURVE",
"328.854 38.33 CURVE SMOOTH",
"126.602 38.33 LINE"
);
}
);
width = 737.00971;
},
{
layerId = "EC690951-C754-4A23-894B-8F4258F2E540";
paths = (
{
closed = 1;
nodes = (
"477.136 288.68 LINE",
"488.534 429.388 LINE",
"32.029 429.388 LINE",
"20.631 288.68 LINE"
);
},
{
closed = 1;
nodes = (
"382.32 0 LINE SMOOTH",
"632.515 0 OFFCURVE",
"781.942 137.369 OFFCURVE",
"781.942 378.369 CURVE SMOOTH",
"781.942 582.67 OFFCURVE",
"643.515 712 OFFCURVE",
"428.282 712 CURVE SMOOTH",
"137 712 LINE",
"82 0 LINE"
);
},
{
closed = 1;
nodes = (
"313.534 561.66 LINE",
"402.621 561.66 LINE SMOOTH",
"526.437 561.66 OFFCURVE",
"594.476 497.485 OFFCURVE",
"594.476 379.369 CURVE SMOOTH",
"594.476 219.854 OFFCURVE",
"520.369 150.34 OFFCURVE",
"365.291 150.34 CURVE SMOOTH",
"281.796 150.34 LINE"
);
}
);
width = 817.98058;
},
{
layerId = "FCB30AE2-FEFD-4E77-A1D9-4C86342947F4";
paths = (
{
closed = 1;
nodes = (
"384.903 327.515 LINE",
"390.476 394.437 LINE",
"19.407 394.437 LINE",
"13.835 327.515 LINE"
);
},
{
closed = 1;
nodes = (
"343.485 0 LINE SMOOTH",
"576.204 0 OFFCURVE",
"707.184 144.165 OFFCURVE",
"707.184 385.165 CURVE SMOOTH",
"707.184 592.379 OFFCURVE",
"587.204 712 OFFCURVE",
"372.942 712 CURVE SMOOTH",
"137 712 LINE",
"82 0 LINE"
);
},
{
closed = 1;
nodes = (
"215.476 642.243 LINE",
"366.699 642.243 LINE SMOOTH",
"537.117 642.243 OFFCURVE",
"621.66 553.796 OFFCURVE",
"621.66 386.165 CURVE SMOOTH",
"621.66 182.961 OFFCURVE",
"527.165 69.757 OFFCURVE",
"339.077 69.757 CURVE SMOOTH",
"170.146 69.757 LINE"
);
}
);
width = 759.72816;
}
);
leftKerningGroup = H;
rightKerningGroup = O;
unicode = 00D0;
},
{
glyphname = E;
lastChange = "2019-01-16 15:38:21 +0000";
layers = (
{
anchors = (
{
name = bottom;
position = "{304.951, 0}";
},
{
name = ogonek;
position = "{489.505, 10}";
},
{
name = top;
position = "{360.951, 712}";
},
{
name = topleft;
position = "{64.699, 712}";
}
);
layerId = "CF304C0A-4888-46C0-9BE5-45819D47B95E";
paths = (
{
closed = 1;
nodes = (
"507.155 0 LINE",
"510.456 38.913 LINE",
"124.097 38.913 LINE",
"174.495 673.087 LINE",
"560.854 673.087 LINE",
"563.039 712 LINE",
"133.796 712 LINE",
"78.913 0 LINE"
);
},
{
closed = 1;
nodes = (
"513.505 341.427 LINE",
"516.689 381.456 LINE",
"138.913 381.456 LINE",
"135.612 341.427 LINE"
);
}
);
width = 583.25243;
},
{
anchors = (
{
name = bottom;
position = "{317.097, 0}";
},
{
name = ogonek;
position = "{529.99, 10}";
},
{
name = top;
position = "{373.097, 712}";
},
{
name = topleft;
position = "{56.602, 712}";
}
);
layerId = "EC690951-C754-4A23-894B-8F4258F2E540";
paths = (
{
closed = 1;
nodes = (
"551.689 0 LINE",
"563.087 144.175 LINE",
"238.806 144.175 LINE",
"273.01 567.825 LINE",
"597.291 567.825 LINE",
"608.922 712 LINE",
"101.408 712 LINE",
"45.175 0 LINE"
);
},
{
closed = 1;
nodes = (
"553.99 290.146 LINE",
"566.621 434.087 LINE",
"244.175 434.087 LINE",
"232.777 290.146 LINE"
);
}
);
width = 603.49515;
},
{
anchors = (
{
name = bottom;
position = "{308.359, 0}";
},
{
name = ogonek;
position = "{500.864, 10}";
},
{
name = top;
position = "{364.359, 712}";
},
{
name = topleft;
position = "{62.427, 712}";
}
);
layerId = "FCB30AE2-FEFD-4E77-A1D9-4C86342947F4";
paths = (
{
closed = 1;
nodes = (
"519.65 0 LINE",
"525.223 68.447 LINE",
"156.282 68.447 LINE",
"202.136 643.553 LINE",
"571.077 643.553 LINE",
"575.913 712 LINE",
"124.709 712 LINE",
"69.447 0 LINE"
);
},
{
closed = 1;
nodes = (
"524.864 327.039 LINE",
"530.699 396.223 LINE",
"168.447 396.223 LINE",
"162.874 327.039 LINE"
);
}
);
width = 588.93204;
}
);
leftKerningGroup = H;
rightKerningGroup = E;
unicode = 0045;
userData = {
anchors = (
);
b = {
};
com.typemytype.robofont.layerData = {
b = {
anchors = (
);
components = (
);
contours = (
);
lib = {
};
name = E;
unicodes = (
);
width = 1234;
};
};
components = (
);
contours = (
);
lib = {
};
name = E;
unicodes = (
);
width = 1258;
};
},
{
glyphname = Eogonek;
lastChange = "2019-01-16 15:38:21 +0000";
layers = (
{
anchors = (
{
name = top;
position = "{360.951, 712}";
}
);
layerId = "CF304C0A-4888-46C0-9BE5-45819D47B95E";
paths = (
{
closed = 1;
nodes = (
"135.612 341.427 LINE",
"513.505 341.427 LINE",
"516.689 381.456 LINE",
"138.913 381.456 LINE"
);
},
{
closed = 1;
nodes = (
"174.495 673.087 LINE",
"560.971 673.087 LINE",
"563.155 712 LINE",
"133.796 712 LINE",
"78.913 0 LINE",
"433.65 0 LINE",
"414.301 18.883 LINE",
"368.883 -5 OFFCURVE",
"340.534 -43.767 OFFCURVE",
"340.534 -96.466 CURVE SMOOTH",
"340.534 -153.883 OFFCURVE",
"381.602 -192.301 OFFCURVE",
"446.087 -192.301 CURVE SMOOTH",
"478.087 -192.301 OFFCURVE",
"508.971 -180.835 OFFCURVE",
"525.34 -168.951 CURVE",
"512.107 -132.796 LINE",
"490.223 -146.379 OFFCURVE",
"466.641 -152.612 OFFCURVE",
"450.757 -152.612 CURVE SMOOTH",
"409.825 -152.612 OFFCURVE",
"386.709 -131.262 OFFCURVE",
"386.709 -88.097 CURVE SMOOTH",
"386.709 -41.398 OFFCURVE",
"415.243 0 OFFCURVE",
"495.204 0 CURVE SMOOTH",
"507.155 0 LINE",
"510.456 38.913 LINE",
"124.097 38.913 LINE"
);
}
);
width = 583.25243;
},
{
anchors = (
{
name = top;
position = "{373.097, 712}";
}
);
layerId = "EC690951-C754-4A23-894B-8F4258F2E540";
paths = (
{
closed = 1;
nodes = (
"232.777 290.146 LINE",
"553.99 290.146 LINE",
"566.621 434.087 LINE",
"244.175 434.087 LINE"
);
},
{
closed = 1;
nodes = (
"273.01 567.825 LINE",
"596.058 567.825 LINE",
"607.689 712 LINE",
"101.408 712 LINE",
"45.175 0 LINE",
"437.699 0 LINE",
"422.398 20.233 LINE",
"370.233 -5 OFFCURVE",
"345.932 -46.466 OFFCURVE",
"345.932 -91.068 CURVE SMOOTH",
"345.932 -155.233 OFFCURVE",
"397.796 -200.398 OFFCURVE",
"479.825 -200.398 CURVE SMOOTH",
"511.825 -200.398 OFFCURVE",
"544.058 -194.33 OFFCURVE",
"579.32 -181.097 CURVE",
"568.786 -100.408 LINE",
"545.553 -107.243 OFFCURVE",
"528.718 -110.777 OFFCURVE",
"511.485 -110.777 CURVE SMOOTH",
"481.35 -110.777 OFFCURVE",
"459.583 -93.476 OFFCURVE",
"459.583 -63.806 CURVE SMOOTH",
"459.583 -25.204 OFFCURVE",
"493.515 0 OFFCURVE",
"527.592 0 CURVE SMOOTH",
"551.689 0 LINE",
"563.087 144.175 LINE",
"238.806 144.175 LINE"
);
}
);
width = 603.49515;
},
{
anchors = (
{
name = top;
position = "{364.359, 712}";
}
);
layerId = "FCB30AE2-FEFD-4E77-A1D9-4C86342947F4";
paths = (
{
closed = 1;
nodes = (
"162.874 327.039 LINE",
"524.864 327.039 LINE",
"530.699 396.223 LINE",
"168.447 396.223 LINE"
);
},
{
closed = 1;
nodes = (
"202.136 643.553 LINE",
"570.816 643.553 LINE",
"575.65 712 LINE",
"124.709 712 LINE",
"69.447 0 LINE",
"434.786 0 LINE",
"416.573 19.262 LINE",
"369.262 -5 OFFCURVE",
"342.049 -44.524 OFFCURVE",
"342.049 -94.951 CURVE SMOOTH",
"342.049 -154.262 OFFCURVE",
"386.146 -194.573 OFFCURVE",
"455.553 -194.573 CURVE SMOOTH",
"487.553 -194.573 OFFCURVE",
"518.816 -184.621 OFFCURVE",
"540.485 -172.359 CURVE",
"528.01 -123.709 LINE",
"505.747 -135.398 OFFCURVE",
"484.058 -140.874 OFFCURVE",
"467.796 -140.874 CURVE SMOOTH",
"429.893 -140.874 OFFCURVE",
"407.156 -120.66 OFFCURVE",
"407.156 -81.282 CURVE SMOOTH",
"407.156 -36.854 OFFCURVE",
"437.204 0 OFFCURVE",
"504.291 0 CURVE SMOOTH",
"519.65 0 LINE",
"525.223 68.447 LINE",
"156.282 68.447 LINE"
);
}
);
width = 588.93204;
}
);
leftKerningGroup = H;
rightKerningGroup = E;
unicode = 0118;
userData = {
com.typemytype.robofont.layerData = {
b = {
anchors = (
);
components = (
);
contours = (
);
lib = {
};
name = Eogonek;
unicodes = (
);
width = 1234;
};
};
};
},
{
glyphname = F;
lastChange = "2019-01-16 15:38:21 +0000";
layers = (
{
anchors = (
{
name = bottom;
position = "{289.951, 0}";
},
{
name = top;
position = "{324.767, 712}";
}
);
layerId = "CF304C0A-4888-46C0-9BE5-45819D47B95E";
paths = (
{
closed = 1;
nodes = (
"135.379 341.544 LINE",
"503.505 341.544 LINE",
"506.806 381.34 LINE",
"138.68 381.34 LINE"
);
},
{
closed = 1;
nodes = (
"174.262 673.32 LINE",
"549.854 673.32 LINE",
"553.155 712 LINE",
"133.796 712 LINE",
"78.913 0 LINE",
"120.563 0 LINE"
);
}
);
width = 555.5534;
},
{
anchors = (
{
name = bottom;
position = "{302.097, 0}";
},
{
name = top;
position = "{327.466, 712}";
}
);
layerId = "EC690951-C754-4A23-894B-8F4258F2E540";
paths = (
{
closed = 1;
nodes = (
"235.243 288.913 LINE",
"543.99 288.913 LINE",
"555.388 435.32 LINE",
"246.641 435.32 LINE"
);
},
{
closed = 1;
nodes = (
"275.476 565.359 LINE",
"586.291 565.359 LINE",
"597.689 712 LINE",
"101.408 712 LINE",
"45.175 0 LINE",
"229.874 0 LINE"
);
}
);
width = 583.8932;
},
{
anchors = (
{
name = bottom;
position = "{293.359, 0}";
},
{
name = top;
position = "{325.524, 712}";
}
);
layerId = "FCB30AE2-FEFD-4E77-A1D9-4C86342947F4";
paths = (
{
closed = 1;
nodes = (
"163.398 326.777 LINE",
"514.864 326.777 LINE",
"520.437 396.485 LINE",
"168.971 396.485 LINE"
);
},
{
closed = 1;
nodes = (
"202.66 643.029 LINE",
"560.077 643.029 LINE",
"565.65 712 LINE",
"124.709 712 LINE",
"69.447 0 LINE",
"151.233 0 LINE"
);
}
);
width = 563.50485;
}
);
leftKerningGroup = H;
rightKerningGroup = F;
unicode = 0046;
userData = {
anchors = (
);
b = {
};
com.typemytype.robofont.layerData = {
b = {
anchors = (
);
components = (
);
contours = (
{
points = (
{
segmentType = curve;
smooth = 1;
x = 266;
y = 0;
},
{
segmentType = line;
smooth = 1;
x = 1035;
y = 0;
},
{
smooth = 0;
x = 1084;
y = 0;
},
{
smooth = 0;
x = 1108;
y = 34;
},
{
segmentType = curve;
smooth = 1;
x = 1108;
y = 71;
},
{
smooth = 0;
x = 1108;
y = 107;
},
{
smooth = 0;
x = 1084;
y = 141;
},
{
segmentType = curve;
smooth = 1;
x = 1035;
y = 141;
},
{
segmentType = line;
smooth = 0;
x = 353;
y = 141;
},
{
segmentType = line;
smooth = 0;
x = 353;
y = 665;
},
{
segmentType = line;
smooth = 1;
x = 975;
y = 665;
},
{
smooth = 0;
x = 1024;
y = 665;
},
{
smooth = 0;
x = 1049;
y = 698;
},
{
segmentType = curve;
smooth = 1;
x = 1049;
y = 734;
},
{
smooth = 0;
x = 1049;
y = 770;
},
{
smooth = 0;
x = 1026;
y = 803;
},
{
segmentType = curve;
smooth = 1;
x = 975;
y = 803;
},
{
segmentType = line;
smooth = 0;
x = 353;
y = 803;
},
{
segmentType = line;
smooth = 0;
x = 353;
y = 1285;
},
{
segmentType = line;
smooth = 1;
x = 1007;
y = 1285;
},
{
smooth = 0;
x = 1056;
y = 1285;
},
{
smooth = 0;
x = 1080;
y = 1319;
},
{
segmentType = curve;
smooth = 1;
x = 1080;
y = 1356;
},
{
smooth = 0;
x = 1080;
y = 1392;
},
{
smooth = 0;
x = 1056;
y = 1426;
},
{
segmentType = curve;
smooth = 1;
x = 1007;
y = 1426;
},
{
segmentType = line;
smooth = 1;
x = 261;
y = 1426;
},
{
smooth = 0;
x = 213;
y = 1426;
},
{
smooth = 0;
x = 178;
y = 1383;
},
{
segmentType = curve;
smooth = 1;
x = 178;
y = 1340;
},
{
segmentType = line;
smooth = 1;
x = 178;
y = 86;
},
{
smooth = 0;
x = 178;
y = 41;
},
{
smooth = 0;
x = 222;
y = 0;
}
);
}
);
lib = {
};
name = F;
unicodes = (
);
width = 1142;
};
};
components = (
);
contours = (
);
lib = {
};
name = F;
unicodes = (
);
width = 1175;
};
},
{
glyphname = G;
lastChange = "2019-01-16 15:38:21 +0000";
layers = (
{
anchors = (
{
name = bottom;
position = "{376.553, 0}";
},
{
name = top;
position = "{424.553, 712}";
}
);
layerId = "CF304C0A-4888-46C0-9BE5-45819D47B95E";
paths = (
{
closed = 1;
nodes = (
"466.039 -7.883 OFFCURVE",
"562.922 12.117 OFFCURVE",
"618.641 39.301 CURVE",
"643.408 359.272 LINE",
"407.301 359.272 LINE",
"403.883 317.728 LINE",
"601.175 317.728 LINE",
"579.476 35.408 LINE",
"593.796 73.777 LINE",
"537.097 49.078 OFFCURVE",
"457.835 32.262 OFFCURVE",
"388.388 32.262 CURVE SMOOTH",
"208.961 32.262 OFFCURVE",
"120.398 136.942 OFFCURVE",
"120.398 316.369 CURVE SMOOTH",
"120.398 543.359 OFFCURVE",
"231.893 679.437 OFFCURVE",
"418.903 679.087 CURVE SMOOTH",
"502.019 678.854 OFFCURVE",
"565.951 652.505 OFFCURVE",
"636.117 588.757 CURVE",
"661.388 624.369 LINE",
"597.388 688.534 OFFCURVE",
"515.971 718.767 OFFCURVE",
"419.136 718.767 CURVE SMOOTH",
"208.35 718.767 OFFCURVE",
"75.864 562.301 OFFCURVE",
"75.864 311.903 CURVE SMOOTH",
"75.864 111.951 OFFCURVE",
"183.65 -7.883 OFFCURVE",
"392.068 -7.883 CURVE SMOOTH"
);
}
);
width = 722.5534;
},
{
anchors = (
{
name = bottom;
position = "{404.893, 0}";
},
{
name = top;
position = "{452.893, 712}";
}
);
layerId = "EC690951-C754-4A23-894B-8F4258F2E540";
paths = (
{
closed = 1;
nodes = (
"511.922 -9.233 OFFCURVE",
"610.155 10.767 OFFCURVE",
"680.718 47.398 CURVE",
"708.184 402.456 LINE",
"415.398 402.456 LINE",
"405.233 274.544 LINE",
"529.65 274.544 LINE",
"516.049 100.184 LINE",
"561.408 157.447 LINE",
"512.806 140.845 OFFCURVE",
"471.33 133.476 OFFCURVE",
"430.223 133.476 CURVE SMOOTH",
"302.078 133.476 OFFCURVE",
"243.204 207.117 OFFCURVE",
"243.204 335.262 CURVE SMOOTH",
"243.204 481.282 OFFCURVE",
"314.214 570.126 OFFCURVE",
"443.194 573.825 CURVE SMOOTH",
"524.961 576.291 OFFCURVE",
"578.097 553.99 OFFCURVE",
"634.767 510.485 CURVE",
"703.223 643.262 LINE",
"639.223 693.932 OFFCURVE",
"551.058 721.466 OFFCURVE",
"440.728 721.466 CURVE SMOOTH",
"204.301 721.466 OFFCURVE",
"54.272 570.398 OFFCURVE",
"54.272 336.194 CURVE SMOOTH",
"54.272 124.097 OFFCURVE",
"187.699 -9.233 OFFCURVE",
"402.864 -9.233 CURVE SMOOTH"
);
}
);
width = 750.8932;
},
{
anchors = (
{
name = bottom;
position = "{384.505, 0}";
},
{
name = top;
position = "{432.505, 712}";
}
);
layerId = "FCB30AE2-FEFD-4E77-A1D9-4C86342947F4";
paths = (
{
closed = 1;
nodes = (
"478.913 -8.262 OFFCURVE",
"576.174 11.738 OFFCURVE",
"636.058 41.573 CURVE",
"661.583 371.388 LINE",
"409.573 371.388 LINE",
"404.262 305.612 LINE",
"581.107 305.612 LINE",
"561.68 53.583 LINE",
"584.709 97.253 LINE",
"530.282 74.826 OFFCURVE",
"461.621 60.66 OFFCURVE",
"400.126 60.66 CURVE SMOOTH",
"235.087 60.66 OFFCURVE",
"154.854 156.631 OFFCURVE",
"154.854 321.67 CURVE SMOOTH",
"154.854 525.942 OFFCURVE",
"254.99 648.767 OFFCURVE",
"425.718 649.553 CURVE SMOOTH",
"508.456 650.077 OFFCURVE",
"569.359 624.864 OFFCURVE",
"635.738 566.796 CURVE",
"673.126 629.67 LINE",
"609.126 690.049 OFFCURVE",
"525.816 719.524 OFFCURVE",
"425.194 719.524 CURVE SMOOTH",
"207.214 719.524 OFFCURVE",
"69.806 564.573 OFFCURVE",
"69.806 318.718 CURVE SMOOTH",
"69.806 115.359 OFFCURVE",
"184.786 -8.262 OFFCURVE",
"395.097 -8.262 CURVE SMOOTH"
);
}
);
width = 730.50485;
}
);
leftKerningGroup = O;
rightKerningGroup = G;
unicode = 0047;
userData = {
anchors = (
);
b = {
};
com.typemytype.robofont.layerData = {
b = {
anchors = (
);
components = (
);
contours = (
{
points = (
{
segmentType = curve;
smooth = 1;
x = 783;
y = "-22";
},
{
smooth = 0;
x = 965;
y = "-22";
},
{
smooth = 0;
x = 1086;
y = 34;
},
{
segmentType = curve;
smooth = 1;
x = 1166;
y = 86;
},
{
smooth = 0;
x = 1270;
y = 154;
},
{
smooth = 0;
x = 1186;
y = 258;
},
{
segmentType = curve;
smooth = 1;
x = 1112;
y = 214;
},
{
smooth = 0;
x = 1024;
y = 162;
},
{
smooth = 0;
x = 939;
y = 120;
},
{
segmentType = curve;
smooth = 1;
x = 806;
y = 120;
},
{
smooth = 0;
x = 446;
y = 120;
},
{
smooth = 0;
x = 316;
y = 406;
},
{
segmentType = curve;
smooth = 1;
x = 316;
y = 706;
},
{
smooth = 0;
x = 316;
y = 1005;
},
{
smooth = 0;
x = 450;
y = 1296;
},
{
segmentType = curve;
smooth = 1;
x = 801;
y = 1296;
},
{
smooth = 0;
x = 980;
y = 1296;
},
{
smooth = 0;
x = 1053;
y = 1246;
},
{
segmentType = curve;
smooth = 1;
x = 1094;
y = 1225;
},
{
smooth = 0;
x = 1174;
y = 1184;
},
{
smooth = 0;
x = 1231;
y = 1300;
},
{
segmentType = curve;
smooth = 1;
x = 1156;
y = 1343;
},
{
smooth = 0;
x = 1106;
y = 1372;
},
{
smooth = 0;
x = 995;
y = 1438;
},
{
segmentType = curve;
smooth = 1;
x = 797;
y = 1438;
},
{
smooth = 0;
x = 359;
y = 1438;
},
{
smooth = 0;
x = 128;
y = 1093;
},
{
segmentType = curve;
smooth = 1;
x = 128;
y = 704;
},
{
smooth = 0;
x = 128;
y = 307;
},
{
smooth = 0;
x = 350;
y = "-22";
}
);
}
);
lib = {
};
name = G;
unicodes = (
);
width = 1448;
};
};
components = (
);
contours = (
);
lib = {
};
name = G;
unicodes = (
);
width = 1538;
};
},
{
glyphname = H;
lastChange = "2019-01-16 15:38:21 +0000";
layers = (
{
anchors = (
{
name = bottom;
position = "{362.068, 0}";
},
{
name = center;
position = "{390.068, 362}";
},
{
name = top;
position = "{415.951, 712}";
},
{
name = topleft;
position = "{64.699, 712}";
}
);
layerId = "CF304C0A-4888-46C0-9BE5-45819D47B95E";
paths = (
{
closed = 1;
nodes = (
"643.107 0 LINE",
"699.107 712 LINE",
"656.223 712 LINE",
"601.456 0 LINE"
);
},
{
closed = 1;
nodes = (
"120.68 0 LINE",
"176.563 712 LINE",
"133.796 712 LINE",
"78.913 0 LINE"
);
},
{
closed = 1;
nodes = (
"648.883 341.66 LINE",
"652.068 381.34 LINE",
"140.583 381.34 LINE",
"137.282 341.66 LINE"
);
}
);
width = 758.78641;
},
{
anchors = (
{
name = bottom;
position = "{372.864, 0}";
},
{
name = center;
position = "{400.864, 362}";
},
{
name = top;
position = "{428.097, 712}";
},
{
name = topleft;
position = "{56.602, 712}";
}
);
layerId = "EC690951-C754-4A23-894B-8F4258F2E540";
paths = (
{
closed = 1;
nodes = (
"699.786 0 LINE",
"755.786 712 LINE",
"572.553 712 LINE",
"515.087 0 LINE"
);
},
{
closed = 1;
nodes = (
"228.641 0 LINE",
"285.874 712 LINE",
"101.408 712 LINE",
"45.175 0 LINE"
);
},
{
closed = 1;
nodes = (
"650.233 287.68 LINE",
"662.864 435.32 LINE",
"133.835 435.32 LINE",
"122.437 287.68 LINE"
);
}
);
width = 784.42718;
},
{
anchors = (
{
name = bottom;
position = "{365.097, 0}";
},
{
name = center;
position = "{393.097, 362}";
},
{
name = top;
position = "{419.359, 712}";
},
{
name = topleft;
position = "{62.427, 712}";
}
);
layerId = "FCB30AE2-FEFD-4E77-A1D9-4C86342947F4";
paths = (
{
closed = 1;
nodes = (
"659.01 0 LINE",
"715.01 712 LINE",
"632.747 712 LINE",
"577.223 0 LINE"
);
},
{
closed = 1;
nodes = (
"150.971 0 LINE",
"207.233 712 LINE",
"124.709 712 LINE",
"69.447 0 LINE"
);
},
{
closed = 1;
nodes = (
"649.262 326.515 LINE",
"655.097 396.485 LINE",
"138.69 396.485 LINE",
"133.117 326.515 LINE"
);
}
);
width = 765.98058;
}
);
leftKerningGroup = H;
rightKerningGroup = H;
unicode = 0048;
userData = {
anchors = (
);
b = {
};
com.typemytype.robofont.layerData = {
b = {
anchors = (
);
components = (
);
contours = (
);
lib = {
};
name = H;
unicodes = (
);
width = 1464;
};
};
components = (
);
contours = (
);
lib = {
};
name = H;
unicodes = (
);
width = 1524;
};
},
{
glyphname = Hbar;
lastChange = "2019-01-16 15:38:21 +0000";
layers = (
{
layerId = "CF304C0A-4888-46C0-9BE5-45819D47B95E";
paths = (
{
closed = 1;
nodes = (
"785.476 532.097 LINE",
"788.893 570.709 LINE",
"29.369 570.709 LINE",
"25.951 532.097 LINE"
);
},
{
closed = 1;
nodes = (
"643.981 0 LINE",
"699.864 712 LINE",
"657.097 712 LINE",
"602.214 0 LINE"
);
},
{
closed = 1;
nodes = (
"121.437 0 LINE",
"177.437 712 LINE",
"134.553 712 LINE",
"79.786 0 LINE"
);
},
{
closed = 1;
nodes = (
"628.427 341.66 LINE",
"631.728 381.34 LINE",
"142.456 381.34 LINE",
"139.155 341.66 LINE"
);
}
);
width = 767.19417;
},
{
layerId = "EC690951-C754-4A23-894B-8F4258F2E540";
paths = (
{
closed = 1;
nodes = (
"861.049 507.806 LINE",
"871.214 643.583 LINE",
"48.262 643.583 LINE",
"38.097 507.806 LINE"
);
},
{
closed = 1;
nodes = (
"760.039 0 LINE",
"817.272 712 LINE",
"632.806 712 LINE",
"576.573 0 LINE"
);
},
{
closed = 1;
nodes = (
"290.126 0 LINE",
"346.126 712 LINE",
"162.893 712 LINE",
"105.427 0 LINE"
);
},
{
closed = 1;
nodes = (
"716.146 287.68 LINE",
"727.544 435.32 LINE",
"195.087 435.32 LINE",
"183.689 287.68 LINE"
);
}
);
width = 857.61165;
},
{
layerId = "FCB30AE2-FEFD-4E77-A1D9-4C86342947F4";
paths = (
{
closed = 1;
nodes = (
"806.68 525.282 LINE",
"811.99 591.156 LINE",
"34.67 591.156 LINE",
"29.359 525.282 LINE"
);
},
{
closed = 1;
nodes = (
"676.544 0 LINE",
"732.806 712 LINE",
"650.282 712 LINE",
"595.02 0 LINE"
);
},
{
closed = 1;
nodes = (
"168.767 0 LINE",
"224.767 712 LINE",
"142.505 712 LINE",
"86.98 0 LINE"
);
},
{
closed = 1;
nodes = (
"653.039 326.515 LINE",
"658.612 396.485 LINE",
"157.223 396.485 LINE",
"151.65 326.515 LINE"
);
}
);
width = 792.5631;
}
);
leftKerningGroup = H;
rightKerningGroup = H;
unicode = 0126;
userData = {
com.typemytype.robofont.layerData = {
b = {
anchors = (
);
components = (
);
contours = (
);
lib = {
};
name = Hbar;
unicodes = (
);
width = 1464;
};
};
};
},
{
glyphname = I;
lastChange = "2019-01-16 15:38:21 +0000";
layers = (
{
anchors = (
{
name = bottom;
position = "{99.621, 0}";
},
{
name = ogonek;
position = "{121.476, 10}";
},
{
name = top;
position = "{155.621, 712}";
},
{
name = topleft;
position = "{64.699, 712}";
}
);
layerId = "CF304C0A-4888-46C0-9BE5-45819D47B95E";
paths = (
{
closed = 1;
nodes = (
"120.33 0 LINE",
"176.33 712 LINE",
"133.913 712 LINE",
"78.913 0 LINE"
);
}
);
width = 235.00971;
},
{
anchors = (
{
name = bottom;
position = "{138.757, 0}";
},
{
name = ogonek;
position = "{197.049, 10}";
},
{
name = top;
position = "{194.757, 712}";
},
{
name = topleft;
position = "{56.602, 712}";
}
);
layerId = "EC690951-C754-4A23-894B-8F4258F2E540";
paths = (
{
closed = 1;
nodes = (
"232.34 0 LINE",
"288.34 712 LINE",
"100.175 712 LINE",
"45.175 0 LINE"
);
}
);
width = 315.98058;
},
{
anchors = (
{
name = bottom;
position = "{110.602, 0}";
},
{
name = ogonek;
position = "{142.68, 10}";
},
{
name = top;
position = "{166.602, 712}";
},
{
name = topleft;
position = "{62.427, 712}";
}
);
layerId = "FCB30AE2-FEFD-4E77-A1D9-4C86342947F4";
paths = (
{
closed = 1;
nodes = (
"151.757 0 LINE",
"207.757 712 LINE",
"124.447 712 LINE",
"69.447 0 LINE"
);
}
);
width = 257.72816;
}
);
leftKerningGroup = H;
rightKerningGroup = H;
unicode = 0049;
userData = {
anchors = (
);
b = {
};
com.typemytype.robofont.layerData = {
b = {
anchors = (
);
components = (
);
contours = (
);
lib = {
};
name = I;
unicodes = (
);
width = 592;
};
};
components = (
);
contours = (
);
lib = {
};
name = I;
unicodes = (
);
width = 637;
};
},
{
glyphname = Iogonek;
lastChange = "2019-01-16 15:38:21 +0000";
layers = (
{
layerId = "CF304C0A-4888-46C0-9BE5-45819D47B95E";
paths = (
{
closed = 1;
nodes = (
"107.709 -192.301 OFFCURVE",
"138.592 -180.835 OFFCURVE",
"156.194 -168.951 CURVE",
"141.845 -132.796 LINE",
"119.845 -146.379 OFFCURVE",
"96.262 -152.612 OFFCURVE",
"80.379 -152.612 CURVE SMOOTH",
"39.563 -152.612 OFFCURVE",
"16.33 -131.262 OFFCURVE",
"16.33 -86.981 CURVE SMOOTH",
"16.33 -42.282 OFFCURVE",
"43.33 0 OFFCURVE",
"116.495 0 CURVE SMOOTH",
"119.214 0 LINE",
"175.214 712 LINE",
"132.796 712 LINE",
"77.796 0 LINE",
"91.534 0 LINE",
"116.466 41.466 LINE",
"18.204 32.214 OFFCURVE",
"-28.728 -23.767 OFFCURVE",
"-28.728 -93.35 CURVE SMOOTH",
"-28.728 -153.883 OFFCURVE",
"11.223 -192.301 OFFCURVE",
"76.942 -192.301 CURVE SMOOTH"
);
}
);
width = 235.00971;
},
{
layerId = "EC690951-C754-4A23-894B-8F4258F2E540";
paths = (
{
closed = 1;
nodes = (
"180.583 -200.398 OFFCURVE",
"212.816 -194.33 OFFCURVE",
"246.612 -181.097 CURVE",
"236.311 -100.408 LINE",
"214.311 -107.243 OFFCURVE",
"197.476 -110.777 OFFCURVE",
"180.243 -110.777 CURVE SMOOTH",
"148.874 -110.777 OFFCURVE",
"128.34 -93.476 OFFCURVE",
"128.34 -64.039 CURVE SMOOTH",
"128.34 -27.437 OFFCURVE",
"155.34 0 OFFCURVE",
"215.01 0 CURVE SMOOTH",
"232.573 0 LINE",
"288.573 712 LINE",
"100.408 712 LINE",
"45.408 0 LINE",
"96.932 0 LINE",
"111.068 36.068 LINE",
"50.592 6.573 OFFCURVE",
"14.456 -26.466 OFFCURVE",
"14.456 -89.301 CURVE SMOOTH",
"14.456 -155.233 OFFCURVE",
"66.553 -200.398 OFFCURVE",
"147.117 -200.398 CURVE SMOOTH"
);
}
);
width = 315.98058;
},
{
layerId = "FCB30AE2-FEFD-4E77-A1D9-4C86342947F4";
paths = (
{
closed = 1;
nodes = (
"128.156 -194.573 OFFCURVE",
"159.417 -184.621 OFFCURVE",
"181.563 -172.359 CURVE",
"168.35 -123.709 LINE",
"146.35 -135.398 OFFCURVE",
"124.66 -140.874 OFFCURVE",
"108.398 -140.874 CURVE SMOOTH",
"70.233 -140.874 OFFCURVE",
"47.757 -120.66 OFFCURVE",
"47.757 -80.544 CURVE SMOOTH",
"47.757 -38.117 OFFCURVE",
"74.757 0 OFFCURVE",
"144.136 0 CURVE SMOOTH",
"151.02 0 LINE",
"207.02 712 LINE",
"123.709 712 LINE",
"68.709 0 LINE",
"93.049 0 LINE",
"114.951 39.951 LINE",
"27.291 25.02 OFFCURVE",
"-16.612 -24.524 OFFCURVE",
"-16.612 -92.214 CURVE SMOOTH",
"-16.612 -154.262 OFFCURVE",
"26.747 -194.573 OFFCURVE",
"96.631 -194.573 CURVE SMOOTH"
);
}
);
width = 257.72816;
}
);
leftKerningGroup = H;
rightKerningGroup = H;
unicode = 012E;
},
{
glyphname = J;
lastChange = "2019-01-16 15:38:21 +0000";
layers = (
{
anchors = (
{
name = bottom;
position = "{162.641, 0}";
},
{
name = top;
position = "{217.524, 712}";
}
);
layerId = "CF304C0A-4888-46C0-9BE5-45819D47B95E";
paths = (
{
closed = 1;
nodes = (
"94.631 -205.068 OFFCURVE",
"170.117 -164.447 OFFCURVE",
"182.883 -7.476 CURVE SMOOTH",
"240.466 712 LINE",
"198.049 712 LINE",
"140.583 -5.01 LINE SMOOTH",
"130.233 -136.854 OFFCURVE",
"73.019 -163.369 OFFCURVE",
"-38.631 -137.32 CURVE",
"-41.932 -177.883 LINE"
);
}
);
width = 300.14563;
},
{
anchors = (
{
name = bottom;
position = "{224.718, 0}";
},
{
name = top;
position = "{280.951, 712}";
}
);
layerId = "EC690951-C754-4A23-894B-8F4258F2E540";
paths = (
{
closed = 1;
nodes = (
"214.738 -215.864 OFFCURVE",
"307.767 -136.107 OFFCURVE",
"323.233 55.951 CURVE SMOOTH",
"374.068 712 LINE",
"185.903 712 LINE",
"133.835 53.019 LINE SMOOTH",
"127.534 -34.291 OFFCURVE",
"95.961 -43.262 OFFCURVE",
"-19.738 -29.359 CURVE",
"-31.136 -179.233 LINE"
);
}
);
width = 402.70874;
},
{
anchors = (
{
name = bottom;
position = "{180.058, 0}";
},
{
name = top;
position = "{235.32, 712}";
}
);
layerId = "FCB30AE2-FEFD-4E77-A1D9-4C86342947F4";
paths = (
{
closed = 1;
nodes = (
"128.33 -208.097 OFFCURVE",
"208.738 -156.495 OFFCURVE",
"222.262 10.32 CURVE SMOOTH",
"277.951 712 LINE",
"194.641 712 LINE",
"138.69 11.272 LINE SMOOTH",
"129.476 -108.077 OFFCURVE",
"79.456 -129.67 OFFCURVE",
"-33.33 -107.029 CURVE",
"-38.903 -178.262 LINE"
);
}
);
width = 328.92233;
}
);
leftKerningGroup = J;
rightKerningGroup = J;
unicode = 004A;
userData = {
anchors = (
);
b = {
};
com.typemytype.robofont.layerData = {
b = {
anchors = (
);
components = (
);
contours = (
);
lib = {
};
name = J;
unicodes = (
);
width = 1003;
};
};
components = (
);
contours = (
);
lib = {
};
name = J;
unicodes = (
);
width = 1126;
};
},
{
glyphname = K;
lastChange = "2019-01-16 15:38:21 +0000";
layers = (
{
anchors = (
{
name = bottom;
position = "{286.689, 0}";
},
{
name = top;
position = "{340.456, 712}";
}
);
layerId = "CF304C0A-4888-46C0-9BE5-45819D47B95E";
paths = (
{
closed = 1;
nodes = (
"581.136 0 LINE",
"173.845 376.621 LINE",
"163.379 344.214 LINE",
"613.087 712 LINE",
"549.068 712 LINE",
"127.612 364.233 LINE",
"524 0 LINE"
);
},
{
closed = 1;
nodes = (
"120.214 0 LINE",
"176.214 712 LINE",
"133.796 712 LINE",
"78.796 0 LINE"
);
}
);
width = 605.26214;
},
{
anchors = (
{
name = bottom;
position = "{336.621, 0}";
},
{
name = top;
position = "{393.087, 712}";
}
);
layerId = "EC690951-C754-4A23-894B-8F4258F2E540";
paths = (
{
closed = 1;
nodes = (
"741.728 0 LINE",
"407.311 415.757 LINE",
"402.243 318.573 LINE",
"785.825 712 LINE",
"559.864 712 LINE",
"224.777 361.534 LINE",
"524 0 LINE"
);
},
{
closed = 1;
nodes = (
"233.573 0 LINE",
"289.573 712 LINE",
"101.408 712 LINE",
"46.408 0 LINE"
);
}
);
width = 706.47573;
},
{
anchors = (
{
name = bottom;
position = "{300.699, 0}";
},
{
name = top;
position = "{355.223, 712}";
}
);
layerId = "FCB30AE2-FEFD-4E77-A1D9-4C86342947F4";
paths = (
{
closed = 1;
nodes = (
"626.194 0 LINE",
"239.35 387.602 LINE",
"230.398 337.02 LINE",
"661.553 712 LINE",
"552.097 712 LINE",
"154.874 363.476 LINE",
"524 0 LINE"
);
},
{
closed = 1;
nodes = (
"152.02 0 LINE",
"208.02 712 LINE",
"124.709 712 LINE",
"69.709 0 LINE"
);
}
);
width = 633.6602;
}
);
leftKerningGroup = H;
rightKerningGroup = K;
unicode = 004B;
userData = {
anchors = (
);
b = {
};
com.typemytype.robofont.layerData = {
b = {
anchors = (
);
components = (
);
contours = (
);
lib = {
};
name = K;
unicodes = (
);
width = 1210;
};
};
components = (
);
contours = (
);
lib = {
};
name = K;
unicodes = (
);
width = 1329;
};
},
{
glyphname = L;
lastChange = "2019-01-16 15:38:21 +0000";
layers = (
{
anchors = (
{
name = bottom;
position = "{291.417, 0}";
},
{
name = center;
position = "{340.01, 357}";
},
{
name = top;
position = "{155.738, 712}";
},
{
name = topright;
position = "{267.33, 712}";
}
);
layerId = "CF304C0A-4888-46C0-9BE5-45819D47B95E";
paths = (
{
closed = 1;
nodes = (
"498.971 0 LINE",
"502.272 38.214 LINE",
"123.631 38.214 LINE",
"176.214 712 LINE",
"133.796 712 LINE",
"78.913 0 LINE"
);
}
);
width = 531.92233;
},
{
anchors = (
{
name = bottom;
position = "{298.165, 0}";
},
{
name = center;
position = "{420.981, 357}";
},
{
name = top;
position = "{193.524, 712}";
},
{
name = topright;
position = "{379.34, 712}";
}
);
layerId = "EC690951-C754-4A23-894B-8F4258F2E540";
paths = (
{
closed = 1;
nodes = (
"534.058 0 LINE",
"545.456 151.573 LINE",
"243.738 151.573 LINE",
"289.573 712 LINE",
"101.408 712 LINE",
"45.175 0 LINE"
);
}
);
width = 579.15534;
},
{
anchors = (
{
name = bottom;
position = "{293.31, 0}";
},
{
name = center;
position = "{362.728, 357}";
},
{
name = top;
position = "{166.34, 712}";
},
{
name = topright;
position = "{298.757, 712}";
}
);
layerId = "FCB30AE2-FEFD-4E77-A1D9-4C86342947F4";
paths = (
{
closed = 1;
nodes = (
"508.816 0 LINE",
"514.388 70.02 LINE",
"157.33 70.02 LINE",
"208.02 712 LINE",
"124.709 712 LINE",
"69.447 0 LINE"
);
}
);
width = 545.17476;
}
);
leftKerningGroup = H;
rightKerningGroup = L;
unicode = 004C;
userData = {
anchors = (
);
b = {
};
com.typemytype.robofont.layerData = {
b = {
anchors = (
);
components = (
);
contours = (
{
points = (
{
segmentType = curve;
smooth = 1;
x = 266;
y = 0;
},
{
segmentType = line;
smooth = 1;
x = 1035;
y = 0;
},
{
smooth = 0;
x = 1084;
y = 0;
},
{
smooth = 0;
x = 1108;
y = 34;
},
{
segmentType = curve;
smooth = 1;
x = 1108;
y = 71;
},
{
smooth = 0;
x = 1108;
y = 107;
},
{
smooth = 0;
x = 1084;
y = 141;
},
{
segmentType = curve;
smooth = 1;
x = 1035;
y = 141;
},
{
segmentType = line;
smooth = 0;
x = 356;
y = 141;
},
{
segmentType = line;
smooth = 0;
x = 356;
y = 665;
},
{
segmentType = line;
smooth = 1;
x = 975;
y = 665;
},
{
smooth = 0;
x = 1024;
y = 665;
},
{
smooth = 0;
x = 1049;
y = 698;
},
{
segmentType = curve;
smooth = 1;
x = 1049;
y = 734;
},
{
smooth = 0;
x = 1049;
y = 770;
},
{
smooth = 0;
x = 1026;
y = 803;
},
{
segmentType = curve;
smooth = 1;
x = 975;
y = 803;
},
{
segmentType = line;
smooth = 0;
x = 356;
y = 803;
},
{
segmentType = line;
smooth = 0;
x = 356;
y = 1285;
},
{
segmentType = line;
smooth = 1;
x = 1007;
y = 1285;
},
{
smooth = 0;
x = 1056;
y = 1285;
},
{
smooth = 0;
x = 1080;
y = 1319;
},
{
segmentType = curve;
smooth = 1;
x = 1080;
y = 1356;
},
{
smooth = 0;
x = 1080;
y = 1392;
},
{
smooth = 0;
x = 1056;
y = 1426;
},
{
segmentType = curve;
smooth = 1;
x = 1007;
y = 1426;
},
{
segmentType = line;
smooth = 1;
x = 261;
y = 1426;
},
{
smooth = 0;
x = 213;
y = 1426;
},
{
smooth = 0;
x = 178;
y = 1383;
},
{
segmentType = curve;
smooth = 1;
x = 178;
y = 1340;
},
{
segmentType = line;
smooth = 1;
x = 178;
y = 86;
},
{
smooth = 0;
x = 178;
y = 41;
},
{
smooth = 0;
x = 222;
y = 0;
}
);
}
);
lib = {
};
name = L;
unicodes = (
);
width = 1095;
};
};
components = (
);
contours = (
);
lib = {
};
name = L;
unicodes = (
);
width = 1169;
};
},
{
glyphname = LJ;
lastChange = "2019-01-16 15:38:21 +0000";
layers = (
{
layerId = "CF304C0A-4888-46C0-9BE5-45819D47B95E";
paths = (
{
closed = 1;
nodes = (
"468.971 0 LINE",
"472.272 38.214 LINE",
"123.631 38.214 LINE",
"176.214 712 LINE",
"133.796 712 LINE",
"78.913 0 LINE"
);
},
{
closed = 1;
nodes = (
"534.893 -205.068 OFFCURVE",
"610.379 -164.447 OFFCURVE",
"623.146 -7.476 CURVE SMOOTH",
"680.612 712 LINE",
"638.311 712 LINE",
"581.845 -5.01 LINE SMOOTH",
"571.612 -136.854 OFFCURVE",
"513.282 -163.369 OFFCURVE",
"401.631 -137.32 CURVE",
"398.33 -177.883 LINE"
);
}
);
width = 740.40777;
},
{
layerId = "EC690951-C754-4A23-894B-8F4258F2E540";
paths = (
{
closed = 1;
nodes = (
"504.058 0 LINE",
"515.456 151.573 LINE",
"243.738 151.573 LINE",
"289.573 712 LINE",
"101.408 712 LINE",
"45.175 0 LINE"
);
},
{
closed = 1;
nodes = (
"756.214 -215.864 OFFCURVE",
"849.243 -136.107 OFFCURVE",
"864.709 55.951 CURVE SMOOTH",
"916.777 712 LINE",
"727.379 712 LINE",
"676.311 53.019 LINE SMOOTH",
"668.777 -34.291 OFFCURVE",
"637.437 -43.262 OFFCURVE",
"521.738 -29.359 CURVE",
"510.34 -179.233 LINE"
);
}
);
width = 944.18447;
},
{
layerId = "FCB30AE2-FEFD-4E77-A1D9-4C86342947F4";
paths = (
{
closed = 1;
nodes = (
"478.816 0 LINE",
"484.388 70.02 LINE",
"157.33 70.02 LINE",
"208.02 712 LINE",
"124.709 712 LINE",
"69.447 0 LINE"
);
},
{
closed = 1;
nodes = (
"596.99 -208.097 OFFCURVE",
"677.398 -156.495 OFFCURVE",
"690.923 10.32 CURVE SMOOTH",
"746.874 712 LINE",
"663.301 712 LINE",
"608.35 11.272 LINE SMOOTH",
"598.874 -108.077 OFFCURVE",
"548.117 -129.67 OFFCURVE",
"435.33 -107.029 CURVE",
"429.757 -178.262 LINE"
);
}
);
width = 797.58253;
}
);
leftKerningGroup = H;
rightKerningGroup = J;
unicode = 01C7;
},
{
glyphname = Lslash;
lastChange = "2019-01-16 15:38:21 +0000";
layers = (
{
layerId = "CF304C0A-4888-46C0-9BE5-45819D47B95E";
paths = (
{
closed = 1;
nodes = (
"501.942 0 LINE",
"505.243 38.214 LINE",
"126.602 38.214 LINE",
"179.301 712 LINE",
"136.883 712 LINE",
"82 0 LINE"
);
},
{
closed = 1;
nodes = (
"352.233 460.864 LINE",
"355.417 506.078 LINE",
"13.65 317.835 LINE",
"10.466 272.505 LINE"
);
}
);
width = 534.8932;
},
{
layerId = "EC690951-C754-4A23-894B-8F4258F2E540";
paths = (
{
closed = 1;
nodes = (
"572.117 0 LINE",
"583.515 151.573 LINE",
"281.796 151.573 LINE",
"326.398 712 LINE",
"138.233 712 LINE",
"82 0 LINE"
);
},
{
closed = 1;
nodes = (
"488.534 439.272 LINE",
"501.165 597.845 LINE",
"17.699 331.33 LINE",
"5.068 173.99 LINE"
);
}
);
width = 617.21359;
},
{
layerId = "FCB30AE2-FEFD-4E77-A1D9-4C86342947F4";
paths = (
{
closed = 1;
nodes = (
"521.631 0 LINE",
"527.204 70.02 LINE",
"170.146 70.02 LINE",
"220.573 712 LINE",
"137.262 712 LINE",
"82 0 LINE"
);
},
{
closed = 1;
nodes = (
"390.476 454.806 LINE",
"396.31 531.826 LINE",
"14.786 321.621 LINE",
"8.951 244.864 LINE"
);
}
);
width = 557.99029;
}
);
leftKerningGroup = L;
rightKerningGroup = L;
unicode = 0141;
},
{
glyphname = M;
lastChange = "2019-01-16 15:38:21 +0000";
layers = (
{
anchors = (
{
name = bottom;
position = "{406, 0}";
},
{
name = top;
position = "{462, 712}";
}
);
layerId = "CF304C0A-4888-46C0-9BE5-45819D47B95E";
paths = (
{
closed = 1;
nodes = (
"120.194 0 LINE",
"172.825 673.204 LINE",
"142.757 672.019 LINE",
"389.728 0 LINE",
"424.388 0 LINE",
"773.621 670.903 LINE",
"744.437 673.204 LINE",
"690.689 0 LINE",
"732.087 0 LINE",
"788.204 712 LINE",
"750.524 712 LINE",
"393.233 16 LINE",
"421.786 16 LINE",
"172.359 712 LINE",
"133.68 712 LINE",
"78.68 0 LINE"
);
}
);
width = 847.65049;
},
{
anchors = (
{
name = bottom;
position = "{406, 0}";
},
{
name = top;
position = "{462, 712}";
}
);
layerId = "EC690951-C754-4A23-894B-8F4258F2E540";
paths = (
{
closed = 1;
nodes = (
"210.612 0 LINE",
"244.35 427.592 LINE",
"203.485 416.961 LINE",
"346.544 0 LINE",
"466.223 0 LINE",
"673.757 417.194 LINE",
"635.126 427.592 LINE",
"601.621 0 LINE",
"765.825 0 LINE",
"820.592 712 LINE",
"674.951 712 LINE",
"390.534 155 LINE",
"447.427 155 LINE",
"249.282 712 LINE",
"102.641 712 LINE",
"47.641 0 LINE"
);
}
);
width = 851.69903;
},
{
anchors = (
{
name = bottom;
position = "{406, 0}";
},
{
name = top;
position = "{462, 712}";
}
);
layerId = "FCB30AE2-FEFD-4E77-A1D9-4C86342947F4";
paths = (
{
closed = 1;
nodes = (
"145.563 0 LINE",
"192.893 604.291 LINE",
"159.796 600.456 LINE",
"377.612 0 LINE",
"436.126 0 LINE",
"745.602 599.718 LINE",
"713.767 604.291 LINE",
"665.699 0 LINE",
"741.553 0 LINE",
"797.291 712 LINE",
"729.32 712 LINE",
"392.476 55 LINE",
"428.98 55 LINE",
"193.942 712 LINE",
"124.971 712 LINE",
"69.971 0 LINE"
);
}
);
width = 848.78641;
}
);
leftKerningGroup = H;
rightKerningGroup = H;
unicode = 004D;
userData = {
anchors = (
);
b = {
};
com.typemytype.robofont.layerData = {
b = {
anchors = (
);
components = (
);
contours = (
);
lib = {
};
name = M;
unicodes = (
);
width = 1899;
};
};
components = (
);
contours = (
);
lib = {
};
name = M;
unicodes = (
);
width = 1984;
};
},
{
glyphname = N;
lastChange = "2019-01-16 15:38:21 +0000";
layers = (
{
anchors = (
{
name = bottom;
position = "{350.835, 0}";
},
{
name = top;
position = "{407.068, 712}";
}
);
layerId = "CF304C0A-4888-46C0-9BE5-45819D47B95E";
paths = (
{
closed = 1;
nodes = (
"118.262 0 LINE",
"171.66 667.476 LINE",
"152.058 668.806 LINE",
"589.194 0 LINE",
"622.99 0 LINE",
"678.99 712 LINE",
"638.641 712 LINE",
"586.359 44.524 LINE",
"608.078 43.311 LINE",
"170.175 712 LINE",
"133.796 712 LINE",
"78.913 0 LINE"
);
}
);
width = 738.6699;
},
{
anchors = (
{
name = bottom;
position = "{364.33, 0}";
},
{
name = top;
position = "{417.864, 712}";
}
);
layerId = "EC690951-C754-4A23-894B-8F4258F2E540";
paths = (
{
closed = 1;
nodes = (
"219.476 0 LINE",
"256.68 465.049 LINE",
"220.883 439.388 LINE",
"540.612 0 LINE",
"681.019 0 LINE",
"737.019 712 LINE",
"561.718 712 LINE",
"524.282 246.951 LINE",
"560.845 271.379 LINE",
"237.65 712 LINE",
"101.408 712 LINE",
"45.175 0 LINE"
);
}
);
width = 765.66019;
},
{
anchors = (
{
name = bottom;
position = "{354.621, 0}";
},
{
name = top;
position = "{410.097, 712}";
}
);
layerId = "FCB30AE2-FEFD-4E77-A1D9-4C86342947F4";
paths = (
{
closed = 1;
nodes = (
"146.66 0 LINE",
"195.515 610.68 LINE",
"171.369 604.437 LINE",
"575.563 0 LINE",
"639.272 0 LINE",
"695.272 712 LINE",
"617.058 712 LINE",
"568.942 101.32 LINE",
"594.826 107.301 LINE",
"189.107 712 LINE",
"124.709 712 LINE",
"69.447 0 LINE"
);
}
);
width = 746.24272;
}
);
leftKerningGroup = H;
rightKerningGroup = H;
unicode = 004E;
userData = {
anchors = (
);
b = {
};
com.typemytype.robofont.layerData = {
b = {
anchors = (
);
components = (
);
contours = (
);
lib = {
};
name = N;
unicodes = (
);
width = 1499;
};
};
components = (
);
contours = (
);
lib = {
};
name = N;
unicodes = (
);
width = 1557;
};
},
{
glyphname = Eng;
lastChange = "2019-01-16 15:38:21 +0000";
layers = (
{
layerId = "CF304C0A-4888-46C0-9BE5-45819D47B95E";
paths = (
{
closed = 1;
nodes = (
"586.359 44.524 LINE",
"608.078 43.311 LINE",
"170.175 712 LINE",
"133.796 712 LINE",
"78.913 0 LINE",
"118.262 0 LINE",
"171.66 667.476 LINE",
"152.058 668.806 LINE",
"589.194 0 LINE",
"586.408 31.709 LINE",
"582.524 -17.777 LINE SMOOTH",
"576.291 -98.456 OFFCURVE",
"529.01 -138.155 OFFCURVE",
"449.029 -144.388 CURVE SMOOTH",
"398.825 -148.388 LINE",
"397.893 -187.767 LINE",
"450.864 -183.883 LINE SMOOTH",
"564.786 -175.883 OFFCURVE",
"615.107 -109.466 OFFCURVE",
"621.524 -14.709 CURVE SMOOTH",
"678.99 712 LINE",
"638.641 712 LINE"
);
}
);
width = 738.6699;
},
{
layerId = "EC690951-C754-4A23-894B-8F4258F2E540";
paths = (
{
closed = 1;
nodes = (
"524.282 246.951 LINE",
"560.845 271.379 LINE",
"237.65 712 LINE",
"101.408 712 LINE",
"45.175 0 LINE",
"219.476 0 LINE",
"256.68 465.049 LINE",
"220.883 439.388 LINE",
"540.612 0 LINE",
"512.184 104.583 LINE",
"506.951 37.553 LINE SMOOTH",
"503.417 -12.087 OFFCURVE",
"470.981 -43.689 OFFCURVE",
"413.942 -47.223 CURVE SMOOTH",
"331.35 -51.223 LINE",
"341.214 -190.466 LINE",
"429.272 -185.233 LINE SMOOTH",
"590.427 -177.233 OFFCURVE",
"671.786 -104.068 OFFCURVE",
"684.951 51.417 CURVE SMOOTH",
"737.019 712 LINE",
"561.718 712 LINE"
);
}
);
width = 765.66019;
},
{
layerId = "FCB30AE2-FEFD-4E77-A1D9-4C86342947F4";
paths = (
{
closed = 1;
nodes = (
"568.942 101.32 LINE",
"594.826 107.301 LINE",
"189.107 712 LINE",
"124.709 712 LINE",
"69.447 0 LINE",
"146.66 0 LINE",
"195.515 610.68 LINE",
"171.369 604.437 LINE",
"575.563 0 LINE",
"565.583 52.156 LINE",
"561.32 -2.253 LINE SMOOTH",
"555.844 -74.223 OFFCURVE",
"512.728 -111.65 OFFCURVE",
"439.184 -117.126 CURVE SMOOTH",
"379.893 -121.126 LINE",
"381.99 -188.524 LINE",
"444.806 -184.262 LINE SMOOTH",
"571.98 -176.262 OFFCURVE",
"631.01 -107.951 OFFCURVE",
"639.32 3.844 CURVE SMOOTH",
"695.272 712 LINE",
"617.058 712 LINE"
);
}
);
width = 746.24272;
}
);
leftKerningGroup = H;
rightKerningGroup = H;
unicode = 014A;
userData = {
com.typemytype.robofont.layerData = {
b = {
anchors = (
);
components = (
);
contours = (
);
lib = {
};
name = Eng;
unicodes = (
);
width = 1495;
};
};
};
},
{
glyphname = O;
lastChange = "2019-01-16 15:38:21 +0000";
layers = (
{
anchors = (
{
name = bottom;
position = "{359.903, 0}";
},
{
name = center;
position = "{389.019, 357}";
},
{
name = ogonek;
position = "{465.388, 10}";
},
{
name = top;
position = "{415.019, 712}";
},
{
name = topleft;
position = "{63.466, 712}";
},
{
name = topright;
position = "{444.786, 712}";
}
);
layerId = "CF304C0A-4888-46C0-9BE5-45819D47B95E";
paths = (
{
closed = 1;
nodes = (
"574.689 -7.767 OFFCURVE",
"700.175 146.233 OFFCURVE",
"700.175 387.816 CURVE SMOOTH",
"700.175 595.35 OFFCURVE",
"586.155 719.767 OFFCURVE",
"396.369 719.767 CURVE SMOOTH",
"201.35 719.767 OFFCURVE",
"75.864 565.767 OFFCURVE",
"75.864 323.068 CURVE SMOOTH",
"75.864 116.65 OFFCURVE",
"189.883 -7.767 OFFCURVE",
"378.553 -7.767 CURVE SMOOTH"
);
},
{
closed = 1;
nodes = (
"213.544 34.379 OFFCURVE",
"120.631 137.058 OFFCURVE",
"120.631 321.951 CURVE SMOOTH",
"120.631 544.01 OFFCURVE",
"224.893 677.621 OFFCURVE",
"396.136 677.621 CURVE SMOOTH",
"562.728 677.621 OFFCURVE",
"654.291 574.942 OFFCURVE",
"654.291 388.932 CURVE SMOOTH",
"654.291 168.223 OFFCURVE",
"550.262 34.379 OFFCURVE",
"379.786 34.379 CURVE SMOOTH"
);
}
);
width = 759.03883;
},
{
anchors = (
{
name = bottom;
position = "{384.194, 0}";
},
{
name = center;
position = "{411.961, 357}";
},
{
name = ogonek;
position = "{507.223, 10}";
},
{
name = top;
position = "{437.961, 712}";
},
{
name = topleft;
position = "{58.068, 712}";
},
{
name = topright;
position = "{470.427, 712}";
}
);
layerId = "EC690951-C754-4A23-894B-8F4258F2E540";
paths = (
{
closed = 1;
nodes = (
"624.621 -10.466 OFFCURVE",
"767.65 143.534 OFFCURVE",
"767.65 378.369 CURVE SMOOTH",
"767.65 591.301 OFFCURVE",
"630.689 722.466 OFFCURVE",
"415.262 722.466 CURVE SMOOTH",
"197.301 722.466 OFFCURVE",
"54.272 568.466 OFFCURVE",
"54.272 333.864 CURVE SMOOTH",
"54.272 120.699 OFFCURVE",
"191.233 -10.466 OFFCURVE",
"406.893 -10.466 CURVE SMOOTH"
);
},
{
closed = 1;
nodes = (
"299.913 134.243 OFFCURVE",
"240.738 205.883 OFFCURVE",
"240.738 334.097 CURVE SMOOTH",
"240.738 485.981 OFFCURVE",
"307.214 577.757 OFFCURVE",
"417.728 577.757 CURVE SMOOTH",
"519.544 577.757 OFFCURVE",
"581.417 506.117 OFFCURVE",
"581.417 378.136 CURVE SMOOTH",
"581.417 223.553 OFFCURVE",
"512.476 134.243 OFFCURVE",
"405.427 134.243 CURVE SMOOTH"
);
}
);
width = 804.92233;
},
{
anchors = (
{
name = bottom;
position = "{366.718, 0}";
},
{
name = center;
position = "{395.456, 357}";
},
{
name = ogonek;
position = "{477.126, 10}";
},
{
name = top;
position = "{421.456, 712}";
},
{
name = topleft;
position = "{61.951, 712}";
},
{
name = topright;
position = "{451.98, 712}";
}
);
layerId = "FCB30AE2-FEFD-4E77-A1D9-4C86342947F4";
paths = (
{
closed = 1;
nodes = (
"588.699 -8.524 OFFCURVE",
"719.107 145.476 OFFCURVE",
"719.107 385.165 CURVE SMOOTH",
"719.107 594.214 OFFCURVE",
"598.65 720.524 OFFCURVE",
"401.67 720.524 CURVE SMOOTH",
"200.214 720.524 OFFCURVE",
"69.806 566.524 OFFCURVE",
"69.806 326.097 CURVE SMOOTH",
"69.806 117.786 OFFCURVE",
"190.262 -8.524 OFFCURVE",
"386.505 -8.524 CURVE SMOOTH"
);
},
{
closed = 1;
nodes = (
"237.777 62.398 OFFCURVE",
"154.33 156.369 OFFCURVE",
"154.33 325.359 CURVE SMOOTH",
"154.33 527.728 OFFCURVE",
"247.99 649.602 OFFCURVE",
"402.194 649.602 CURVE SMOOTH",
"550.612 649.602 OFFCURVE",
"633.844 555.631 OFFCURVE",
"633.844 385.903 CURVE SMOOTH",
"633.844 183.747 OFFCURVE",
"539.66 62.398 OFFCURVE",
"386.98 62.398 CURVE SMOOTH"
);
}
);
width = 771.91262;
}
);
leftKerningGroup = O;
rightKerningGroup = O;
unicode = 004F;
userData = {
anchors = (
);
b = {
};
com.typemytype.robofont.guides = (
);
com.typemytype.robofont.layerData = {
b = {
anchors = (
);
components = (
);
contours = (
);
lib = {
};
name = O;
unicodes = (
);
width = 1597;
};
};
components = (
);
contours = (
);
lib = {
};
name = O;
unicodes = (
);
width = 1604;
};
},
{
glyphname = Ohorn;
lastChange = "2019-01-16 15:38:21 +0000";
layers = (
{
anchors = (
{
name = bottom;
position = "{361.019, 0}";
},
{
name = top;
position = "{415.019, 712}";
}
);
layerId = "CF304C0A-4888-46C0-9BE5-45819D47B95E";
paths = (
{
closed = 1;
nodes = (
"574.689 -7.767 OFFCURVE",
"700.175 146.233 OFFCURVE",
"700.175 387.816 CURVE SMOOTH",
"700.175 547.427 OFFCURVE",
"630.612 642.311 OFFCURVE",
"557.194 682.563 CURVE",
"562.243 673.961 LINE",
"678.689 673.961 OFFCURVE",
"728.175 726.563 OFFCURVE",
"736.291 819.563 CURVE SMOOTH",
"737.058 839.583 LINE",
"696.961 839.583 LINE",
"696.078 827.398 LINE SMOOTH",
"690.078 744.583 OFFCURVE",
"653.563 712 OFFCURVE",
"564.233 712 CURVE SMOOTH",
"501.369 712 OFFCURVE",
"454.204 719.767 OFFCURVE",
"406.369 719.767 CURVE SMOOTH",
"199.117 719.767 OFFCURVE",
"75.864 565.767 OFFCURVE",
"75.864 323.068 CURVE SMOOTH",
"75.864 116.65 OFFCURVE",
"189.883 -7.767 OFFCURVE",
"378.553 -7.767 CURVE SMOOTH"
);
},
{
closed = 1;
nodes = (
"213.544 34.379 OFFCURVE",
"120.631 137.058 OFFCURVE",
"120.631 321.951 CURVE SMOOTH",
"120.631 544.01 OFFCURVE",
"224.893 677.621 OFFCURVE",
"396.136 677.621 CURVE SMOOTH",
"562.728 677.621 OFFCURVE",
"654.291 574.942 OFFCURVE",
"654.291 388.932 CURVE SMOOTH",
"654.291 168.223 OFFCURVE",
"550.262 34.379 OFFCURVE",
"379.786 34.379 CURVE SMOOTH"
);
}
);
width = 759.03883;
},
{
anchors = (
{
name = bottom;
position = "{383.961, 0}";
},
{
name = top;
position = "{437.961, 712}";
}
);
layerId = "EC690951-C754-4A23-894B-8F4258F2E540";
paths = (
{
closed = 1;
nodes = (
"624.621 -10.466 OFFCURVE",
"767.65 143.534 OFFCURVE",
"767.65 378.369 CURVE SMOOTH",
"767.65 496.146 OFFCURVE",
"727.777 592.379 OFFCURVE",
"647.612 652.874 CURVE",
"640.515 628.078 LINE",
"728.621 628.078 OFFCURVE",
"795.65 696.874 OFFCURVE",
"802.417 789.874 CURVE SMOOTH",
"805.883 832.835 LINE",
"651.078 832.835 LINE",
"648.845 811.204 LINE SMOOTH",
"642.845 737.835 OFFCURVE",
"623.874 712 OFFCURVE",
"561.534 712 CURVE SMOOTH",
"520.262 712 OFFCURVE",
"486.592 722.466 OFFCURVE",
"425.262 722.466 CURVE SMOOTH",
"197.767 722.466 OFFCURVE",
"54.272 568.466 OFFCURVE",
"54.272 333.864 CURVE SMOOTH",
"54.272 120.699 OFFCURVE",
"191.233 -10.466 OFFCURVE",
"406.893 -10.466 CURVE SMOOTH"
);
},
{
closed = 1;
nodes = (
"299.913 134.243 OFFCURVE",
"240.738 205.883 OFFCURVE",
"240.738 334.097 CURVE SMOOTH",
"240.738 485.981 OFFCURVE",
"307.214 577.757 OFFCURVE",
"417.728 577.757 CURVE SMOOTH",
"519.544 577.757 OFFCURVE",
"581.417 506.117 OFFCURVE",
"581.417 378.136 CURVE SMOOTH",
"581.417 223.553 OFFCURVE",
"512.476 134.243 OFFCURVE",
"405.427 134.243 CURVE SMOOTH"
);
}
);
width = 804.92233;
},
{
anchors = (
{
name = bottom;
position = "{367.456, 0}";
},
{
name = top;
position = "{421.456, 712}";
}
);
layerId = "FCB30AE2-FEFD-4E77-A1D9-4C86342947F4";
paths = (
{
closed = 1;
nodes = (
"588.699 -8.524 OFFCURVE",
"719.107 145.476 OFFCURVE",
"719.107 385.165 CURVE SMOOTH",
"719.107 533.039 OFFCURVE",
"657.874 628.301 OFFCURVE",
"582.563 674.233 CURVE",
"584.204 661.087 LINE",
"692.699 661.087 OFFCURVE",
"747.107 718.233 OFFCURVE",
"754.844 811.233 CURVE SMOOTH",
"756.369 837.69 LINE",
"684.087 837.69 LINE",
"682.826 822.854 LINE SMOOTH",
"676.826 742.69 OFFCURVE",
"645.233 712 OFFCURVE",
"563.476 712 CURVE SMOOTH",
"506.67 712 OFFCURVE",
"463.291 720.524 OFFCURVE",
"411.67 720.524 CURVE SMOOTH",
"198.738 720.524 OFFCURVE",
"69.806 566.524 OFFCURVE",
"69.806 326.097 CURVE SMOOTH",
"69.806 117.786 OFFCURVE",
"190.262 -8.524 OFFCURVE",
"386.505 -8.524 CURVE SMOOTH"
);
},
{
closed = 1;
nodes = (
"237.777 62.398 OFFCURVE",
"154.33 156.369 OFFCURVE",
"154.33 325.359 CURVE SMOOTH",
"154.33 527.728 OFFCURVE",
"247.99 649.602 OFFCURVE",
"402.194 649.602 CURVE SMOOTH",
"550.612 649.602 OFFCURVE",
"633.844 555.631 OFFCURVE",
"633.844 385.903 CURVE SMOOTH",
"633.844 183.747 OFFCURVE",
"539.66 62.398 OFFCURVE",
"386.98 62.398 CURVE SMOOTH"
);
}
);
width = 771.91262;
}
);
leftKerningGroup = O;
rightKerningGroup = O;
unicode = 01A0;
},
{
glyphname = Oogonek;
lastChange = "2019-01-16 15:38:21 +0000";
layers = (
{
anchors = (
{
name = top;
position = "{415.019, 712}";
}
);
layerId = "CF304C0A-4888-46C0-9BE5-45819D47B95E";
paths = (
{
closed = 1;
nodes = (
"594.641 32.883 OFFCURVE",
"700.175 162.301 OFFCURVE",
"700.175 387.816 CURVE SMOOTH",
"700.175 595.35 OFFCURVE",
"585.689 719.767 OFFCURVE",
"396.369 719.767 CURVE SMOOTH",
"201.35 719.767 OFFCURVE",
"75.864 565.767 OFFCURVE",
"75.864 323.068 CURVE SMOOTH",
"75.864 116.65 OFFCURVE",
"189.883 -6.65 OFFCURVE",
"371.553 -6.767 CURVE",
"381.767 9.767 LINE",
"342 -8.534 OFFCURVE",
"316.417 -45.767 OFFCURVE",
"316.417 -94.233 CURVE SMOOTH",
"316.417 -153.883 OFFCURVE",
"357.485 -192.301 OFFCURVE",
"422.087 -192.301 CURVE SMOOTH",
"453.971 -192.301 OFFCURVE",
"484.854 -180.835 OFFCURVE",
"501.34 -168.951 CURVE",
"488.107 -132.796 LINE",
"466.107 -146.379 OFFCURVE",
"441.408 -152.612 OFFCURVE",
"425.524 -152.612 CURVE SMOOTH",
"385.825 -152.612 OFFCURVE",
"362.592 -131.262 OFFCURVE",
"362.592 -89.214 CURVE SMOOTH",
"362.592 -45.165 OFFCURVE",
"389.942 -13.35 OFFCURVE",
"450.223 -0.117 CURVE SMOOTH"
);
},
{
closed = 1;
nodes = (
"213.544 34.379 OFFCURVE",
"120.631 137.058 OFFCURVE",
"120.631 321.951 CURVE SMOOTH",
"120.631 544.01 OFFCURVE",
"224.893 677.621 OFFCURVE",
"396.136 677.621 CURVE SMOOTH",
"562.728 677.621 OFFCURVE",
"654.291 574.942 OFFCURVE",
"654.291 388.932 CURVE SMOOTH",
"654.291 168.223 OFFCURVE",
"550.262 34.379 OFFCURVE",
"379.786 34.379 CURVE SMOOTH"
);
}
);
width = 759.03883;
},
{
anchors = (
{
name = top;
position = "{437.961, 712}";
}
);
layerId = "EC690951-C754-4A23-894B-8F4258F2E540";
paths = (
{
closed = 1;
nodes = (
"656.718 34.233 OFFCURVE",
"767.65 170.398 OFFCURVE",
"767.65 378.369 CURVE SMOOTH",
"767.65 591.301 OFFCURVE",
"635.621 722.466 OFFCURVE",
"415.262 722.466 CURVE SMOOTH",
"197.301 722.466 OFFCURVE",
"54.272 568.466 OFFCURVE",
"54.272 333.864 CURVE SMOOTH",
"54.272 120.699 OFFCURVE",
"191.233 -10.699 OFFCURVE",
"399.893 -9.466 CURVE",
"384.466 12.466 LINE",
"342 -13.932 OFFCURVE",
"323.165 -48.466 OFFCURVE",
"323.165 -91.534 CURVE SMOOTH",
"323.165 -155.233 OFFCURVE",
"375.029 -200.398 OFFCURVE",
"455.825 -200.398 CURVE SMOOTH",
"489.058 -200.398 OFFCURVE",
"521.291 -194.33 OFFCURVE",
"555.32 -181.097 CURVE",
"544.786 -100.408 LINE",
"522.786 -107.243 OFFCURVE",
"506.184 -110.777 OFFCURVE",
"488.951 -110.777 CURVE SMOOTH",
"457.35 -110.777 OFFCURVE",
"436.816 -93.476 OFFCURVE",
"436.816 -63.573 CURVE SMOOTH",
"436.816 -31.67 OFFCURVE",
"460.117 -9.301 OFFCURVE",
"505.553 1.233 CURVE SMOOTH"
);
},
{
closed = 1;
nodes = (
"299.913 134.243 OFFCURVE",
"240.738 205.883 OFFCURVE",
"240.738 334.097 CURVE SMOOTH",
"240.738 485.981 OFFCURVE",
"307.214 577.757 OFFCURVE",
"417.728 577.757 CURVE SMOOTH",
"519.544 577.757 OFFCURVE",
"581.417 506.117 OFFCURVE",
"581.417 378.136 CURVE SMOOTH",
"581.417 223.553 OFFCURVE",
"512.476 134.243 OFFCURVE",
"405.427 134.243 CURVE SMOOTH"
);
}
);
width = 804.92233;
},
{
anchors = (
{
name = top;
position = "{421.456, 712}";
}
);
layerId = "FCB30AE2-FEFD-4E77-A1D9-4C86342947F4";
paths = (
{
closed = 1;
nodes = (
"612.058 33.262 OFFCURVE",
"719.107 164.573 OFFCURVE",
"719.107 385.165 CURVE SMOOTH",
"719.107 594.214 OFFCURVE",
"599.699 720.524 OFFCURVE",
"401.67 720.524 CURVE SMOOTH",
"200.214 720.524 OFFCURVE",
"69.806 566.524 OFFCURVE",
"69.806 326.097 CURVE SMOOTH",
"69.806 117.786 OFFCURVE",
"190.262 -7.786 OFFCURVE",
"379.505 -7.524 CURVE",
"382.524 10.524 LINE",
"342 -10.049 OFFCURVE",
"318.31 -46.524 OFFCURVE",
"318.31 -93.476 CURVE SMOOTH",
"318.31 -154.262 OFFCURVE",
"362.407 -194.573 OFFCURVE",
"431.553 -194.573 CURVE SMOOTH",
"463.816 -194.573 OFFCURVE",
"495.077 -184.621 OFFCURVE",
"516.485 -172.359 CURVE",
"504.01 -123.709 LINE",
"482.01 -135.398 OFFCURVE",
"459.583 -140.874 OFFCURVE",
"443.32 -140.874 CURVE SMOOTH",
"405.893 -140.874 OFFCURVE",
"383.417 -120.66 OFFCURVE",
"383.417 -82.02 CURVE SMOOTH",
"383.417 -41.379 OFFCURVE",
"409.631 -12.214 OFFCURVE",
"465.747 0.262 CURVE SMOOTH"
);
},
{
closed = 1;
nodes = (
"237.777 62.398 OFFCURVE",
"154.33 156.369 OFFCURVE",
"154.33 325.359 CURVE SMOOTH",
"154.33 527.728 OFFCURVE",
"247.99 649.602 OFFCURVE",
"402.194 649.602 CURVE SMOOTH",
"550.612 649.602 OFFCURVE",
"633.844 555.631 OFFCURVE",
"633.844 385.903 CURVE SMOOTH",
"633.844 183.747 OFFCURVE",
"539.66 62.398 OFFCURVE",
"386.98 62.398 CURVE SMOOTH"
);
}
);
width = 771.91262;
}
);
leftKerningGroup = O;
rightKerningGroup = O;
unicode = 01EA;
},
{
glyphname = Oslash;
lastChange = "2019-01-16 15:38:21 +0000";
layers = (
{
anchors = (
{
name = bottom;
position = "{359.903, 0}";
},
{
name = top;
position = "{415.019, 712}";
}
);
layerId = "CF304C0A-4888-46C0-9BE5-45819D47B95E";
paths = (
{
closed = 1;
nodes = (
"574.689 -7.767 OFFCURVE",
"700.175 146.233 OFFCURVE",
"700.175 387.816 CURVE SMOOTH",
"700.175 595.35 OFFCURVE",
"586.155 719.767 OFFCURVE",
"396.369 719.767 CURVE SMOOTH",
"201.35 719.767 OFFCURVE",
"75.864 565.767 OFFCURVE",
"75.864 323.068 CURVE SMOOTH",
"75.864 116.65 OFFCURVE",
"189.883 -7.767 OFFCURVE",
"378.553 -7.767 CURVE SMOOTH"
);
},
{
closed = 1;
nodes = (
"213.544 34.379 OFFCURVE",
"120.631 137.058 OFFCURVE",
"120.631 321.951 CURVE SMOOTH",
"120.631 544.01 OFFCURVE",
"224.893 677.621 OFFCURVE",
"396.136 677.621 CURVE SMOOTH",
"562.728 677.621 OFFCURVE",
"654.291 574.942 OFFCURVE",
"654.291 388.932 CURVE SMOOTH",
"654.291 168.223 OFFCURVE",
"550.262 34.379 OFFCURVE",
"379.786 34.379 CURVE SMOOTH"
);
},
{
closed = 1;
nodes = (
"658.942 725.583 LINE",
"625.699 747.388 LINE",
"118.214 -13.583 LINE",
"151.34 -35.388 LINE"
);
}
);
width = 759.03883;
},
{
anchors = (
{
name = bottom;
position = "{384.194, 0}";
},
{
name = top;
position = "{437.961, 712}";
}
);
layerId = "EC690951-C754-4A23-894B-8F4258F2E540";
paths = (
{
closed = 1;
nodes = (
"624.621 -10.466 OFFCURVE",
"767.65 143.534 OFFCURVE",
"767.65 378.369 CURVE SMOOTH",
"767.65 591.301 OFFCURVE",
"630.689 722.466 OFFCURVE",
"415.262 722.466 CURVE SMOOTH",
"197.301 722.466 OFFCURVE",
"54.272 568.466 OFFCURVE",
"54.272 333.864 CURVE SMOOTH",
"54.272 120.699 OFFCURVE",
"191.233 -10.466 OFFCURVE",
"406.893 -10.466 CURVE SMOOTH"
);
},
{
closed = 1;
nodes = (
"299.913 134.243 OFFCURVE",
"240.738 205.883 OFFCURVE",
"240.738 334.097 CURVE SMOOTH",
"240.738 485.981 OFFCURVE",
"307.214 577.757 OFFCURVE",
"417.728 577.757 CURVE SMOOTH",
"519.544 577.757 OFFCURVE",
"581.417 506.117 OFFCURVE",
"581.417 378.136 CURVE SMOOTH",
"581.417 223.553 OFFCURVE",
"512.476 134.243 OFFCURVE",
"405.427 134.243 CURVE SMOOTH"
);
},
{
closed = 1;
nodes = (
"729.117 718.835 LINE",
"617.602 789.223 LINE",
"92.573 -6.835 LINE",
"205.32 -77.223 LINE"
);
}
);
width = 804.92233;
},
{
anchors = (
{
name = bottom;
position = "{366.718, 0}";
},
{
name = top;
position = "{421.456, 712}";
}
);
layerId = "FCB30AE2-FEFD-4E77-A1D9-4C86342947F4";
paths = (
{
closed = 1;
nodes = (
"588.699 -8.524 OFFCURVE",
"719.107 145.476 OFFCURVE",
"719.107 385.165 CURVE SMOOTH",
"719.107 594.214 OFFCURVE",
"598.65 720.524 OFFCURVE",
"401.67 720.524 CURVE SMOOTH",
"200.214 720.524 OFFCURVE",
"69.806 566.524 OFFCURVE",
"69.806 326.097 CURVE SMOOTH",
"69.806 117.786 OFFCURVE",
"190.262 -8.524 OFFCURVE",
"386.505 -8.524 CURVE SMOOTH"
);
},
{
closed = 1;
nodes = (
"237.777 62.398 OFFCURVE",
"154.33 156.369 OFFCURVE",
"154.33 325.359 CURVE SMOOTH",
"154.33 527.728 OFFCURVE",
"247.99 649.602 OFFCURVE",
"402.194 649.602 CURVE SMOOTH",
"550.612 649.602 OFFCURVE",
"633.844 555.631 OFFCURVE",
"633.844 385.903 CURVE SMOOTH",
"633.844 183.747 OFFCURVE",
"539.66 62.398 OFFCURVE",
"386.98 62.398 CURVE SMOOTH"
);
},
{
closed = 1;
nodes = (
"678.631 723.69 LINE",
"623.427 759.126 LINE",
"111.02 -11.69 LINE",
"166.485 -47.126 LINE"
);
}
);
width = 771.91262;
}
);
leftKerningGroup = O;
rightKerningGroup = O;
unicode = 00D8;
userData = {
com.typemytype.robofont.layerData = {
b = {
anchors = (
);
components = (
);
contours = (
);
lib = {
};
name = Oslash;
unicodes = (
);
width = 1597;
};
};
};
},
{
glyphname = OE;
lastChange = "2019-01-16 15:38:21 +0000";
layers = (
{
anchors = (
{
name = bottom;
position = "{518.35, 0}";
},
{
name = top;
position = "{573.233, 712}";
}
);
layerId = "CF304C0A-4888-46C0-9BE5-45819D47B95E";
paths = (
{
closed = 1;
nodes = (
"456.398 -7.767 OFFCURVE",
"519.515 13.883 OFFCURVE",
"573.029 55.417 CURVE",
"577.563 118.01 LINE",
"525.583 62.961 OFFCURVE",
"450.718 34.379 OFFCURVE",
"379.786 34.379 CURVE SMOOTH",
"213.544 34.379 OFFCURVE",
"120.631 137.058 OFFCURVE",
"120.631 321.951 CURVE SMOOTH",
"120.631 544.01 OFFCURVE",
"224.893 677.621 OFFCURVE",
"404.971 677.621 CURVE SMOOTH",
"491.068 677.621 OFFCURVE",
"571.864 649.039 OFFCURVE",
"614.495 595.107 CURVE",
"617.796 653.301 LINE",
"548.951 704.233 OFFCURVE",
"477.767 719.767 OFFCURVE",
"407.534 719.767 CURVE SMOOTH",
"201.35 719.767 OFFCURVE",
"75.864 565.767 OFFCURVE",
"75.864 323.068 CURVE SMOOTH",
"75.864 116.65 OFFCURVE",
"189.883 -7.767 OFFCURVE",
"382.049 -7.767 CURVE SMOOTH"
);
},
{
closed = 1;
nodes = (
"981.252 0 LINE",
"984.553 38.913 LINE",
"598.194 38.913 LINE",
"647.592 673.087 LINE",
"1033.951 673.087 LINE",
"1036.252 712 LINE",
"607.961 712 LINE",
"603.078 646.515 LINE",
"602.243 630.864 LINE",
"558.777 83.087 LINE",
"556.845 65.835 LINE",
"551.961 0 LINE"
);
},
{
closed = 1;
nodes = (
"987.602 341.427 LINE",
"990.903 381.456 LINE",
"613.01 381.456 LINE",
"609.709 341.427 LINE"
);
}
);
width = 1057.34951;
},
{
anchors = (
{
name = bottom;
position = "{514.301, 0}";
},
{
name = top;
position = "{570.534, 712}";
}
);
layerId = "EC690951-C754-4A23-894B-8F4258F2E540";
paths = (
{
closed = 1;
nodes = (
"440.204 -10.466 OFFCURVE",
"501.971 15.233 OFFCURVE",
"537.942 62.165 CURVE",
"547.874 198.981 LINE",
"518.835 156.078 OFFCURVE",
"465.563 134.243 OFFCURVE",
"405.427 134.243 CURVE SMOOTH",
"299.913 134.243 OFFCURVE",
"240.738 205.883 OFFCURVE",
"240.738 334.097 CURVE SMOOTH",
"240.738 485.981 OFFCURVE",
"307.214 577.757 OFFCURVE",
"440.058 577.757 CURVE SMOOTH",
"501.864 577.757 OFFCURVE",
"550.272 555.922 OFFCURVE",
"574.01 512.786 CURVE",
"585.408 661.398 LINE",
"561.097 701.534 OFFCURVE",
"480.466 722.466 OFFCURVE",
"412.932 722.466 CURVE SMOOTH",
"197.301 722.466 OFFCURVE",
"54.272 568.466 OFFCURVE",
"54.272 333.864 CURVE SMOOTH",
"54.272 120.699 OFFCURVE",
"191.233 -10.466 OFFCURVE",
"369.903 -10.466 CURVE SMOOTH"
);
},
{
closed = 1;
nodes = (
"1001.495 0 LINE",
"1012.893 144.175 LINE",
"688.612 144.175 LINE",
"721.816 567.825 LINE",
"1046.097 567.825 LINE",
"1056.495 712 LINE",
"562.078 712 LINE",
"555.845 628.971 LINE",
"541.515 609.272 LINE",
"503.447 116.825 LINE",
"512.311 79.33 LINE",
"506.078 0 LINE"
);
},
{
closed = 1;
nodes = (
"1003.796 290.146 LINE",
"1015.194 434.087 LINE",
"693.981 434.087 LINE",
"682.583 290.146 LINE"
);
}
);
width = 1053.30097;
},
{
anchors = (
{
name = bottom;
position = "{517.214, 0}";
},
{
name = top;
position = "{572.476, 712}";
}
);
layerId = "FCB30AE2-FEFD-4E77-A1D9-4C86342947F4";
paths = (
{
closed = 1;
nodes = (
"451.854 -8.524 OFFCURVE",
"514.593 14.262 OFFCURVE",
"563.184 57.31 CURVE",
"569.233 140.728 LINE",
"523.69 89.087 OFFCURVE",
"454.883 62.398 OFFCURVE",
"386.98 62.398 CURVE SMOOTH",
"237.777 62.398 OFFCURVE",
"154.33 156.369 OFFCURVE",
"154.33 325.359 CURVE SMOOTH",
"154.33 527.728 OFFCURVE",
"247.99 649.602 OFFCURVE",
"414.816 649.602 CURVE SMOOTH",
"494.097 649.602 OFFCURVE",
"565.806 622.913 OFFCURVE",
"603.136 572.01 CURVE",
"608.709 655.573 LINE",
"552.359 703.476 OFFCURVE",
"478.524 720.524 OFFCURVE",
"409.049 720.524 CURVE SMOOTH",
"200.214 720.524 OFFCURVE",
"69.806 566.524 OFFCURVE",
"69.806 326.097 CURVE SMOOTH",
"69.806 117.786 OFFCURVE",
"190.262 -8.524 OFFCURVE",
"378.641 -8.524 CURVE SMOOTH"
);
},
{
closed = 1;
nodes = (
"986.932 0 LINE",
"992.505 68.447 LINE",
"623.563 68.447 LINE",
"668.417 643.553 LINE",
"1037.359 643.553 LINE",
"1041.932 712 LINE",
"595.087 712 LINE",
"589.826 641.593 LINE",
"585.204 624.806 LINE",
"543.253 92.553 LINE",
"544.35 69.621 LINE",
"539.087 0 LINE"
);
},
{
closed = 1;
nodes = (
"992.146 327.039 LINE",
"997.718 396.223 LINE",
"635.728 396.223 LINE",
"630.156 327.039 LINE"
);
}
);
width = 1056.21359;
}
);
leftKerningGroup = O;
rightKerningGroup = E;
unicode = 0152;
},
{
glyphname = P;
lastChange = "2019-01-16 15:38:21 +0000";
layers = (
{
anchors = (
{
name = bottom;
position = "{300.786, 0}";
},
{
name = top;
position = "{356.903, 712}";
}
);
layerId = "CF304C0A-4888-46C0-9BE5-45819D47B95E";
paths = (
{
closed = 1;
nodes = (
"172.913 672.854 LINE",
"387.136 672.854 LINE SMOOTH",
"508.029 672.854 OFFCURVE",
"563.243 614.942 OFFCURVE",
"563.243 531.913 CURVE SMOOTH",
"563.243 419.437 OFFCURVE",
"488.748 366.573 OFFCURVE",
"360.971 366.573 CURVE SMOOTH",
"136.796 366.573 LINE",
"133.146 326.194 LINE",
"359.223 326.194 LINE SMOOTH",
"508.243 326.194 OFFCURVE",
"606.825 395.563 OFFCURVE",
"606.825 531.981 CURVE SMOOTH",
"606.825 636.699 OFFCURVE",
"532.107 712 OFFCURVE",
"385.806 712 CURVE SMOOTH",
"133.796 712 LINE",
"78.913 0 LINE",
"120.33 0 LINE"
);
}
);
width = 639.03883;
},
{
anchors = (
{
name = bottom;
position = "{326.427, 0}";
},
{
name = top;
position = "{381.194, 712}";
}
);
layerId = "EC690951-C754-4A23-894B-8F4258F2E540";
paths = (
{
closed = 1;
nodes = (
"278.175 570.291 LINE",
"408.728 570.291 LINE SMOOTH",
"472.942 570.291 OFFCURVE",
"502.515 546.117 OFFCURVE",
"502.515 498.175 CURVE SMOOTH",
"502.515 449.126 OFFCURVE",
"468.505 417.854 OFFCURVE",
"396.058 417.854 CURVE SMOOTH",
"243.408 417.854 LINE",
"235.709 277.612 LINE",
"414.553 277.612 LINE SMOOTH",
"586.515 277.612 OFFCURVE",
"678.35 365.874 OFFCURVE",
"678.35 509.039 CURVE SMOOTH",
"678.35 628.602 OFFCURVE",
"588.786 712 OFFCURVE",
"434.388 712 CURVE SMOOTH",
"101.408 712 LINE",
"45.175 0 LINE",
"232.34 0 LINE"
);
}
);
width = 684.92233;
},
{
anchors = (
{
name = bottom;
position = "{307.98, 0}";
},
{
name = top;
position = "{363.718, 712}";
}
);
layerId = "FCB30AE2-FEFD-4E77-A1D9-4C86342947F4";
paths = (
{
closed = 1;
nodes = (
"202.447 644.077 LINE",
"393.194 644.077 LINE SMOOTH",
"498.184 644.077 OFFCURVE",
"546.204 595.631 OFFCURVE",
"546.204 522.447 CURVE SMOOTH",
"546.204 427.767 OFFCURVE",
"483.068 380.961 OFFCURVE",
"370.816 380.961 CURVE SMOOTH",
"166.709 380.961 LINE",
"161.923 312.563 LINE",
"374.747 312.563 LINE SMOOTH",
"530.204 312.563 OFFCURVE",
"626.893 387.233 OFFCURVE",
"626.893 525.544 CURVE SMOOTH",
"626.893 634.427 OFFCURVE",
"548.01 712 OFFCURVE",
"399.437 712 CURVE SMOOTH",
"124.709 712 LINE",
"69.447 0 LINE",
"151.757 0 LINE"
);
}
);
width = 651.91262;
}
);
leftKerningGroup = H;
rightKerningGroup = P;
unicode = 0050;
userData = {
anchors = (
);
b = {
};
com.typemytype.robofont.layerData = {
b = {
anchors = (
);
components = (
);
contours = (
{
points = (
{
segmentType = curve;
smooth = 1;
x = 266;
y = 0;
},
{
segmentType = line;
smooth = 1;
x = 1035;
y = 0;
},
{
smooth = 0;
x = 1084;
y = 0;
},
{
smooth = 0;
x = 1108;
y = 34;
},
{
segmentType = curve;
smooth = 1;
x = 1108;
y = 71;
},
{
smooth = 0;
x = 1108;
y = 107;
},
{
smooth = 0;
x = 1084;
y = 141;
},
{
segmentType = curve;
smooth = 1;
x = 1035;
y = 141;
},
{
segmentType = line;
smooth = 0;
x = 356;
y = 141;
},
{
segmentType = line;
smooth = 0;
x = 356;
y = 665;
},
{
segmentType = line;
smooth = 1;
x = 975;
y = 665;
},
{
smooth = 0;
x = 1024;
y = 665;
},
{
smooth = 0;
x = 1049;
y = 698;
},
{
segmentType = curve;
smooth = 1;
x = 1049;
y = 734;
},
{
smooth = 0;
x = 1049;
y = 770;
},
{
smooth = 0;
x = 1026;
y = 803;
},
{
segmentType = curve;
smooth = 1;
x = 975;
y = 803;
},
{
segmentType = line;
smooth = 0;
x = 356;
y = 803;
},
{
segmentType = line;
smooth = 0;
x = 356;
y = 1285;
},
{
segmentType = line;
smooth = 1;
x = 1007;
y = 1285;
},
{
smooth = 0;
x = 1056;
y = 1285;
},
{
smooth = 0;
x = 1080;
y = 1319;
},
{
segmentType = curve;
smooth = 1;
x = 1080;
y = 1356;
},
{
smooth = 0;
x = 1080;
y = 1392;
},
{
smooth = 0;
x = 1056;
y = 1426;
},
{
segmentType = curve;
smooth = 1;
x = 1007;
y = 1426;
},
{
segmentType = line;
smooth = 1;
x = 261;
y = 1426;
},
{
smooth = 0;
x = 213;
y = 1426;
},
{
smooth = 0;
x = 178;
y = 1383;
},
{
segmentType = curve;
smooth = 1;
x = 178;
y = 1340;
},
{
segmentType = line;
smooth = 1;
x = 178;
y = 86;
},
{
smooth = 0;
x = 178;
y = 41;
},
{
smooth = 0;
x = 222;
y = 0;
}
);
}
);
lib = {
};
name = P;
unicodes = (
);
width = 1201;
};
};
components = (
);
contours = (
);
lib = {
};
name = P;
unicodes = (
);
width = 1319;
};
},
{
glyphname = Thorn;
lastChange = "2019-01-16 15:38:21 +0000";
layers = (
{
anchors = (
{
name = bottom;
position = "{299.67, 0}";
},
{
name = top;
position = "{355.786, 712}";
}
);
layerId = "CF304C0A-4888-46C0-9BE5-45819D47B95E";
paths = (
{
closed = 1;
nodes = (
"360.524 176.33 LINE SMOOTH",
"515.408 176.33 OFFCURVE",
"594.709 252.097 OFFCURVE",
"594.709 372.767 CURVE SMOOTH",
"594.709 490.301 OFFCURVE",
"517.291 547.67 OFFCURVE",
"382.874 547.67 CURVE SMOOTH",
"159.155 547.67 LINE",
"154.689 508.641 LINE",
"382.854 508.641 LINE SMOOTH",
"490.631 508.641 OFFCURVE",
"549.777 469.126 OFFCURVE",
"549.777 372.699 CURVE SMOOTH",
"549.777 270.155 OFFCURVE",
"491.33 215.592 OFFCURVE",
"359.806 215.592 CURVE SMOOTH",
"130.99 215.592 LINE",
"127.641 176.33 LINE"
);
},
{
closed = 1;
nodes = (
"120.68 0 LINE",
"176.563 712 LINE",
"133.796 712 LINE",
"78.913 0 LINE"
);
}
);
width = 637.80583;
},
{
anchors = (
{
name = bottom;
position = "{326.66, 0}";
},
{
name = top;
position = "{381.427, 712}";
}
);
layerId = "EC690951-C754-4A23-894B-8F4258F2E540";
paths = (
{
closed = 1;
nodes = (
"423.951 149.34 LINE SMOOTH",
"580.184 149.34 OFFCURVE",
"667.583 227.806 OFFCURVE",
"667.583 375.466 CURVE SMOOTH",
"667.583 498.398 OFFCURVE",
"583.417 574.66 OFFCURVE",
"442.252 574.66 CURVE SMOOTH",
"203.689 574.66 LINE",
"204.621 431.718 LINE",
"419.291 431.718 LINE SMOOTH",
"471.738 431.718 OFFCURVE",
"494.447 409.748 OFFCURVE",
"494.447 364.602 CURVE SMOOTH",
"494.447 314.689 OFFCURVE",
"464.34 289.816 OFFCURVE",
"408.388 289.816 CURVE SMOOTH",
"189.019 289.816 LINE",
"189.718 149.34 LINE"
);
},
{
closed = 1;
nodes = (
"228.641 0 LINE",
"285.874 712 LINE",
"101.408 712 LINE",
"45.175 0 LINE"
);
}
);
width = 686.38835;
},
{
anchors = (
{
name = bottom;
position = "{307.243, 0}";
},
{
name = top;
position = "{362.98, 712}";
}
);
layerId = "FCB30AE2-FEFD-4E77-A1D9-4C86342947F4";
paths = (
{
closed = 1;
nodes = (
"378.32 168.757 LINE SMOOTH",
"533.583 168.757 OFFCURVE",
"615.156 245.282 OFFCURVE",
"615.156 373.524 CURVE SMOOTH",
"615.156 492.573 OFFCURVE",
"535.844 555.243 OFFCURVE",
"399.534 555.243 CURVE SMOOTH",
"171.65 555.243 LINE",
"168.699 487.058 LINE",
"393.077 487.058 LINE SMOOTH",
"485.33 487.058 OFFCURVE",
"534.253 452.466 OFFCURVE",
"534.253 370.427 CURVE SMOOTH",
"534.253 282.65 OFFCURVE",
"483.757 236.417 OFFCURVE",
"373.437 236.417 CURVE SMOOTH",
"147.272 236.417 LINE",
"145.058 168.757 LINE"
);
},
{
closed = 1;
nodes = (
"150.971 0 LINE",
"207.233 712 LINE",
"124.709 712 LINE",
"69.447 0 LINE"
);
}
);
width = 651.4369;
}
);
leftKerningGroup = H;
rightKerningGroup = THORN;
unicode = 00DE;
},
{
glyphname = Q;
lastChange = "2019-01-16 15:38:21 +0000";
layers = (
{
anchors = (
{
name = bottom;
position = "{359.903, 0}";
},
{
name = center;
position = "{389.019, 357}";
},
{
name = ogonek;
position = "{465.388, 10}";
},
{
name = top;
position = "{415.019, 712}";
},
{
name = topleft;
position = "{63.466, 712}";
},
{
name = topright;
position = "{444.786, 712}";
}
);
layerId = "CF304C0A-4888-46C0-9BE5-45819D47B95E";
paths = (
{
closed = 1;
nodes = (
"568.932 -153.66 LINE",
"521.049 -110.66 OFFCURVE",
"481.447 -59.777 OFFCURVE",
"450.097 7.223 CURVE",
"401 -4 LINE",
"435 -75 OFFCURVE",
"488.883 -150.932 OFFCURVE",
"535.553 -191 CURVE"
);
},
{
closed = 1;
nodes = (
"574.689 -7.767 OFFCURVE",
"700.175 146.233 OFFCURVE",
"700.175 387.816 CURVE SMOOTH",
"700.175 595.35 OFFCURVE",
"586.155 719.767 OFFCURVE",
"396.369 719.767 CURVE SMOOTH",
"201.35 719.767 OFFCURVE",
"75.864 565.767 OFFCURVE",
"75.864 323.068 CURVE SMOOTH",
"75.864 116.65 OFFCURVE",
"189.883 -7.767 OFFCURVE",
"378.553 -7.767 CURVE SMOOTH"
);
},
{
closed = 1;
nodes = (
"213.544 34.379 OFFCURVE",
"120.631 137.058 OFFCURVE",
"120.631 321.951 CURVE SMOOTH",
"120.631 544.01 OFFCURVE",
"224.893 677.621 OFFCURVE",
"396.136 677.621 CURVE SMOOTH",
"562.728 677.621 OFFCURVE",
"654.291 574.942 OFFCURVE",
"654.291 388.932 CURVE SMOOTH",
"654.291 168.223 OFFCURVE",
"550.262 34.379 OFFCURVE",
"379.786 34.379 CURVE SMOOTH"
);
}
);
width = 759.03883;
},
{
anchors = (
{
name = bottom;
position = "{384.194, 0}";
},
{
name = center;
position = "{411.961, 357}";
},
{
name = ogonek;
position = "{507.223, 10}";
},
{
name = top;
position = "{437.961, 712}";
},
{
name = topleft;
position = "{58.068, 712}";
},
{
name = topright;
position = "{470.427, 712}";
}
);
layerId = "EC690951-C754-4A23-894B-8F4258F2E540";
paths = (
{
closed = 1;
nodes = (
"697.136 -99.68 LINE",
"647.903 -56.68 OFFCURVE",
"592.107 -4.447 OFFCURVE",
"564.806 62.553 CURVE",
"401 -4 LINE",
"435 -75 OFFCURVE",
"490.233 -140.136 OFFCURVE",
"563.893 -191 CURVE"
);
},
{
closed = 1;
nodes = (
"624.621 -10.466 OFFCURVE",
"767.65 143.534 OFFCURVE",
"767.65 378.369 CURVE SMOOTH",
"767.65 591.301 OFFCURVE",
"630.689 722.466 OFFCURVE",
"415.262 722.466 CURVE SMOOTH",
"197.301 722.466 OFFCURVE",
"54.272 568.466 OFFCURVE",
"54.272 333.864 CURVE SMOOTH",
"54.272 120.699 OFFCURVE",
"191.233 -10.466 OFFCURVE",
"406.893 -10.466 CURVE SMOOTH"
);
},
{
closed = 1;
nodes = (
"299.913 134.243 OFFCURVE",
"240.738 205.883 OFFCURVE",
"240.738 334.097 CURVE SMOOTH",
"240.738 485.981 OFFCURVE",
"307.214 577.757 OFFCURVE",
"417.728 577.757 CURVE SMOOTH",
"519.544 577.757 OFFCURVE",
"581.417 506.117 OFFCURVE",
"581.417 378.136 CURVE SMOOTH",
"581.417 223.553 OFFCURVE",
"512.476 134.243 OFFCURVE",
"405.427 134.243 CURVE SMOOTH"
);
}
);
width = 804.92233;
},
{
anchors = (
{
name = bottom;
position = "{366.718, 0}";
},
{
name = center;
position = "{395.456, 357}";
},
{
name = ogonek;
position = "{477.126, 10}";
},
{
name = top;
position = "{421.456, 712}";
},
{
name = topleft;
position = "{61.951, 712}";
},
{
name = topright;
position = "{451.98, 712}";
}
);
layerId = "FCB30AE2-FEFD-4E77-A1D9-4C86342947F4";
paths = (
{
closed = 1;
nodes = (
"604.903 -138.515 LINE",
"556.641 -95.515 OFFCURVE",
"512.495 -44.253 OFFCURVE",
"482.282 22.747 CURVE",
"401 -4 LINE",
"435 -75 OFFCURVE",
"489.262 -147.903 OFFCURVE",
"543.505 -191 CURVE"
);
},
{
closed = 1;
nodes = (
"588.699 -8.524 OFFCURVE",
"719.107 145.476 OFFCURVE",
"719.107 385.165 CURVE SMOOTH",
"719.107 594.214 OFFCURVE",
"598.65 720.524 OFFCURVE",
"401.67 720.524 CURVE SMOOTH",
"200.214 720.524 OFFCURVE",
"69.806 566.524 OFFCURVE",
"69.806 326.097 CURVE SMOOTH",
"69.806 117.786 OFFCURVE",
"190.262 -8.524 OFFCURVE",
"386.505 -8.524 CURVE SMOOTH"
);
},
{
closed = 1;
nodes = (
"237.777 62.398 OFFCURVE",
"154.33 156.369 OFFCURVE",
"154.33 325.359 CURVE SMOOTH",
"154.33 527.728 OFFCURVE",
"247.99 649.602 OFFCURVE",
"402.194 649.602 CURVE SMOOTH",
"550.612 649.602 OFFCURVE",
"633.844 555.631 OFFCURVE",
"633.844 385.903 CURVE SMOOTH",
"633.844 183.747 OFFCURVE",
"539.66 62.398 OFFCURVE",
"386.98 62.398 CURVE SMOOTH"
);
}
);
width = 771.91262;
}
);
leftKerningGroup = O;
rightKerningGroup = O;
unicode = 0051;
userData = {
anchors = (
);
b = {
};
com.typemytype.robofont.layerData = {
b = {
anchors = (
);
components = (
);
contours = (
);
lib = {
};
name = Q;
unicodes = (
);
width = 1597;
};
};
components = (
);
contours = (
);
lib = {
};
name = Q;
unicodes = (
);
width = 1604;
};
},
{
glyphname = R;
lastChange = "2019-01-16 15:38:21 +0000";
layers = (
{
anchors = (
{
name = bottom;
position = "{317.786, 0}";
},
{
name = top;
position = "{373.903, 712}";
}
);
layerId = "CF304C0A-4888-46C0-9BE5-45819D47B95E";
paths = (
{
closed = 1;
nodes = (
"174.379 672.854 LINE",
"404.369 672.854 LINE SMOOTH",
"518.913 672.854 OFFCURVE",
"579.942 627.107 OFFCURVE",
"579.942 532.029 CURVE SMOOTH",
"579.942 418.553 OFFCURVE",
"514.146 364.456 OFFCURVE",
"379.204 364.456 CURVE SMOOTH",
"136.796 364.456 LINE",
"133.262 324.078 LINE",
"350.33 324.078 LINE SMOOTH",
"429.291 324.078 OFFCURVE",
"479.272 309.728 OFFCURVE",
"500.32 237 CURVE SMOOTH",
"571.087 0 LINE",
"613.689 0 LINE",
"546.806 233.447 LINE SMOOTH",
"522.573 318.078 OFFCURVE",
"480.757 342.612 OFFCURVE",
"419.573 342.612 CURVE",
"384.553 330.078 LINE",
"540.408 330.078 OFFCURVE",
"623.524 408.495 OFFCURVE",
"623.524 534.33 CURVE SMOOTH",
"623.524 650.981 OFFCURVE",
"542.99 712 OFFCURVE",
"401.922 712 CURVE SMOOTH",
"133.796 712 LINE",
"78.796 0 LINE",
"120.447 0 LINE"
);
}
);
width = 684.43689;
},
{
anchors = (
{
name = bottom;
position = "{343.427, 0}";
},
{
name = top;
position = "{398.194, 712}";
}
);
layerId = "EC690951-C754-4A23-894B-8F4258F2E540";
paths = (
{
closed = 1;
nodes = (
"274.243 570.291 LINE",
"423.262 570.291 LINE SMOOTH",
"485.175 570.291 OFFCURVE",
"511.117 544.786 OFFCURVE",
"511.117 496.942 CURVE SMOOTH",
"511.117 446.893 OFFCURVE",
"477.709 417.087 OFFCURVE",
"411.592 417.087 CURVE SMOOTH",
"243.408 417.087 LINE",
"234.476 276.845 LINE",
"323.34 276.845 LINE SMOOTH",
"356.417 276.845 OFFCURVE",
"383.456 266.544 OFFCURVE",
"392.359 237 CURVE SMOOTH",
"465.825 0 LINE",
"663.621 0 LINE",
"595.388 205.107 LINE SMOOTH",
"573.854 270.845 OFFCURVE",
"541.485 300.777 OFFCURVE",
"470.854 300.777 CURVE",
"412.893 282.845 LINE",
"605.184 282.845 OFFCURVE",
"686.951 368.01 OFFCURVE",
"686.951 507.34 CURVE SMOOTH",
"686.951 628.039 OFFCURVE",
"601.019 712 OFFCURVE",
"449.155 712 CURVE SMOOTH",
"101.408 712 LINE",
"46.408 0 LINE",
"231.107 0 LINE"
);
}
);
width = 714.12621;
},
{
anchors = (
{
name = bottom;
position = "{324.98, 0}";
},
{
name = top;
position = "{380.718, 712}";
}
);
layerId = "FCB30AE2-FEFD-4E77-A1D9-4C86342947F4";
paths = (
{
closed = 1;
nodes = (
"202.398 644.077 LINE",
"409.67 644.077 LINE SMOOTH",
"509.447 644.077 OFFCURVE",
"560.631 604.01 OFFCURVE",
"560.631 522.184 CURVE SMOOTH",
"560.631 426.505 OFFCURVE",
"503.923 379.223 OFFCURVE",
"388.291 379.223 CURVE SMOOTH",
"166.709 379.223 LINE",
"161.66 310.826 LINE",
"342.757 310.826 LINE SMOOTH",
"408.844 310.826 OFFCURVE",
"452.388 297.612 OFFCURVE",
"470.029 237 CURVE SMOOTH",
"541.553 0 LINE",
"627.699 0 LINE",
"560.437 225.495 LINE SMOOTH",
"536.961 304.826 OFFCURVE",
"497.796 330.874 OFFCURVE",
"433.961 330.874 CURVE",
"392.505 316.826 LINE",
"558.583 316.826 OFFCURVE",
"641.32 397.136 OFFCURVE",
"641.32 526.757 CURVE SMOOTH",
"641.32 644.544 OFFCURVE",
"559.272 712 OFFCURVE",
"415.174 712 CURVE SMOOTH",
"124.709 712 LINE",
"69.709 0 LINE",
"151.495 0 LINE"
);
}
);
width = 692.76699;
}
);
leftKerningGroup = H;
rightKerningGroup = R;
unicode = 0052;
userData = {
anchors = (
);
b = {
};
com.typemytype.robofont.guides = (
);
com.typemytype.robofont.layerData = {
b = {
anchors = (
);
components = (
);
contours = (
{
points = (
{
segmentType = curve;
smooth = 1;
x = 267;
y = 0;
},
{
smooth = 0;
x = 311;
y = 0;
},
{
smooth = 0;
x = 356;
y = 27;
},
{
segmentType = curve;
smooth = 1;
x = 356;
y = 84;
},
{
segmentType = line;
smooth = 0;
x = 356;
y = 628;
},
{
segmentType = line;
smooth = 1;
x = 669;
y = 628;
},
{
smooth = 0;
x = 962;
y = 628;
},
{
smooth = 0;
x = 1182;
y = 722;
},
{
segmentType = curve;
smooth = 1;
x = 1182;
y = 1026;
},
{
smooth = 0;
x = 1182;
y = 1324;
},
{
smooth = 0;
x = 993;
y = 1426;
},
{
segmentType = curve;
smooth = 1;
x = 684;
y = 1426;
},
{
segmentType = line;
smooth = 1;
x = 268;
y = 1426;
},
{
smooth = 0;
x = 217;
y = 1426;
},
{
smooth = 0;
x = 178;
y = 1387;
},
{
segmentType = curve;
smooth = 1;
x = 178;
y = 1339;
},
{
segmentType = line;
smooth = 1;
x = 178;
y = 84;
},
{
smooth = 0;
x = 178;
y = 28;
},
{
smooth = 0;
x = 222;
y = 0;
}
);
},
{
points = (
{
segmentType = line;
smooth = 0;
x = 356;
y = 764;
},
{
segmentType = line;
smooth = 0;
x = 356;
y = 1285;
},
{
segmentType = line;
smooth = 1;
x = 684;
y = 1285;
},
{
smooth = 0;
x = 914;
y = 1285;
},
{
smooth = 0;
x = 1008;
y = 1210;
},
{
segmentType = curve;
smooth = 1;
x = 1008;
y = 1026;
},
{
smooth = 0;
x = 1008;
y = 838;
},
{
smooth = 0;
x = 901;
y = 764;
},
{
segmentType = curve;
smooth = 1;
x = 670;
y = 764;
}
);
}
);
lib = {
};
name = R;
unicodes = (
);
width = 1363;
};
};
components = (
);
contours = (
);
lib = {
};
name = R;
unicodes = (
);
width = 1408;
};
},
{
glyphname = S;
lastChange = "2019-01-16 15:38:21 +0000";
layers = (
{
anchors = (
{
name = bottom;
position = "{288.903, 0}";
},
{
name = top;
position = "{337.621, 712}";
}
);
layerId = "CF304C0A-4888-46C0-9BE5-45819D47B95E";
paths = (
{
closed = 1;
nodes = (
"453.641 -7.883 OFFCURVE",
"551.359 66.534 OFFCURVE",
"551.359 182.204 CURVE SMOOTH",
"551.359 421.204 OFFCURVE",
"130.282 314.893 OFFCURVE",
"130.282 526.282 CURVE SMOOTH",
"130.282 620.825 OFFCURVE",
"200.379 679.854 OFFCURVE",
"334.738 679.854 CURVE SMOOTH",
"418.252 679.854 OFFCURVE",
"490.019 649.272 OFFCURVE",
"555.602 588.757 CURVE",
"579.874 624.369 LINE",
"517.291 686.65 OFFCURVE",
"431.806 719.883 OFFCURVE",
"334.272 719.883 CURVE SMOOTH",
"183.417 719.883 OFFCURVE",
"86.515 644.049 OFFCURVE",
"86.515 526.796 CURVE SMOOTH",
"86.515 270.631 OFFCURVE",
"506.592 374.825 OFFCURVE",
"506.592 182.068 CURVE SMOOTH",
"506.592 89.408 OFFCURVE",
"436.029 32.146 OFFCURVE",
"302.019 32.146 CURVE SMOOTH",
"205.971 32.146 OFFCURVE",
"136.67 58.495 OFFCURVE",
"63.553 123.243 CURVE",
"39.398 87.631 LINE",
"112.165 21.117 OFFCURVE",
"190.485 -7.883 OFFCURVE",
"302.718 -7.883 CURVE SMOOTH"
);
}
);
width = 604.17476;
},
{
anchors = (
{
name = bottom;
position = "{313.194, 0}";
},
{
name = top;
position = "{376.757, 712}";
}
);
layerId = "EC690951-C754-4A23-894B-8F4258F2E540";
paths = (
{
closed = 1;
nodes = (
"515.718 -9.233 OFFCURVE",
"628.282 71.932 OFFCURVE",
"628.282 214.592 CURVE SMOOTH",
"628.282 453.592 OFFCURVE",
"254.437 397.214 OFFCURVE",
"254.437 511.437 CURVE SMOOTH",
"254.437 553.35 OFFCURVE",
"300.243 577.291 OFFCURVE",
"372.524 577.291 CURVE SMOOTH",
"438.495 577.291 OFFCURVE",
"512.961 553.456 OFFCURVE",
"571.796 510.485 CURVE",
"639.252 643.262 LINE",
"583.417 690.699 OFFCURVE",
"480.388 721.233 OFFCURVE",
"377.456 721.233 CURVE SMOOTH",
"190.165 721.233 OFFCURVE",
"68.971 631.903 OFFCURVE",
"68.971 494.408 CURVE SMOOTH",
"68.971 251.738 OFFCURVE",
"441.816 307.35 OFFCURVE",
"441.816 192.864 CURVE SMOOTH",
"441.816 154.184 OFFCURVE",
"400.942 134.709 OFFCURVE",
"324.961 134.709 CURVE SMOOTH",
"241.058 134.709 OFFCURVE",
"163.66 157.01 OFFCURVE",
"91.893 201.515 CURVE",
"23.204 68.738 LINE",
"98.67 19.767 OFFCURVE",
"208.029 -9.233 OFFCURVE",
"317.563 -9.233 CURVE SMOOTH"
);
}
);
width = 671.65049;
},
{
anchors = (
{
name = bottom;
position = "{295.718, 0}";
},
{
name = top;
position = "{348.602, 712}";
}
);
layerId = "FCB30AE2-FEFD-4E77-A1D9-4C86342947F4";
paths = (
{
closed = 1;
nodes = (
"471.058 -8.262 OFFCURVE",
"572.942 68.049 OFFCURVE",
"572.942 191.291 CURVE SMOOTH",
"572.942 430.291 OFFCURVE",
"165.117 337.99 OFFCURVE",
"165.117 522.117 CURVE SMOOTH",
"165.117 601.893 OFFCURVE",
"228.398 651.077 OFFCURVE",
"345.34 651.077 CURVE SMOOTH",
"423.932 651.077 OFFCURVE",
"496.456 622.388 OFFCURVE",
"560.146 566.796 CURVE",
"596.534 629.67 LINE",
"535.844 687.786 OFFCURVE",
"445.437 720.262 OFFCURVE",
"346.388 720.262 CURVE SMOOTH",
"185.31 720.262 OFFCURVE",
"81.593 640.641 OFFCURVE",
"81.593 517.709 CURVE SMOOTH",
"81.593 265.33 OFFCURVE",
"488.417 355.893 OFFCURVE",
"488.417 185.097 CURVE SMOOTH",
"488.417 107.583 OFFCURVE",
"426.184 60.923 OFFCURVE",
"308.456 60.923 CURVE SMOOTH",
"215.816 60.923 OFFCURVE",
"144.243 86.136 OFFCURVE",
"71.505 145.204 CURVE",
"34.854 82.33 LINE",
"108.379 20.738 OFFCURVE",
"195.407 -8.262 OFFCURVE",
"306.883 -8.262 CURVE SMOOTH"
);
}
);
width = 623.1068;
}
);
leftKerningGroup = S;
rightKerningGroup = S;
unicode = 0053;
userData = {
anchors = (
);
b = {
};
com.typemytype.robofont.layerData = {
b = {
anchors = (
);
components = (
);
contours = (
);
lib = {
};
name = S;
unicodes = (
);
width = 1274;
};
};
components = (
);
contours = (
);
lib = {
};
name = S;
unicodes = (
);
width = 1317;
};
},
{
glyphname = Germandbls;
lastChange = "2019-01-16 15:38:21 +0000";
layers = (
{
layerId = "CF304C0A-4888-46C0-9BE5-45819D47B95E";
paths = (
{
closed = 1;
nodes = (
"119.563 0 LINE",
"156.68 459.767 LINE SMOOTH",
"168.029 609.408 OFFCURVE",
"231.66 677.854 OFFCURVE",
"380.835 677.854 CURVE SMOOTH",
"481.68 677.854 OFFCURVE",
"546.01 628.99 OFFCURVE",
"546.01 546.728 CURVE SMOOTH",
"546.01 441.602 OFFCURVE",
"476.165 381.689 OFFCURVE",
"354.99 381.689 CURVE SMOOTH",
"248.359 381.689 LINE",
"243.942 341.66 LINE",
"387.602 341.66 LINE SMOOTH",
"503.165 341.66 OFFCURVE",
"566.194 296.68 OFFCURVE",
"566.194 209.233 CURVE SMOOTH",
"566.194 98.99 OFFCURVE",
"493.883 34.728 OFFCURVE",
"376.709 34.728 CURVE SMOOTH",
"323.194 34.728 OFFCURVE",
"276.194 55.078 OFFCURVE",
"222.612 99.126 CURVE",
"199.641 61.049 LINE",
"244.893 17.816 OFFCURVE",
"310.058 -7.117 OFFCURVE",
"381.942 -7.117 CURVE SMOOTH",
"517.243 -7.117 OFFCURVE",
"609.544 79.417 OFFCURVE",
"609.544 208.466 CURVE SMOOTH",
"609.544 300.883 OFFCURVE",
"556.592 358.534 OFFCURVE",
"456.476 373.767 CURVE",
"444.311 363.117 LINE",
"535.427 381.65 OFFCURVE",
"590.709 449.35 OFFCURVE",
"590.709 547.097 CURVE SMOOTH",
"590.709 654.398 OFFCURVE",
"507.874 719 OFFCURVE",
"381.019 719 CURVE SMOOTH",
"216.35 719 OFFCURVE",
"127.796 638.515 OFFCURVE",
"114.913 472.748 CURVE SMOOTH",
"77.796 0 LINE"
);
}
);
width = 684.38835;
},
{
layerId = "EC690951-C754-4A23-894B-8F4258F2E540";
paths = (
{
closed = 1;
nodes = (
"228.874 0 LINE",
"264.641 462.466 LINE SMOOTH",
"271.942 535.184 OFFCURVE",
"316.68 575.291 OFFCURVE",
"394.33 575.291 CURVE SMOOTH",
"450.641 575.291 OFFCURVE",
"487.981 548.019 OFFCURVE",
"487.981 503.544 CURVE SMOOTH",
"487.981 457.796 OFFCURVE",
"462.67 431.621 OFFCURVE",
"413.019 431.621 CURVE SMOOTH",
"325.282 431.621 LINE",
"314.117 287.68 LINE",
"403.796 287.68 LINE SMOOTH",
"489.67 287.68 OFFCURVE",
"517.612 265.641 OFFCURVE",
"517.612 206.534 CURVE SMOOTH",
"517.612 157.019 OFFCURVE",
"495.233 130.544 OFFCURVE",
"449.583 130.544 CURVE SMOOTH",
"413.612 130.544 OFFCURVE",
"366.612 146.845 OFFCURVE",
"319.777 178.748 CURVE",
"261.718 48.903 LINE",
"327.214 8.369 OFFCURVE",
"378.883 -5.767 OFFCURVE",
"452.117 -5.767 CURVE SMOOTH",
"595.515 -5.767 OFFCURVE",
"695.913 86.165 OFFCURVE",
"695.913 203.068 CURVE SMOOTH",
"695.913 302.233 OFFCURVE",
"630.816 363.932 OFFCURVE",
"532.049 376.466 CURVE",
"533.379 361.767 LINE",
"623.146 385.699 OFFCURVE",
"663.583 445.301 OFFCURVE",
"663.583 522.806 CURVE SMOOTH",
"663.583 638.204 OFFCURVE",
"567.252 719 OFFCURVE",
"403.961 719 CURVE SMOOTH",
"212.301 719 OFFCURVE",
"95.408 620.971 OFFCURVE",
"81.175 452.505 CURVE SMOOTH",
"45.408 0 LINE"
);
}
);
width = 726.2233;
},
{
layerId = "FCB30AE2-FEFD-4E77-A1D9-4C86342947F4";
paths = (
{
closed = 1;
nodes = (
"150.233 0 LINE",
"186.971 460.524 LINE SMOOTH",
"197.184 588.583 OFFCURVE",
"255.515 649.077 OFFCURVE",
"384.621 649.077 CURVE SMOOTH",
"472.971 649.077 OFFCURVE",
"529.728 606.272 OFFCURVE",
"529.728 534.612 CURVE SMOOTH",
"529.728 446.146 OFFCURVE",
"472.379 395.699 OFFCURVE",
"371.272 395.699 CURVE SMOOTH",
"269.942 395.699 LINE",
"263.631 326.515 LINE",
"392.146 326.515 LINE SMOOTH",
"499.379 326.515 OFFCURVE",
"552.563 287.971 OFFCURVE",
"552.563 208.476 CURVE SMOOTH",
"552.563 115.272 OFFCURVE",
"494.262 61.612 OFFCURVE",
"397.156 61.612 CURVE SMOOTH",
"348.563 61.612 OFFCURVE",
"301.563 80.826 OFFCURVE",
"249.874 121.466 CURVE",
"217.058 57.641 LINE",
"267.99 15.165 OFFCURVE",
"329.369 -6.738 OFFCURVE",
"401.631 -6.738 CURVE SMOOTH",
"539.204 -6.738 OFFCURVE",
"633.777 81.31 OFFCURVE",
"633.777 206.951 CURVE SMOOTH",
"633.777 301.262 OFFCURVE",
"577.417 360.049 OFFCURVE",
"477.68 374.524 CURVE",
"469.301 362.738 LINE",
"560.039 382.786 OFFCURVE",
"611.156 448.214 OFFCURVE",
"611.156 540.282 CURVE SMOOTH",
"611.156 649.854 OFFCURVE",
"524.534 719 OFFCURVE",
"387.456 719 CURVE SMOOTH",
"215.214 719 OFFCURVE",
"118.709 633.593 OFFCURVE",
"105.447 467.068 CURVE SMOOTH",
"68.709 0 LINE"
);
}
);
width = 696.12621;
}
);
leftKerningGroup = H;
rightKerningGroup = Germandbls;
unicode = 1E9E;
},
{
glyphname = Schwa;
lastChange = "2019-01-16 15:38:21 +0000";
layers = (
{
anchors = (
{
name = bottom;
position = "{347.67, 0}";
},
{
name = top;
position = "{403.903, 712}";
}
);
layerId = "CF304C0A-4888-46C0-9BE5-45819D47B95E";
paths = (
{
closed = 1;
nodes = (
"552.573 -7.883 OFFCURVE",
"676.825 146.35 OFFCURVE",
"676.825 387.816 CURVE SMOOTH",
"676.825 595.583 OFFCURVE",
"563.922 719.883 OFFCURVE",
"383.718 719.883 CURVE SMOOTH",
"275.252 719.883 OFFCURVE",
"190.417 687.767 OFFCURVE",
"124.301 624.369 CURVE",
"142.738 588.757 LINE",
"210.621 653.738 OFFCURVE",
"291.417 679.204 OFFCURVE",
"374.534 679.087 CURVE SMOOTH",
"539.845 678.971 OFFCURVE",
"630.825 575.058 OFFCURVE",
"630.825 388.932 CURVE SMOOTH",
"630.825 167.524 OFFCURVE",
"527.447 34.379 OFFCURVE",
"353.854 33.262 CURVE SMOOTH",
"179.029 32.146 OFFCURVE",
"107.029 162.272 OFFCURVE",
"121.631 357 CURVE",
"108.01 340.427 LINE",
"656.913 340.427 LINE",
"661.33 382.922 LINE",
"79.631 382.922 LINE",
"76.748 352.136 LINE SMOOTH",
"57.748 146.864 OFFCURVE",
"150.835 -7.883 OFFCURVE",
"346.922 -7.883 CURVE SMOOTH"
);
}
);
width = 735.68932;
},
{
anchors = (
{
name = bottom;
position = "{374.66, 0}";
},
{
name = top;
position = "{428.194, 712}";
}
);
layerId = "EC690951-C754-4A23-894B-8F4258F2E540";
paths = (
{
closed = 1;
nodes = (
"603.854 -9.233 OFFCURVE",
"748.35 142.301 OFFCURVE",
"748.35 378.369 CURVE SMOOTH",
"748.35 588.835 OFFCURVE",
"611.155 721.233 OFFCURVE",
"398.563 721.233 CURVE SMOOTH",
"295.495 721.233 OFFCURVE",
"197.165 690.466 OFFCURVE",
"132.398 643.262 CURVE",
"180.524 510.485 LINE",
"249.757 552.524 OFFCURVE",
"298.165 572.592 OFFCURVE",
"379.932 573.825 CURVE SMOOTH",
"495.311 575.058 OFFCURVE",
"563.35 504.883 OFFCURVE",
"563.35 378.136 CURVE SMOOTH",
"563.35 230.951 OFFCURVE",
"499.107 134.243 OFFCURVE",
"390.291 134.476 CURVE SMOOTH",
"282.942 134.709 OFFCURVE",
"210.942 205.456 OFFCURVE",
"241.738 357 CURVE",
"188.981 289.146 LINE",
"623.175 289.146 LINE",
"634.34 430.155 LINE",
"60.738 430.155 LINE",
"56.505 373.728 LINE SMOOTH",
"37.505 125.272 OFFCURVE",
"164.33 -9.233 OFFCURVE",
"394.155 -9.233 CURVE SMOOTH"
);
}
);
width = 785.62136;
},
{
anchors = (
{
name = bottom;
position = "{355.243, 0}";
},
{
name = top;
position = "{410.718, 712}";
}
);
layerId = "FCB30AE2-FEFD-4E77-A1D9-4C86342947F4";
paths = (
{
closed = 1;
nodes = (
"566.961 -8.262 OFFCURVE",
"696.893 145.214 OFFCURVE",
"696.893 385.165 CURVE SMOOTH",
"696.893 593.69 OFFCURVE",
"577.174 720.262 OFFCURVE",
"387.883 720.262 CURVE SMOOTH",
"280.932 720.262 OFFCURVE",
"192.31 688.524 OFFCURVE",
"126.573 629.67 CURVE",
"153.34 566.796 LINE",
"221.602 625.34 OFFCURVE",
"293.31 649.291 OFFCURVE",
"376.049 649.553 CURVE SMOOTH",
"527.35 649.816 OFFCURVE",
"611.893 555.369 OFFCURVE",
"611.893 385.903 CURVE SMOOTH",
"611.893 185.32 OFFCURVE",
"519.495 62.398 OFFCURVE",
"364.077 61.66 CURVE SMOOTH",
"208.184 60.923 OFFCURVE",
"136.184 174.388 OFFCURVE",
"155.33 357 CURVE",
"130.728 326.039 LINE",
"647.447 326.039 LINE",
"653.757 396.174 LINE",
"74.33 396.174 LINE",
"71.068 358.194 LINE SMOOTH",
"52.068 140.806 OFFCURVE",
"154.621 -8.262 OFFCURVE",
"360.174 -8.262 CURVE SMOOTH"
);
}
);
width = 749.69903;
}
);
leftKerningGroup = O;
rightKerningGroup = O;
unicode = 018F;
},
{
glyphname = T;
lastChange = "2019-01-16 15:38:21 +0000";
layers = (
{
anchors = (
{
name = bottom;
position = "{275.903, 0}";
},
{
name = center;
position = "{303.903, 357}";
},
{
name = top;
position = "{330.903, 712}";
}
);
layerId = "CF304C0A-4888-46C0-9BE5-45819D47B95E";
paths = (
{
closed = 1;
nodes = (
"296.495 0 LINE",
"350.427 673.786 LINE",
"611.621 673.786 LINE",
"614.922 712 LINE",
"49.117 712 LINE",
"45.816 673.786 LINE",
"308.01 673.786 LINE",
"254.194 0 LINE"
);
}
);
width = 589.80583;
},
{
anchors = (
{
name = bottom;
position = "{300.194, 0}";
},
{
name = center;
position = "{328.194, 357}";
},
{
name = top;
position = "{355.194, 712}";
}
);
layerId = "EC690951-C754-4A23-894B-8F4258F2E540";
paths = (
{
closed = 1;
nodes = (
"395.01 0 LINE",
"438.146 560.427 LINE",
"650.757 560.427 LINE",
"662.155 712 LINE",
"47.767 712 LINE",
"36.369 560.427 LINE",
"249.981 560.427 LINE",
"205.612 0 LINE"
);
}
);
width = 638.38835;
},
{
anchors = (
{
name = bottom;
position = "{282.718, 0}";
},
{
name = center;
position = "{310.718, 357}";
},
{
name = top;
position = "{337.718, 712}";
}
);
layerId = "FCB30AE2-FEFD-4E77-A1D9-4C86342947F4";
paths = (
{
closed = 1;
nodes = (
"324.136 0 LINE",
"375.039 641.98 LINE",
"622.602 641.98 LINE",
"628.174 712 LINE",
"48.738 712 LINE",
"43.165 641.98 LINE",
"291.728 641.98 LINE",
"240.563 0 LINE"
);
}
);
width = 603.4369;
}
);
leftKerningGroup = T;
rightKerningGroup = T;
unicode = 0054;
userData = {
anchors = (
);
b = {
};
com.typemytype.robofont.layerData = {
b = {
anchors = (
);
components = (
);
contours = (
{
points = (
{
segmentType = curve;
smooth = 1;
x = 581;
y = 0;
},
{
segmentType = line;
smooth = 1;
x = 1350;
y = 0;
},
{
smooth = 0;
x = 1399;
y = 0;
},
{
smooth = 0;
x = 1423;
y = 34;
},
{
segmentType = curve;
smooth = 1;
x = 1423;
y = 71;
},
{
smooth = 0;
x = 1423;
y = 107;
},
{
smooth = 0;
x = 1399;
y = 141;
},
{
segmentType = curve;
smooth = 1;
x = 1350;
y = 141;
},
{
segmentType = line;
smooth = 0;
x = 671;
y = 141;
},
{
segmentType = line;
smooth = 0;
x = 671;
y = 665;
},
{
segmentType = line;
smooth = 1;
x = 1290;
y = 665;
},
{
smooth = 0;
x = 1339;
y = 665;
},
{
smooth = 0;
x = 1364;
y = 698;
},
{
segmentType = curve;
smooth = 1;
x = 1364;
y = 734;
},
{
smooth = 0;
x = 1364;
y = 770;
},
{
smooth = 0;
x = 1341;
y = 803;
},
{
segmentType = curve;
smooth = 1;
x = 1290;
y = 803;
},
{
segmentType = line;
smooth = 0;
x = 671;
y = 803;
},
{
segmentType = line;
smooth = 0;
x = 671;
y = 1285;
},
{
segmentType = line;
smooth = 1;
x = 1322;
y = 1285;
},
{
smooth = 0;
x = 1371;
y = 1285;
},
{
smooth = 0;
x = 1395;
y = 1319;
},
{
segmentType = curve;
smooth = 1;
x = 1395;
y = 1356;
},
{
smooth = 0;
x = 1395;
y = 1392;
},
{
smooth = 0;
x = 1371;
y = 1426;
},
{
segmentType = curve;
smooth = 1;
x = 1322;
y = 1426;
},
{
segmentType = line;
smooth = 1;
x = 576;
y = 1426;
},
{
smooth = 0;
x = 528;
y = 1426;
},
{
smooth = 0;
x = 493;
y = 1383;
},
{
segmentType = curve;
smooth = 1;
x = 493;
y = 1340;
},
{
segmentType = line;
smooth = 1;
x = 493;
y = 86;
},
{
smooth = 0;
x = 493;
y = 41;
},
{
smooth = 0;
x = 537;
y = 0;
}
);
}
);
lib = {
};
name = T;
unicodes = (
);
width = 1158;
};
};
components = (
);
contours = (
);
lib = {
};
name = T;
unicodes = (
);
width = 1199;
};
},
{
glyphname = Tbar;
lastChange = "2019-01-16 15:38:21 +0000";
layers = (
{
layerId = "CF304C0A-4888-46C0-9BE5-45819D47B95E";
paths = (
{
closed = 1;
nodes = (
"471.126 342.66 LINE",
"474.427 380.806 LINE",
"136.68 380.806 LINE",
"133.379 342.66 LINE"
);
},
{
closed = 1;
nodes = (
"296.495 0 LINE",
"350.427 673.786 LINE",
"611.621 673.786 LINE",
"614.922 712 LINE",
"49.117 712 LINE",
"45.816 673.786 LINE",
"308.01 673.786 LINE",
"254.194 0 LINE"
);
}
);
width = 589.80583;
},
{
layerId = "EC690951-C754-4A23-894B-8F4258F2E540";
paths = (
{
closed = 1;
nodes = (
"550.748 288.68 LINE",
"562.146 429.388 LINE",
"105.641 429.388 LINE",
"94.243 288.68 LINE"
);
},
{
closed = 1;
nodes = (
"395.01 0 LINE",
"438.146 560.427 LINE",
"650.757 560.427 LINE",
"662.155 712 LINE",
"47.767 712 LINE",
"36.369 560.427 LINE",
"249.981 560.427 LINE",
"205.612 0 LINE"
);
}
);
width = 638.38835;
},
{
layerId = "FCB30AE2-FEFD-4E77-A1D9-4C86342947F4";
paths = (
{
closed = 1;
nodes = (
"493.466 327.515 LINE",
"499.039 394.437 LINE",
"127.971 394.437 LINE",
"122.398 327.515 LINE"
);
},
{
closed = 1;
nodes = (
"324.136 0 LINE",
"375.039 641.98 LINE",
"622.602 641.98 LINE",
"628.174 712 LINE",
"48.738 712 LINE",
"43.165 641.98 LINE",
"291.728 641.98 LINE",
"240.563 0 LINE"
);
}
);
width = 603.4369;
}
);
leftKerningGroup = T;
rightKerningGroup = T;
unicode = 0166;
userData = {
com.typemytype.robofont.layerData = {
b = {
anchors = (
);
components = (
);
contours = (
);
lib = {
};
name = Tbar;
unicodes = (
);
width = 1158;
};
};
};
},
{
glyphname = U;
lastChange = "2019-01-16 15:38:21 +0000";
layers = (
{
anchors = (
{
name = bottom;
position = "{341.602, 0}";
},
{
name = ogonek;
position = "{455.553, 10}";
},
{
name = top;
position = "{397.718, 712}";
},
{
name = topright;
position = "{645.816, 712}";
}
);
layerId = "CF304C0A-4888-46C0-9BE5-45819D47B95E";
paths = (
{
closed = 1;
nodes = (
"518.34 -7.883 OFFCURVE",
"617.524 83.068 OFFCURVE",
"632.524 270.903 CURVE SMOOTH",
"667.757 712 LINE",
"624.874 712 LINE",
"590.99 264.369 LINE SMOOTH",
"579.874 109.874 OFFCURVE",
"497.961 33.262 OFFCURVE",
"342.388 33.262 CURVE SMOOTH",
"193.311 33.262 OFFCURVE",
"122.981 113.359 OFFCURVE",
"135.214 273.204 CURVE SMOOTH",
"170.447 712 LINE",
"127.68 712 LINE",
"93.447 269.272 LINE SMOOTH",
"79.68 94.767 OFFCURVE",
"162.816 -7.883 OFFCURVE",
"343.32 -7.883 CURVE SMOOTH"
);
}
);
width = 722.43689;
},
{
anchors = (
{
name = bottom;
position = "{357.796, 0}";
},
{
name = ogonek;
position = "{483.893, 10}";
},
{
name = top;
position = "{412.563, 712}";
},
{
name = topright;
position = "{636.369, 712}";
}
);
layerId = "EC690951-C754-4A23-894B-8F4258F2E540";
paths = (
{
closed = 1;
nodes = (
"572.32 -9.233 OFFCURVE",
"680.951 93.864 OFFCURVE",
"695.951 295.194 CURVE SMOOTH",
"728.485 712 LINE",
"545.252 712 LINE",
"510.019 283.262 LINE SMOOTH",
"500.252 169.252 OFFCURVE",
"452.078 134.476 OFFCURVE",
"384.223 134.476 CURVE SMOOTH",
"282.379 134.476 OFFCURVE",
"239.039 190.282 OFFCURVE",
"248.573 305.592 CURVE SMOOTH",
"281.107 712 LINE",
"96.641 712 LINE",
"65.107 312.456 LINE SMOOTH",
"48.641 97.466 OFFCURVE",
"153.369 -9.233 OFFCURVE",
"374.359 -9.233 CURVE SMOOTH"
);
}
);
width = 752.12621;
},
{
anchors = (
{
name = bottom;
position = "{346.146, 0}";
},
{
name = ogonek;
position = "{463.505, 10}";
},
{
name = top;
position = "{401.883, 712}";
},
{
name = topright;
position = "{643.165, 712}";
}
);
layerId = "FCB30AE2-FEFD-4E77-A1D9-4C86342947F4";
paths = (
{
closed = 1;
nodes = (
"533.485 -8.262 OFFCURVE",
"635.32 86.097 OFFCURVE",
"650.32 277.718 CURVE SMOOTH",
"684.796 712 LINE",
"602.534 712 LINE",
"568.272 269.67 LINE SMOOTH",
"557.534 126.534 OFFCURVE",
"485.087 61.66 OFFCURVE",
"354.126 61.66 CURVE SMOOTH",
"218.301 61.66 OFFCURVE",
"155.544 134.942 OFFCURVE",
"167.02 282.291 CURVE SMOOTH",
"201.495 712 LINE",
"118.971 712 LINE",
"85.495 281.388 LINE SMOOTH",
"70.971 95.524 OFFCURVE",
"160.165 -8.262 OFFCURVE",
"352.029 -8.262 CURVE SMOOTH"
);
}
);
width = 730.76699;
}
);
leftKerningGroup = U;
rightKerningGroup = U;
unicode = 0055;
userData = {
anchors = (
);
b = {
};
com.typemytype.robofont.layerData = {
b = {
anchors = (
);
components = (
);
contours = (
);
lib = {
};
name = U;
unicodes = (
);
width = 1490;
};
};
components = (
);
contours = (
);
lib = {
};
name = U;
unicodes = (
);
width = 1513;
};
},
{
glyphname = Uhorn;
lastChange = "2019-01-16 15:38:21 +0000";
layers = (
{
anchors = (
{
name = bottom;
position = "{341.602, 0}";
},
{
name = top;
position = "{397.718, 712}";
}
);
layerId = "CF304C0A-4888-46C0-9BE5-45819D47B95E";
paths = (
{
closed = 1;
nodes = (
"756.476 827.398 LINE SMOOTH",
"750.359 745.816 OFFCURVE",
"716.544 713.117 OFFCURVE",
"637.379 712 CURVE SMOOTH",
"624.874 712 LINE",
"590.99 264.369 LINE SMOOTH",
"579.874 109.874 OFFCURVE",
"497.961 33.262 OFFCURVE",
"342.388 33.262 CURVE SMOOTH",
"193.311 33.262 OFFCURVE",
"122.981 113.359 OFFCURVE",
"135.214 273.204 CURVE SMOOTH",
"170.447 712 LINE",
"127.68 712 LINE",
"93.447 269.272 LINE SMOOTH",
"79.68 94.767 OFFCURVE",
"162.816 -7.883 OFFCURVE",
"343.32 -7.883 CURVE SMOOTH",
"518.34 -7.883 OFFCURVE",
"617.641 83.068 OFFCURVE",
"632.524 270.903 CURVE SMOOTH",
"666.874 699.981 LINE",
"627.408 673.845 LINE",
"727.99 674.379 OFFCURVE",
"789.689 724.981 OFFCURVE",
"797.806 819.563 CURVE SMOOTH",
"798.573 839.583 LINE",
"757.359 839.583 LINE"
);
}
);
width = 722.43689;
},
{
anchors = (
{
name = bottom;
position = "{357.796, 0}";
},
{
name = top;
position = "{412.563, 712}";
}
);
layerId = "EC690951-C754-4A23-894B-8F4258F2E540";
paths = (
{
closed = 1;
nodes = (
"693.049 811.204 LINE SMOOTH",
"688.282 736.369 OFFCURVE",
"663.913 711.767 OFFCURVE",
"598.243 712 CURVE SMOOTH",
"545.252 712 LINE",
"510.019 283.262 LINE SMOOTH",
"500.252 169.252 OFFCURVE",
"452.078 134.476 OFFCURVE",
"384.223 134.476 CURVE SMOOTH",
"282.379 134.476 OFFCURVE",
"239.039 190.282 OFFCURVE",
"248.573 305.592 CURVE SMOOTH",
"281.107 712 LINE",
"96.641 712 LINE",
"65.107 312.456 LINE SMOOTH",
"48.641 97.466 OFFCURVE",
"153.369 -9.233 OFFCURVE",
"374.359 -9.233 CURVE SMOOTH",
"572.32 -9.233 OFFCURVE",
"679.718 93.864 OFFCURVE",
"695.951 295.194 CURVE SMOOTH",
"726.252 677.039 LINE",
"692.184 629.311 LINE",
"786.019 635.243 OFFCURVE",
"839.621 702.039 OFFCURVE",
"846.388 789.874 CURVE SMOOTH",
"849.854 832.835 LINE",
"695.282 832.835 LINE"
);
}
);
width = 752.12621;
},
{
anchors = (
{
name = bottom;
position = "{346.146, 0}";
},
{
name = top;
position = "{401.883, 712}";
}
);
layerId = "FCB30AE2-FEFD-4E77-A1D9-4C86342947F4";
paths = (
{
closed = 1;
nodes = (
"738.68 822.854 LINE SMOOTH",
"732.942 743.165 OFFCURVE",
"701.777 712.738 OFFCURVE",
"626.398 712 CURVE SMOOTH",
"602.534 712 LINE",
"568.272 269.67 LINE SMOOTH",
"557.534 126.534 OFFCURVE",
"485.087 61.66 OFFCURVE",
"354.126 61.66 CURVE SMOOTH",
"218.301 61.66 OFFCURVE",
"155.544 134.942 OFFCURVE",
"167.02 282.291 CURVE SMOOTH",
"201.495 712 LINE",
"118.971 712 LINE",
"85.495 281.388 LINE SMOOTH",
"70.971 95.524 OFFCURVE",
"160.165 -8.262 OFFCURVE",
"352.029 -8.262 CURVE SMOOTH",
"533.485 -8.262 OFFCURVE",
"635.058 86.097 OFFCURVE",
"650.32 277.718 CURVE SMOOTH",
"683.534 693.544 LINE",
"645.583 661.35 LINE",
"744.272 663.398 OFFCURVE",
"803.699 718.544 OFFCURVE",
"811.437 811.233 CURVE SMOOTH",
"812.961 837.69 LINE",
"739.942 837.69 LINE"
);
}
);
width = 730.76699;
}
);
leftKerningGroup = U;
rightKerningGroup = Uhorn;
unicode = 01AF;
},
{
glyphname = Uogonek;
lastChange = "2019-01-16 15:38:21 +0000";
layers = (
{
layerId = "CF304C0A-4888-46C0-9BE5-45819D47B95E";
paths = (
{
closed = 1;
nodes = (
"590.99 264.369 LINE SMOOTH",
"579.874 109.874 OFFCURVE",
"497.961 33.262 OFFCURVE",
"342.388 33.262 CURVE SMOOTH",
"193.311 33.262 OFFCURVE",
"122.981 113.359 OFFCURVE",
"135.214 273.204 CURVE SMOOTH",
"170.447 712 LINE",
"127.68 712 LINE",
"93.447 269.272 LINE SMOOTH",
"79.68 94.767 OFFCURVE",
"162.816 -7.883 OFFCURVE",
"339.437 -7.883 CURVE SMOOTH",
"398.33 -7.883 LINE",
"388.097 11 LINE",
"337.864 -8.767 OFFCURVE",
"306.583 -37.602 OFFCURVE",
"306.583 -96.466 CURVE SMOOTH",
"306.583 -153.883 OFFCURVE",
"346.65 -192.301 OFFCURVE",
"412.252 -192.301 CURVE SMOOTH",
"443.019 -192.301 OFFCURVE",
"475.019 -180.835 OFFCURVE",
"491.505 -168.951 CURVE",
"478.272 -132.796 LINE",
"456.272 -146.379 OFFCURVE",
"431.573 -152.612 OFFCURVE",
"415.689 -152.612 CURVE SMOOTH",
"375.99 -152.612 OFFCURVE",
"352.757 -131.262 OFFCURVE",
"352.757 -89.214 CURVE SMOOTH",
"352.757 -40.932 OFFCURVE",
"384.34 -13.35 OFFCURVE",
"448.903 5.583 CURVE SMOOTH",
"557.99 36.117 OFFCURVE",
"621.641 124.951 OFFCURVE",
"632.524 270.903 CURVE SMOOTH",
"667.757 712 LINE",
"624.874 712 LINE"
);
}
);
width = 722.43689;
},
{
layerId = "EC690951-C754-4A23-894B-8F4258F2E540";
paths = (
{
closed = 1;
nodes = (
"510.019 283.262 LINE SMOOTH",
"500.252 169.252 OFFCURVE",
"452.078 134.476 OFFCURVE",
"384.223 134.476 CURVE SMOOTH",
"282.379 134.476 OFFCURVE",
"239.039 190.282 OFFCURVE",
"248.573 305.592 CURVE SMOOTH",
"281.107 712 LINE",
"96.641 712 LINE",
"65.107 312.456 LINE SMOOTH",
"48.641 97.466 OFFCURVE",
"153.369 -9.233 OFFCURVE",
"369.126 -9.233 CURVE SMOOTH",
"371.34 -9.233 LINE",
"363.806 11 LINE",
"316.272 -11.466 OFFCURVE",
"299.835 -53.796 OFFCURVE",
"299.835 -91.068 CURVE SMOOTH",
"299.835 -155.233 OFFCURVE",
"350.699 -200.398 OFFCURVE",
"432.495 -200.398 CURVE SMOOTH",
"465.961 -200.398 OFFCURVE",
"497.961 -194.33 OFFCURVE",
"531.99 -181.097 CURVE",
"521.456 -100.408 LINE",
"499.456 -107.243 OFFCURVE",
"482.854 -110.777 OFFCURVE",
"465.621 -110.777 CURVE SMOOTH",
"434.019 -110.777 OFFCURVE",
"413.485 -93.476 OFFCURVE",
"413.485 -63.573 CURVE SMOOTH",
"413.485 -30.136 OFFCURVE",
"438.32 -9.301 OFFCURVE",
"473.194 -1.165 CURVE SMOOTH",
"616.019 34.767 OFFCURVE",
"683.718 137.097 OFFCURVE",
"695.951 295.194 CURVE SMOOTH",
"728.485 712 LINE",
"545.252 712 LINE"
);
}
);
width = 752.12621;
},
{
layerId = "FCB30AE2-FEFD-4E77-A1D9-4C86342947F4";
paths = (
{
closed = 1;
nodes = (
"568.272 269.67 LINE SMOOTH",
"557.534 126.534 OFFCURVE",
"485.087 61.66 OFFCURVE",
"354.126 61.66 CURVE SMOOTH",
"218.301 61.66 OFFCURVE",
"155.544 134.942 OFFCURVE",
"167.02 282.291 CURVE SMOOTH",
"201.495 712 LINE",
"118.971 712 LINE",
"85.495 281.388 LINE SMOOTH",
"70.971 95.524 OFFCURVE",
"160.165 -8.262 OFFCURVE",
"347.767 -8.262 CURVE SMOOTH",
"390.757 -8.262 LINE",
"381.282 11 LINE",
"331.806 -9.524 OFFCURVE",
"304.69 -42.146 OFFCURVE",
"304.69 -94.951 CURVE SMOOTH",
"304.69 -154.262 OFFCURVE",
"347.786 -194.573 OFFCURVE",
"417.932 -194.573 CURVE SMOOTH",
"449.456 -194.573 OFFCURVE",
"481.456 -184.621 OFFCURVE",
"502.864 -172.359 CURVE",
"490.388 -123.709 LINE",
"468.388 -135.398 OFFCURVE",
"445.961 -140.874 OFFCURVE",
"429.699 -140.874 CURVE SMOOTH",
"392.272 -140.874 OFFCURVE",
"369.796 -120.66 OFFCURVE",
"369.796 -82.02 CURVE SMOOTH",
"369.796 -37.903 OFFCURVE",
"399.485 -12.214 OFFCURVE",
"455.718 3.69 CURVE SMOOTH",
"574.272 35.738 OFFCURVE",
"639.058 128.359 OFFCURVE",
"650.32 277.718 CURVE SMOOTH",
"684.796 712 LINE",
"602.534 712 LINE"
);
}
);
width = 730.76699;
}
);
leftKerningGroup = U;
rightKerningGroup = U;
unicode = 0172;
},
{
glyphname = V;
lastChange = "2019-01-16 15:38:21 +0000";
layers = (
{
anchors = (
{
name = bottom;
position = "{319.854, 0}";
},
{
name = top;
position = "{374.854, 712}";
}
);
layerId = "CF304C0A-4888-46C0-9BE5-45819D47B95E";
paths = (
{
closed = 1;
nodes = (
"339.078 0 LINE",
"701.563 712 LINE",
"656.146 712 LINE",
"307.621 24.068 LINE",
"332.291 24.068 LINE",
"91.981 712 LINE",
"48.029 712 LINE",
"298.398 0 LINE"
);
}
);
width = 676.59223;
},
{
anchors = (
{
name = bottom;
position = "{356.291, 0}";
},
{
name = top;
position = "{411.291, 712}";
}
);
layerId = "EC690951-C754-4A23-894B-8F4258F2E540";
paths = (
{
closed = 1;
nodes = (
"430.845 0 LINE",
"810.874 712 LINE",
"619.709 712 LINE",
"346.757 173.864 LINE",
"398.417 173.864 LINE",
"208.039 712 LINE",
"12.942 712 LINE",
"282.204 0 LINE"
);
}
);
width = 750.81553;
},
{
anchors = (
{
name = bottom;
position = "{330.077, 0}";
},
{
name = top;
position = "{385.077, 712}";
}
);
layerId = "FCB30AE2-FEFD-4E77-A1D9-4C86342947F4";
paths = (
{
closed = 1;
nodes = (
"364.826 0 LINE",
"732.233 712 LINE",
"645.923 712 LINE",
"318.602 66.097 LINE",
"350.844 66.097 LINE",
"124.544 712 LINE",
"38.184 712 LINE",
"293.854 0 LINE"
);
}
);
width = 697.41747;
}
);
leftKerningGroup = V;
rightKerningGroup = V;
unicode = 0056;
userData = {
anchors = (
);
b = {
};
com.typemytype.robofont.guides = (
);
com.typemytype.robofont.layerData = {
b = {
anchors = (
);
components = (
);
contours = (
{
points = (
{
segmentType = curve;
smooth = 1;
x = 644;
y = "-5";
},
{
smooth = 0;
x = 712;
y = "-5";
},
{
smooth = 0;
x = 764;
y = 38;
},
{
segmentType = curve;
smooth = 1;
x = 793;
y = 117;
},
{
segmentType = line;
smooth = 1;
x = 1243;
y = 1324;
},
{
smooth = 0;
x = 1247;
y = 1335;
},
{
smooth = 0;
x = 1248;
y = 1342;
},
{
segmentType = curve;
smooth = 1;
x = 1248;
y = 1351;
},
{
smooth = 0;
x = 1248;
y = 1395;
},
{
smooth = 0;
x = 1203;
y = 1427;
},
{
segmentType = curve;
smooth = 1;
x = 1160;
y = 1427;
},
{
smooth = 0;
x = 1125;
y = 1427;
},
{
smooth = 0;
x = 1090;
y = 1408;
},
{
segmentType = curve;
smooth = 1;
x = 1076;
y = 1369;
},
{
segmentType = line;
smooth = 0;
x = 651;
y = 192;
},
{
segmentType = line;
smooth = 0;
x = 650;
y = 190;
},
{
segmentType = line;
smooth = 1;
x = 214;
y = 1370;
},
{
smooth = 0;
x = 200;
y = 1407;
},
{
smooth = 0;
x = 170;
y = 1427;
},
{
segmentType = curve;
smooth = 1;
x = 135;
y = 1427;
},
{
smooth = 0;
x = 90;
y = 1427;
},
{
smooth = 0;
x = 43;
y = 1392;
},
{
segmentType = curve;
smooth = 1;
x = 43;
y = 1344;
},
{
smooth = 0;
x = 43;
y = 1336;
},
{
smooth = 0;
x = 44;
y = 1326;
},
{
segmentType = curve;
smooth = 0;
x = 48;
y = 1318;
},
{
segmentType = line;
smooth = 1;
x = 501;
y = 117;
},
{
smooth = 0;
x = 532;
y = 35;
},
{
smooth = 0;
x = 581;
y = "-5";
}
);
}
);
lib = {
};
name = V;
unicodes = (
);
width = 1289;
};
};
components = (
);
contours = (
);
lib = {
};
name = V;
unicodes = (
);
width = 1365;
};
},
{
glyphname = W;
lastChange = "2019-01-16 15:38:21 +0000";
layers = (
{
anchors = (
{
name = bottom;
position = "{532.835, 0}";
},
{
name = top;
position = "{587.718, 712}";
}
);
layerId = "CF304C0A-4888-46C0-9BE5-45819D47B95E";
paths = (
{
closed = 1;
nodes = (
"308.427 0 LINE",
"596.117 673.408 LINE",
"575.466 673.408 LINE",
"756.126 0 LINE",
"795.689 0 LINE",
"1097.99 712 LINE",
"1054.641 712 LINE",
"761.767 19.388 LINE",
"791.184 19.388 LINE",
"606.291 710.883 LINE",
"570.447 712 LINE",
"276.039 19.388 LINE",
"303.641 19.388 LINE",
"119.864 712 LINE",
"78.563 712 LINE",
"270.097 0 LINE"
);
}
);
width = 1103.5534;
},
{
anchors = (
{
name = bottom;
position = "{546.33, 0}";
},
{
name = top;
position = "{602.563, 712}";
}
);
layerId = "EC690951-C754-4A23-894B-8F4258F2E540";
paths = (
{
closed = 1;
nodes = (
"396.146 0 LINE",
"594.767 460.184 LINE",
"570.068 460.184 LINE",
"696.748 0 LINE",
"845.621 0 LINE",
"1156.019 712 LINE",
"977.718 712 LINE",
"764.466 200.223 LINE",
"800.631 200.223 LINE",
"672.417 712.233 LINE",
"542.107 712 LINE",
"321.922 200.223 LINE",
"365.718 200.223 LINE",
"237.272 712 LINE",
"48.874 712 LINE",
"245.806 0 LINE"
);
}
);
width = 1131.8932;
},
{
anchors = (
{
name = bottom;
position = "{536.621, 0}";
},
{
name = top;
position = "{591.883, 712}";
}
);
layerId = "FCB30AE2-FEFD-4E77-A1D9-4C86342947F4";
paths = (
{
closed = 1;
nodes = (
"333.039 0 LINE",
"595.738 613.583 LINE",
"573.951 613.583 LINE",
"739.466 0 LINE",
"809.699 0 LINE",
"1114.272 712 LINE",
"1033.058 712 LINE",
"762.524 70.126 LINE",
"793.835 70.126 LINE",
"624.844 711.262 LINE",
"562.495 712 LINE",
"288.913 70.126 LINE",
"321.058 70.126 LINE",
"152.806 712 LINE",
"70.233 712 LINE",
"263.282 0 LINE"
);
}
);
width = 1111.50485;
}
);
leftKerningGroup = V;
rightKerningGroup = V;
unicode = 0057;
userData = {
anchors = (
);
b = {
};
com.typemytype.robofont.layerData = {
b = {
anchors = (
);
components = (
);
contours = (
);
lib = {
};
name = W;
unicodes = (
);
width = 2126;
};
};
components = (
);
contours = (
);
lib = {
};
name = W;
unicodes = (
);
width = 2070;
};
},
{
glyphname = X;
lastChange = "2019-01-16 15:38:21 +0000";
layers = (
{
anchors = (
{
name = bottom;
position = "{299.553, 0}";
},
{
name = top;
position = "{355.67, 712}";
}
);
layerId = "CF304C0A-4888-46C0-9BE5-45819D47B95E";
paths = (
{
closed = 1;
nodes = (
"326.369 332.903 LINE",
"352.796 365.699 LINE",
"633.398 712 LINE",
"582.078 712 LINE",
"329.971 399.262 LINE",
"303.544 367.466 LINE",
"4.777 0 LINE",
"56.214 0 LINE"
);
},
{
closed = 1;
nodes = (
"593.33 0 LINE",
"352.796 365.699 LINE",
"329.971 399.262 LINE",
"126.612 712 LINE",
"76.825 712 LINE",
"303.544 367.466 LINE",
"326.369 332.903 LINE",
"542.427 0 LINE"
);
}
);
width = 635.99029;
},
{
anchors = (
{
name = bottom;
position = "{327.893, 0}";
},
{
name = top;
position = "{382.66, 712}";
}
);
layerId = "EC690951-C754-4A23-894B-8F4258F2E540";
paths = (
{
closed = 1;
nodes = (
"345.262 218.194 LINE",
"459.408 357.602 LINE",
"756.204 712 LINE",
"534.845 712 LINE",
"365.058 500.476 LINE",
"250.913 362.068 LINE",
"-50.553 0 LINE",
"169.573 0 LINE"
);
},
{
closed = 1;
nodes = (
"705.34 0 LINE",
"459.408 357.602 LINE",
"365.058 500.476 LINE",
"223.777 712 LINE",
"9.35 712 LINE",
"250.913 362.068 LINE",
"345.262 218.194 LINE",
"491.146 0 LINE"
);
}
);
width = 694.01942;
},
{
anchors = (
{
name = bottom;
position = "{307.505, 0}";
},
{
name = top;
position = "{363.243, 712}";
}
);
layerId = "FCB30AE2-FEFD-4E77-A1D9-4C86342947F4";
paths = (
{
closed = 1;
nodes = (
"331.67 300.718 LINE",
"382.709 363.427 LINE",
"667.854 712 LINE",
"568.826 712 LINE",
"339.816 427.66 LINE",
"288.777 365.951 LINE",
"-10.747 0 LINE",
"88.02 0 LINE"
);
},
{
closed = 1;
nodes = (
"624.757 0 LINE",
"382.709 363.427 LINE",
"339.816 427.66 LINE",
"153.874 712 LINE",
"57.893 712 LINE",
"288.777 365.951 LINE",
"331.67 300.718 LINE",
"528.039 0 LINE"
);
}
);
width = 652.27184;
}
);
leftKerningGroup = X;
rightKerningGroup = X;
unicode = 0058;
userData = {
anchors = (
);
b = {
};
com.typemytype.robofont.layerData = {
b = {
anchors = (
);
components = (
);
contours = (
{
points = (
{
segmentType = curve;
smooth = 1;
x = 151;
y = 0;
},
{
smooth = 0;
x = 176;
y = 0;
},
{
smooth = 0;
x = 201;
y = 12;
},
{
segmentType = curve;
smooth = 1;
x = 222;
y = 41;
},
{
segmentType = line;
smooth = 0;
x = 641;
y = 616;
},
{
segmentType = line;
smooth = 0;
x = 746;
y = 734;
},
{
segmentType = line;
smooth = 1;
x = 1175;
y = 1310;
},
{
smooth = 0;
x = 1186;
y = 1325;
},
{
smooth = 0;
x = 1190;
y = 1338;
},
{
segmentType = curve;
smooth = 1;
x = 1190;
y = 1353;
},
{
smooth = 0;
x = 1190;
y = 1393;
},
{
smooth = 0;
x = 1153;
y = 1426;
},
{
segmentType = curve;
smooth = 1;
x = 1110;
y = 1426;
},
{
smooth = 0;
x = 1083;
y = 1426;
},
{
smooth = 0;
x = 1058;
y = 1414;
},
{
segmentType = curve;
smooth = 1;
x = 1037;
y = 1385;
},
{
segmentType = line;
smooth = 0;
x = 648;
y = 844;
},
{
segmentType = line;
smooth = 0;
x = 542;
y = 732;
},
{
segmentType = line;
smooth = 1;
x = 84;
y = 121;
},
{
smooth = 0;
x = 73;
y = 106;
},
{
smooth = 0;
x = 68;
y = 91;
},
{
segmentType = curve;
smooth = 1;
x = 68;
y = 76;
},
{
smooth = 0;
x = 68;
y = 35;
},
{
smooth = 0;
x = 108;
y = 0;
}
);
},
{
points = (
{
segmentType = curve;
smooth = 1;
x = 1104;
y = 0;
},
{
smooth = 0;
x = 1151;
y = 0;
},
{
smooth = 0;
x = 1200;
y = 40;
},
{
segmentType = curve;
smooth = 1;
x = 1200;
y = 85;
},
{
smooth = 0;
x = 1200;
y = 98;
},
{
smooth = 0;
x = 1195;
y = 113;
},
{
segmentType = curve;
smooth = 0;
x = 1186;
y = 126;
},
{
segmentType = line;
smooth = 0;
x = 272;
y = 1385;
},
{
smooth = 0;
x = 252;
y = 1414;
},
{
smooth = 0;
x = 225;
y = 1426;
},
{
segmentType = curve;
smooth = 1;
x = 197;
y = 1426;
},
{
smooth = 0;
x = 149;
y = 1426;
},
{
smooth = 0;
x = 100;
y = 1388;
},
{
segmentType = curve;
smooth = 1;
x = 100;
y = 1343;
},
{
smooth = 0;
x = 100;
y = 1328;
},
{
smooth = 0;
x = 105;
y = 1315;
},
{
segmentType = curve;
smooth = 0;
x = 114;
y = 1303;
},
{
segmentType = line;
smooth = 0;
x = 1033;
y = 40;
},
{
smooth = 0;
x = 1052;
y = 13;
},
{
smooth = 0;
x = 1076;
y = 0;
}
);
}
);
lib = {
};
name = X;
unicodes = (
);
width = 1274;
};
};
components = (
);
contours = (
);
lib = {
};
name = X;
unicodes = (
);
width = 1322;
};
},
{
glyphname = Y;
lastChange = "2019-01-16 15:38:21 +0000";
layers = (
{
anchors = (
{
name = bottom;
position = "{273.854, 0}";
},
{
name = top;
position = "{328.854, 712}";
},
{
name = topleft;
position = "{56, 712}";
}
);
layerId = "CF304C0A-4888-46C0-9BE5-45819D47B95E";
paths = (
{
closed = 1;
nodes = (
"294.563 0 LINE",
"319.563 320 LINE",
"306.359 280.592 LINE",
"621 712 LINE",
"572.447 712 LINE",
"290.67 321.058 LINE",
"305.573 321.058 LINE",
"84.728 712 LINE",
"36.592 712 LINE",
"285.165 280.592 LINE",
"278.262 320 LINE",
"252.146 0 LINE"
);
}
);
width = 586.94175;
},
{
anchors = (
{
name = bottom;
position = "{310.291, 0}";
},
{
name = top;
position = "{365.291, 712}";
},
{
name = topleft;
position = "{56, 712}";
}
);
layerId = "EC690951-C754-4A23-894B-8F4258F2E540";
paths = (
{
closed = 1;
nodes = (
"403.874 0 LINE",
"428.874 320 LINE",
"383.282 215.816 LINE",
"760 712 LINE",
"544.107 712 LINE",
"317.66 389.883 LINE",
"356.854 389.883 LINE",
"180.544 712 LINE",
"-28.184 712 LINE",
"271.67 215.816 LINE",
"240.476 320 LINE",
"215.709 0 LINE"
);
}
);
width = 657.1165;
},
{
anchors = (
{
name = bottom;
position = "{284.077, 0}";
},
{
name = top;
position = "{339.077, 712}";
},
{
name = topleft;
position = "{56, 712}";
}
);
layerId = "FCB30AE2-FEFD-4E77-A1D9-4C86342947F4";
paths = (
{
closed = 1;
nodes = (
"325.233 0 LINE",
"350.233 320 LINE",
"327.942 262.417 LINE",
"660 712 LINE",
"564.495 712 LINE",
"298.243 340.369 LINE",
"319.961 340.369 LINE",
"111.612 712 LINE",
"18.417 712 LINE",
"281.379 262.417 LINE",
"267.66 320 LINE",
"241.923 0 LINE"
);
}
);
width = 606.63107;
}
);
leftKerningGroup = Y;
rightKerningGroup = Y;
unicode = 0059;
userData = {
anchors = (
);
b = {
};
com.typemytype.robofont.guides = (
);
com.typemytype.robofont.layerData = {
b = {
anchors = (
);
components = (
);
contours = (
{
points = (
{
segmentType = curve;
smooth = 1;
x = 641;
y = 0;
},
{
smooth = 0;
x = 685;
y = 0;
},
{
smooth = 0;
x = 730;
y = 29;
},
{
segmentType = curve;
smooth = 1;
x = 730;
y = 85;
},
{
segmentType = line;
smooth = 0;
x = 730;
y = 1285;
},
{
segmentType = line;
smooth = 1;
x = 1115;
y = 1285;
},
{
smooth = 0;
x = 1164;
y = 1285;
},
{
smooth = 0;
x = 1190;
y = 1319;
},
{
segmentType = curve;
smooth = 1;
x = 1190;
y = 1355;
},
{
smooth = 0;
x = 1190;
y = 1392;
},
{
smooth = 0;
x = 1166;
y = 1426;
},
{
segmentType = curve;
smooth = 1;
x = 1115;
y = 1426;
},
{
segmentType = line;
smooth = 1;
x = 160;
y = 1426;
},
{
smooth = 0;
x = 111;
y = 1426;
},
{
smooth = 0;
x = 86;
y = 1392;
},
{
segmentType = curve;
smooth = 1;
x = 86;
y = 1355;
},
{
smooth = 0;
x = 86;
y = 1319;
},
{
smooth = 0;
x = 111;
y = 1285;
},
{
segmentType = curve;
smooth = 1;
x = 160;
y = 1285;
},
{
segmentType = line;
smooth = 0;
x = 552;
y = 1285;
},
{
segmentType = line;
smooth = 1;
x = 552;
y = 85;
},
{
smooth = 0;
x = 552;
y = 29;
},
{
smooth = 0;
x = 596;
y = 0;
}
);
}
);
lib = {
};
name = Y;
unicodes = (
);
width = 1278;
};
};
components = (
);
contours = (
);
lib = {
};
name = Y;
unicodes = (
);
width = 1321;
};
},
{
glyphname = Z;
lastChange = "2019-01-16 15:38:21 +0000";
layers = (
{
anchors = (
{
name = bottom;
position = "{281.417, 0}";
},
{
name = top;
position = "{327.019, 712}";
}
);
layerId = "CF304C0A-4888-46C0-9BE5-45819D47B95E";
paths = (
{
closed = 1;
nodes = (
"527.272 0 LINE",
"530.573 38.68 LINE",
"52.437 38.68 LINE",
"50.204 -1.971 LINE",
"571.204 680.971 LINE",
"573.505 712 LINE",
"80.301 712 LINE",
"77 673.32 LINE",
"545.485 673.32 LINE",
"547.718 713.971 LINE",
"25.485 30.796 LINE",
"23.184 0 LINE"
);
}
);
width = 584.62136;
},
{
anchors = (
{
name = bottom;
position = "{288.165, 0}";
},
{
name = top;
position = "{349.961, 712}";
}
);
layerId = "EC690951-C754-4A23-894B-8F4258F2E540";
paths = (
{
closed = 1;
nodes = (
"570.456 0 LINE",
"581.854 146.641 LINE",
"221.126 146.641 LINE",
"221.592 101.942 LINE",
"603.592 577.058 LINE",
"613.99 712 LINE",
"88.398 712 LINE",
"77 565.359 LINE",
"424.029 565.359 LINE",
"423.563 610.058 LINE",
"43.029 137.408 LINE",
"32.631 0 LINE"
);
}
);
width = 623.75728;
},
{
anchors = (
{
name = bottom;
position = "{283.31, 0}";
},
{
name = top;
position = "{333.456, 712}";
}
);
layerId = "FCB30AE2-FEFD-4E77-A1D9-4C86342947F4";
paths = (
{
closed = 1;
nodes = (
"539.388 0 LINE",
"544.961 68.971 LINE",
"99.767 68.971 LINE",
"98.291 27.184 LINE",
"580.291 651.816 LINE",
"584.864 712 LINE",
"82.573 712 LINE",
"77 643.029 LINE",
"511.407 643.029 LINE",
"512.883 684.816 LINE",
"30.407 60.709 LINE",
"25.835 0 LINE"
);
}
);
width = 595.60194;
}
);
leftKerningGroup = Z;
rightKerningGroup = Z;
unicode = 005A;
userData = {
anchors = (
);
b = {
};
com.typemytype.robofont.layerData = {
b = {
anchors = (
);
components = (
);
contours = (
{
points = (
{
segmentType = curve;
smooth = 1;
x = 266;
y = 0;
},
{
segmentType = line;
smooth = 1;
x = 1035;
y = 0;
},
{
smooth = 0;
x = 1084;
y = 0;
},
{
smooth = 0;
x = 1108;
y = 34;
},
{
segmentType = curve;
smooth = 1;
x = 1108;
y = 71;
},
{
smooth = 0;
x = 1108;
y = 107;
},
{
smooth = 0;
x = 1084;
y = 141;
},
{
segmentType = curve;
smooth = 1;
x = 1035;
y = 141;
},
{
segmentType = line;
smooth = 0;
x = 356;
y = 141;
},
{
segmentType = line;
smooth = 0;
x = 356;
y = 665;
},
{
segmentType = line;
smooth = 1;
x = 975;
y = 665;
},
{
smooth = 0;
x = 1024;
y = 665;
},
{
smooth = 0;
x = 1049;
y = 698;
},
{
segmentType = curve;
smooth = 1;
x = 1049;
y = 734;
},
{
smooth = 0;
x = 1049;
y = 770;
},
{
smooth = 0;
x = 1026;
y = 803;
},
{
segmentType = curve;
smooth = 1;
x = 975;
y = 803;
},
{
segmentType = line;
smooth = 0;
x = 356;
y = 803;
},
{
segmentType = line;
smooth = 0;
x = 356;
y = 1285;
},
{
segmentType = line;
smooth = 1;
x = 1007;
y = 1285;
},
{
smooth = 0;
x = 1056;
y = 1285;
},
{
smooth = 0;
x = 1080;
y = 1319;
},
{
segmentType = curve;
smooth = 1;
x = 1080;
y = 1356;
},
{
smooth = 0;
x = 1080;
y = 1392;
},
{
smooth = 0;
x = 1056;
y = 1426;
},
{
segmentType = curve;
smooth = 1;
x = 1007;
y = 1426;
},
{
segmentType = line;
smooth = 1;
x = 261;
y = 1426;
},
{
smooth = 0;
x = 213;
y = 1426;
},
{
smooth = 0;
x = 178;
y = 1383;
},
{
segmentType = curve;
smooth = 1;
x = 178;
y = 1340;
},
{
segmentType = line;
smooth = 1;
x = 178;
y = 86;
},
{
smooth = 0;
x = 178;
y = 41;
},
{
smooth = 0;
x = 222;
y = 0;
}
);
}
);
lib = {
};
name = Z;
unicodes = (
);
width = 1165;
};
};
components = (
);
contours = (
);
lib = {
};
name = Z;
unicodes = (
);
width = 1222;
};
},
{
color = 3;
glyphname = a;
lastChange = "2019-01-16 15:38:21 +0000";
layers = (
{
anchors = (
{
name = bottom;
position = "{274.67, 0}";
},
{
name = ogonek;
position = "{476.524, 10}";
},
{
name = top;
position = "{314.67, 505.417}";
}
);
layerId = "CF304C0A-4888-46C0-9BE5-45819D47B95E";
paths = (
{
closed = 1;
nodes = (
"352.68 -6.883 OFFCURVE",
"433.66 42.515 OFFCURVE",
"455.961 125.961 CURVE",
"446.194 144.427 LINE",
"434.845 0 LINE",
"474.845 0 LINE",
"514.845 500.301 LINE",
"473.728 500.301 LINE",
"463.495 361.689 LINE",
"477.845 366.592 LINE",
"459.126 459.204 OFFCURVE",
"386.379 512.184 OFFCURVE",
"288.165 512.184 CURVE SMOOTH",
"148.631 512.184 OFFCURVE",
"55.097 403 OFFCURVE",
"55.097 236 CURVE SMOOTH",
"55.097 88.466 OFFCURVE",
"139.748 -6.883 OFFCURVE",
"267.748 -6.883 CURVE SMOOTH"
);
},
{
closed = 1;
nodes = (
"161.66 32.961 OFFCURVE",
"99.447 106.641 OFFCURVE",
"99.447 230.485 CURVE SMOOTH",
"99.447 381.194 OFFCURVE",
"167.893 472.456 OFFCURVE",
"283.32 472.456 CURVE SMOOTH",
"394.631 472.456 OFFCURVE",
"455.845 403.01 OFFCURVE",
"455.845 276.398 CURVE SMOOTH",
"455.845 125.223 OFFCURVE",
"386.165 32.961 OFFCURVE",
"271.621 32.961 CURVE SMOOTH"
);
}
);
width = 582.75728;
},
{
anchors = (
{
name = bottom;
position = "{301.66, 0}";
},
{
name = ogonek;
position = "{539.951, 10}";
},
{
name = top;
position = "{341.66, 512.165}";
}
);
layerId = "EC690951-C754-4A23-894B-8F4258F2E540";
paths = (
{
closed = 1;
nodes = (
"321.641 -8.233 OFFCURVE",
"379.68 24.971 OFFCURVE",
"410.078 80.078 CURVE",
"397.612 93.146 LINE",
"390.311 0 LINE",
"569.311 0 LINE",
"609.311 508.398 LINE",
"430.544 508.398 LINE",
"423.01 411.621 LINE",
"433.311 440.816 LINE",
"399.748 491.592 OFFCURVE",
"347.243 521.631 OFFCURVE",
"274.67 521.631 CURVE SMOOTH",
"129.738 521.631 OFFCURVE",
"30.806 403 OFFCURVE",
"30.806 236 CURVE SMOOTH",
"30.806 83.068 OFFCURVE",
"119.505 -8.233 OFFCURVE",
"247.505 -8.233 CURVE SMOOTH"
);
},
{
closed = 1;
nodes = (
"246.68 126.078 OFFCURVE",
"210.107 168.718 OFFCURVE",
"210.107 248.029 CURVE SMOOTH",
"210.107 332.612 OFFCURVE",
"250.214 386.087 OFFCURVE",
"314.359 386.087 CURVE SMOOTH",
"375.738 386.087 OFFCURVE",
"411.311 344.981 OFFCURVE",
"411.311 260.204 CURVE SMOOTH",
"411.311 180.553 OFFCURVE",
"372.67 126.078 OFFCURVE",
"310.757 126.078 CURVE SMOOTH"
);
}
);
width = 643.48544;
},
{
anchors = (
{
name = bottom;
position = "{282.243, 0}";
},
{
name = ogonek;
position = "{494.32, 10}";
},
{
name = top;
position = "{322.243, 507.31}";
}
);
layerId = "FCB30AE2-FEFD-4E77-A1D9-4C86342947F4";
paths = (
{
closed = 1;
nodes = (
"343.971 -7.262 OFFCURVE",
"418.515 37.593 OFFCURVE",
"443.087 113.087 CURVE",
"432.563 130.039 LINE",
"422.35 0 LINE",
"501.35 0 LINE",
"541.35 502.573 LINE",
"461.612 502.573 LINE",
"452.136 375.699 LINE",
"465.35 387.417 LINE",
"442.466 468.291 OFFCURVE",
"375.398 514.835 OFFCURVE",
"284.379 514.835 CURVE SMOOTH",
"143.33 514.835 OFFCURVE",
"48.282 403 OFFCURVE",
"48.282 236 CURVE SMOOTH",
"48.282 86.951 OFFCURVE",
"134.068 -7.262 OFFCURVE",
"262.068 -7.262 CURVE SMOOTH"
);
},
{
closed = 1;
nodes = (
"185.515 59.087 OFFCURVE",
"130.495 124.058 OFFCURVE",
"130.495 235.407 CURVE SMOOTH",
"130.495 367.563 OFFCURVE",
"190.99 448.223 OFFCURVE",
"292.029 448.223 CURVE SMOOTH",
"389.33 448.223 OFFCURVE",
"443.35 386.728 OFFCURVE",
"443.35 271.854 CURVE SMOOTH",
"443.35 140.747 OFFCURVE",
"382.379 59.087 OFFCURVE",
"282.602 59.087 CURVE SMOOTH"
);
}
);
width = 599.79612;
}
);
leftKerningGroup = o;
rightKerningGroup = u;
unicode = 0061;
userData = {
anchors = (
);
b = {
};
com.typemytype.robofont.layerData = {
b = {
anchors = (
);
components = (
);
contours = (
);
lib = {
};
name = p;
unicodes = (
);
width = 1181;
};
};
components = (
);
contours = (
);
lib = {
};
name = p;
unicodes = (
);
width = 1207;
};
},
{
color = 3;
glyphname = aogonek;
lastChange = "2019-01-16 15:38:21 +0000";
layers = (
{
layerId = "CF304C0A-4888-46C0-9BE5-45819D47B95E";
paths = (
{
closed = 1;
nodes = (
"463.99 -196.184 OFFCURVE",
"495.757 -184.835 OFFCURVE",
"512.126 -172.951 CURVE",
"497.893 -135.796 LINE",
"474.893 -151.495 OFFCURVE",
"451.427 -157.728 OFFCURVE",
"434.544 -157.728 CURVE SMOOTH",
"393.728 -157.728 OFFCURVE",
"369.379 -135.379 OFFCURVE",
"369.379 -91.214 CURVE SMOOTH",
"369.379 -32.233 OFFCURVE",
"417.126 0 OFFCURVE",
"467.126 0 CURVE SMOOTH",
"474.961 0 LINE",
"514.961 500.301 LINE",
"473.845 500.301 LINE",
"463.612 361.689 LINE",
"477.961 366.592 LINE",
"459.243 459.204 OFFCURVE",
"386.495 512.184 OFFCURVE",
"288.282 512.184 CURVE SMOOTH",
"149.864 512.184 OFFCURVE",
"55.214 403 OFFCURVE",
"55.214 236 CURVE SMOOTH",
"55.214 88.466 OFFCURVE",
"140.981 -6.883 OFFCURVE",
"267.864 -6.883 CURVE SMOOTH",
"352.796 -6.883 OFFCURVE",
"433.777 42.515 OFFCURVE",
"456.078 125.961 CURVE",
"444.078 115.515 LINE",
"434.961 0 LINE",
"447.699 0 LINE",
"472.515 39.583 LINE",
"384.184 27.515 OFFCURVE",
"324.437 -21.602 OFFCURVE",
"324.437 -98.466 CURVE SMOOTH",
"324.437 -156.883 OFFCURVE",
"365.039 -196.184 OFFCURVE",
"432.107 -196.184 CURVE SMOOTH"
);
},
{
closed = 1;
nodes = (
"157.495 22.165 OFFCURVE",
"91.35 98.66 OFFCURVE",
"91.35 229.136 CURVE SMOOTH",
"91.35 387.825 OFFCURVE",
"163.728 483.252 OFFCURVE",
"283.437 483.252 CURVE SMOOTH",
"401.262 483.252 OFFCURVE",
"464.175 409.874 OFFCURVE",
"464.175 277.631 CURVE SMOOTH",
"464.175 118.476 OFFCURVE",
"391.68 22.165 OFFCURVE",
"271.738 22.165 CURVE SMOOTH"
);
}
);
width = 582.75728;
},
{
layerId = "EC690951-C754-4A23-894B-8F4258F2E540";
paths = (
{
closed = 1;
nodes = (
"522.019 -205.631 OFFCURVE",
"556.485 -198.33 OFFCURVE",
"591.748 -185.097 CURVE",
"580.214 -103.408 LINE",
"557.214 -111.01 OFFCURVE",
"539.146 -114.544 OFFCURVE",
"520.913 -114.544 CURVE SMOOTH",
"489.544 -114.544 OFFCURVE",
"469.243 -96.243 OFFCURVE",
"469.243 -65.573 CURVE SMOOTH",
"469.243 -29.534 OFFCURVE",
"496.748 0 OFFCURVE",
"546.748 0 CURVE SMOOTH",
"568.078 0 LINE",
"608.078 508.398 LINE",
"429.311 508.398 LINE",
"421.777 411.621 LINE",
"432.078 440.816 LINE",
"398.515 491.592 OFFCURVE",
"346.01 521.631 OFFCURVE",
"273.437 521.631 CURVE SMOOTH",
"128.272 521.631 OFFCURVE",
"29.573 403 OFFCURVE",
"29.573 236 CURVE SMOOTH",
"29.573 83.068 OFFCURVE",
"118.039 -8.233 OFFCURVE",
"246.272 -8.233 CURVE SMOOTH",
"320.408 -8.233 OFFCURVE",
"378.447 24.971 OFFCURVE",
"408.845 80.078 CURVE",
"396.845 97.971 LINE",
"389.078 0 LINE",
"439.602 0 LINE",
"454.971 32.835 LINE",
"393.631 9.971 OFFCURVE",
"354.126 -37.796 OFFCURVE",
"354.126 -93.068 CURVE SMOOTH",
"354.126 -158.233 OFFCURVE",
"410.922 -205.631 OFFCURVE",
"488.786 -205.631 CURVE SMOOTH"
);
},
{
closed = 1;
nodes = (
"256.01 147.67 OFFCURVE",
"226.301 183.68 OFFCURVE",
"226.301 250.728 CURVE SMOOTH",
"226.301 320.35 OFFCURVE",
"259.544 364.495 OFFCURVE",
"313.126 364.495 CURVE SMOOTH",
"363.476 364.495 OFFCURVE",
"392.65 330.252 OFFCURVE",
"392.65 258.738 CURVE SMOOTH",
"392.65 194.049 OFFCURVE",
"360.641 147.67 OFFCURVE",
"309.524 147.67 CURVE SMOOTH"
);
}
);
width = 643.48544;
},
{
layerId = "FCB30AE2-FEFD-4E77-A1D9-4C86342947F4";
paths = (
{
closed = 1;
nodes = (
"480.272 -198.835 OFFCURVE",
"512.796 -188.621 OFFCURVE",
"534.466 -176.359 CURVE",
"520.99 -126.709 LINE",
"497.99 -140.136 OFFCURVE",
"476.039 -145.612 OFFCURVE",
"458.777 -145.612 CURVE SMOOTH",
"420.612 -145.612 OFFCURVE",
"397.398 -124.398 OFFCURVE",
"397.398 -84.02 CURVE SMOOTH",
"397.398 -31.476 OFFCURVE",
"439.466 0 OFFCURVE",
"489.466 0 CURVE SMOOTH",
"501.087 0 LINE",
"541.087 502.573 LINE",
"461.35 502.573 LINE",
"451.874 375.699 LINE",
"465.087 387.417 LINE",
"442.204 468.291 OFFCURVE",
"375.136 514.835 OFFCURVE",
"284.117 514.835 CURVE SMOOTH",
"143.806 514.835 OFFCURVE",
"48.02 403 OFFCURVE",
"48.02 236 CURVE SMOOTH",
"48.02 86.951 OFFCURVE",
"134.544 -7.262 OFFCURVE",
"261.806 -7.262 CURVE SMOOTH",
"343.709 -7.262 OFFCURVE",
"418.253 37.593 OFFCURVE",
"442.826 113.087 CURVE",
"430.826 110.593 LINE",
"422.087 0 LINE",
"445.427 0 LINE",
"467.593 37.69 LINE",
"386.835 22.593 OFFCURVE",
"332.767 -26.146 OFFCURVE",
"332.767 -96.951 CURVE SMOOTH",
"332.767 -157.262 OFFCURVE",
"377.913 -198.835 OFFCURVE",
"448.01 -198.835 CURVE SMOOTH"
);
},
{
closed = 1;
nodes = (
"185.136 57.379 OFFCURVE",
"129.214 122.515 OFFCURVE",
"129.214 235.194 CURVE SMOOTH",
"129.214 368.893 OFFCURVE",
"190.612 449.932 OFFCURVE",
"291.767 449.932 CURVE SMOOTH",
"390.66 449.932 OFFCURVE",
"444.107 387.534 OFFCURVE",
"444.107 272.33 CURVE SMOOTH",
"444.107 139.68 OFFCURVE",
"382.971 57.379 OFFCURVE",
"282.34 57.379 CURVE SMOOTH"
);
}
);
width = 599.79612;
}
);
leftKerningGroup = o;
rightKerningGroup = u;
unicode = 0105;
userData = {
com.typemytype.robofont.layerData = {
b = {
anchors = (
);
components = (
);
contours = (
);
lib = {
};
name = aogonek;
unicodes = (
);
width = 1040;
};
};
};
},
{
color = 3;
glyphname = aringacute;
lastChange = "2019-01-16 15:38:21 +0000";
layers = (
{
layerId = "CF304C0A-4888-46C0-9BE5-45819D47B95E";
paths = (
{
closed = 1;
nodes = (
"352.796 -6.883 OFFCURVE",
"433.777 42.515 OFFCURVE",
"456.078 125.961 CURVE",
"446.311 144.427 LINE",
"434.961 0 LINE",
"474.961 0 LINE",
"514.961 500.301 LINE",
"473.845 500.301 LINE",
"463.612 361.689 LINE",
"477.961 366.592 LINE",
"459.243 459.204 OFFCURVE",
"386.495 512.184 OFFCURVE",
"288.282 512.184 CURVE SMOOTH",
"148.748 512.184 OFFCURVE",
"55.214 403 OFFCURVE",
"55.214 236 CURVE SMOOTH",
"55.214 88.466 OFFCURVE",
"139.864 -6.883 OFFCURVE",
"267.864 -6.883 CURVE SMOOTH"
);
},
{
closed = 1;
nodes = (
"161.777 32.961 OFFCURVE",
"99.563 106.641 OFFCURVE",
"99.563 230.485 CURVE SMOOTH",
"99.563 381.194 OFFCURVE",
"168.01 472.456 OFFCURVE",
"283.437 472.456 CURVE SMOOTH",
"394.748 472.456 OFFCURVE",
"455.961 403.01 OFFCURVE",
"455.961 276.398 CURVE SMOOTH",
"455.961 125.223 OFFCURVE",
"386.282 32.961 OFFCURVE",
"271.738 32.961 CURVE SMOOTH"
);
},
{
closed = 1;
nodes = (
"382.903 573.583 OFFCURVE",
"426.738 617 OFFCURVE",
"426.155 671.068 CURVE SMOOTH",
"425.689 726.369 OFFCURVE",
"379.806 769.903 OFFCURVE",
"324.621 769.903 CURVE SMOOTH",
"271.67 769.903 OFFCURVE",
"226.485 726.369 OFFCURVE",
"226.951 671.068 CURVE SMOOTH",
"227.65 617 OFFCURVE",
"273.534 573.583 OFFCURVE",
"327.718 573.583 CURVE SMOOTH"
);
},
{
closed = 1;
nodes = (
"297.786 617.485 OFFCURVE",
"273.971 641.718 OFFCURVE",
"273.738 671.068 CURVE SMOOTH",
"273.505 701.534 OFFCURVE",
"295.854 726 OFFCURVE",
"326.32 726 CURVE SMOOTH",
"356.786 726 OFFCURVE",
"379.252 701.534 OFFCURVE",
"379.485 671.068 CURVE SMOOTH",
"379.718 641.718 OFFCURVE",
"357.602 617.485 OFFCURVE",
"327.136 617.485 CURVE SMOOTH"
);
},
{
closed = 1;
nodes = (
"553.893 876 LINE",
"485.932 878.65 LINE",
"363.087 715.641 LINE",
"401.34 715.883 LINE"
);
}
);
width = 582.75728;
},
{
layerId = "EC690951-C754-4A23-894B-8F4258F2E540";
paths = (
{
closed = 1;
nodes = (
"320.408 -8.233 OFFCURVE",
"378.447 24.971 OFFCURVE",
"408.845 80.078 CURVE",
"396.379 93.146 LINE",
"389.078 0 LINE",
"568.078 0 LINE",
"608.078 508.398 LINE",
"429.311 508.398 LINE",
"421.777 411.621 LINE",
"432.078 440.816 LINE",
"398.515 491.592 OFFCURVE",
"346.01 521.631 OFFCURVE",
"273.437 521.631 CURVE SMOOTH",
"128.505 521.631 OFFCURVE",
"29.573 403 OFFCURVE",
"29.573 236 CURVE SMOOTH",
"29.573 83.068 OFFCURVE",
"118.272 -8.233 OFFCURVE",
"246.272 -8.233 CURVE SMOOTH"
);
},
{
closed = 1;
nodes = (
"245.447 126.078 OFFCURVE",
"208.874 168.718 OFFCURVE",
"208.874 248.029 CURVE SMOOTH",
"208.874 332.612 OFFCURVE",
"248.981 386.087 OFFCURVE",
"313.126 386.087 CURVE SMOOTH",
"374.505 386.087 OFFCURVE",
"410.078 344.981 OFFCURVE",
"410.078 260.204 CURVE SMOOTH",
"410.078 180.553 OFFCURVE",
"371.437 126.078 OFFCURVE",
"309.524 126.078 CURVE SMOOTH"
);
},
{
closed = 1;
nodes = (
"407.194 566.835 OFFCURVE",
"464.524 617 OFFCURVE",
"470.689 681.864 CURVE SMOOTH",
"475.621 745.262 OFFCURVE",
"428.388 794.194 OFFCURVE",
"363.757 794.194 CURVE SMOOTH",
"298.66 794.194 OFFCURVE",
"244.029 745.262 OFFCURVE",
"239.097 681.864 CURVE SMOOTH",
"231.699 617 OFFCURVE",
"278.932 566.835 OFFCURVE",
"342.563 566.835 CURVE SMOOTH"
);
},
{
closed = 1;
nodes = (
"323.427 635.029 OFFCURVE",
"309.058 656.563 OFFCURVE",
"311.524 681.864 CURVE SMOOTH",
"313.99 706.932 OFFCURVE",
"332.291 726 OFFCURVE",
"357.359 726 CURVE SMOOTH",
"382.427 726 OFFCURVE",
"399.495 706.932 OFFCURVE",
"397.029 681.864 CURVE SMOOTH",
"394.563 656.563 OFFCURVE",
"373.796 635.029 OFFCURVE",
"348.728 635.029 CURVE SMOOTH"
);
},
{
closed = 1;
nodes = (
"636.214 876 LINE",
"475.136 882.699 LINE",
"396.825 777.718 LINE",
"455.32 717.233 LINE"
);
}
);
width = 643.48544;
},
{
layerId = "FCB30AE2-FEFD-4E77-A1D9-4C86342947F4";
paths = (
{
closed = 1;
nodes = (
"343.709 -7.262 OFFCURVE",
"418.253 37.593 OFFCURVE",
"442.826 113.087 CURVE",
"432.301 130.039 LINE",
"422.087 0 LINE",
"501.087 0 LINE",
"541.087 502.573 LINE",
"461.35 502.573 LINE",
"451.874 375.699 LINE",
"465.087 387.417 LINE",
"442.204 468.291 OFFCURVE",
"375.136 514.835 OFFCURVE",
"284.117 514.835 CURVE SMOOTH",
"143.068 514.835 OFFCURVE",
"48.02 403 OFFCURVE",
"48.02 236 CURVE SMOOTH",
"48.02 86.951 OFFCURVE",
"133.806 -7.262 OFFCURVE",
"261.806 -7.262 CURVE SMOOTH"
);
},
{
closed = 1;
nodes = (
"185.253 59.087 OFFCURVE",
"130.233 124.058 OFFCURVE",
"130.233 235.407 CURVE SMOOTH",
"130.233 367.563 OFFCURVE",
"190.728 448.223 OFFCURVE",
"291.767 448.223 CURVE SMOOTH",
"389.068 448.223 OFFCURVE",
"443.087 386.728 OFFCURVE",
"443.087 271.854 CURVE SMOOTH",
"443.087 140.747 OFFCURVE",
"382.117 59.087 OFFCURVE",
"282.34 59.087 CURVE SMOOTH"
);
},
{
closed = 1;
nodes = (
"389.718 571.69 OFFCURVE",
"437.34 617 OFFCURVE",
"438.65 674.097 CURVE SMOOTH",
"439.699 731.67 OFFCURVE",
"393.437 776.718 OFFCURVE",
"335.602 776.718 CURVE SMOOTH",
"279.243 776.718 OFFCURVE",
"231.407 731.67 OFFCURVE",
"230.359 674.097 CURVE SMOOTH",
"228.786 617 OFFCURVE",
"275.049 571.69 OFFCURVE",
"331.883 571.69 CURVE SMOOTH"
);
},
{
closed = 1;
nodes = (
"304.98 622.407 OFFCURVE",
"283.816 645.883 OFFCURVE",
"284.34 674.097 CURVE SMOOTH",
"284.864 703.049 OFFCURVE",
"306.077 726 OFFCURVE",
"335.029 726 CURVE SMOOTH",
"363.98 726 OFFCURVE",
"384.932 703.049 OFFCURVE",
"384.407 674.097 CURVE SMOOTH",
"383.883 645.883 OFFCURVE",
"362.146 622.407 OFFCURVE",
"333.194 622.407 CURVE SMOOTH"
);
},
{
closed = 1;
nodes = (
"576.99 876 LINE",
"482.903 879.786 LINE",
"372.553 733.058 LINE",
"416.485 716.262 LINE"
);
}
);
width = 599.79612;
}
);
leftKerningGroup = o;
rightKerningGroup = u;
unicode = 01FB;
},
{
color = 3;
glyphname = ae;
lastChange = "2019-01-16 15:38:21 +0000";
layers = (
{
anchors = (
{
name = bottom;
position = "{416.583, 0}";
},
{
name = top;
position = "{457.699, 505.417}";
}
);
layerId = "CF304C0A-4888-46C0-9BE5-45819D47B95E";
paths = (
{
closed = 1;
nodes = (
"336.767 -6.883 OFFCURVE",
"416.136 63.65 OFFCURVE",
"438.301 174.553 CURVE",
"451.272 172.272 LINE",
"466.087 326.796 LINE SMOOTH",
"473.854 449.097 OFFCURVE",
"420.272 512.184 OFFCURVE",
"299.417 512.184 CURVE SMOOTH",
"231.816 512.184 OFFCURVE",
"156.563 489.534 OFFCURVE",
"108.379 452.534 CURVE",
"125.631 416.874 LINE",
"186.563 455.573 OFFCURVE",
"242.864 472.34 OFFCURVE",
"304.146 472.34 CURVE SMOOTH",
"392.592 472.34 OFFCURVE",
"429.641 425.126 OFFCURVE",
"421.291 326.165 CURVE SMOOTH",
"412.175 215.699 LINE SMOOTH",
"402.709 109.272 OFFCURVE",
"327.214 34.126 OFFCURVE",
"232.019 34.126 CURVE SMOOTH",
"157.408 34.126 OFFCURVE",
"110.311 76.223 OFFCURVE",
"110.311 134.854 CURVE SMOOTH",
"110.311 210.835 OFFCURVE",
"150.66 260.981 OFFCURVE",
"369.359 260.981 CURVE SMOOTH",
"426.99 260.981 LINE",
"429.524 302.485 LINE",
"365.243 302.485 LINE SMOOTH",
"146.379 302.485 OFFCURVE",
"64.379 243.553 OFFCURVE",
"64.379 134.718 CURVE SMOOTH",
"64.379 51.65 OFFCURVE",
"132.796 -6.883 OFFCURVE",
"229.932 -6.883 CURVE SMOOTH"
);
},
{
closed = 1;
nodes = (
"696.816 -6.883 OFFCURVE",
"777.515 19.466 OFFCURVE",
"818.165 60.699 CURVE",
"799.68 95.359 LINE",
"749.097 52.311 OFFCURVE",
"686.583 33.078 OFFCURVE",
"635.583 33.078 CURVE SMOOTH",
"517.621 33.078 OFFCURVE",
"456.99 110.456 OFFCURVE",
"456.99 229.485 CURVE SMOOTH",
"456.99 378.748 OFFCURVE",
"527.019 474.641 OFFCURVE",
"653.728 474.641 CURVE SMOOTH",
"752.738 474.641 OFFCURVE",
"817.65 404.262 OFFCURVE",
"801.485 279.184 CURVE",
"821.272 302.485 LINE",
"437.592 302.485 LINE",
"437.291 261.214 LINE",
"841.398 261.214 LINE",
"858.932 428.049 OFFCURVE",
"778.447 512.184 OFFCURVE",
"650.146 512.184 CURVE SMOOTH",
"500.447 512.184 OFFCURVE",
"418.544 400.417 OFFCURVE",
"418.544 233.184 CURVE SMOOTH",
"418.544 87.767 OFFCURVE",
"495.379 -6.883 OFFCURVE",
"636.864 -6.883 CURVE SMOOTH"
);
}
);
width = 889.56311;
},
{
anchors = (
{
name = bottom;
position = "{409.835, 0}";
},
{
name = top;
position = "{449.602, 512.165}";
}
);
layerId = "EC690951-C754-4A23-894B-8F4258F2E540";
paths = (
{
closed = 1;
nodes = (
"339.466 -8.233 OFFCURVE",
"437.728 67.699 OFFCURVE",
"446.398 202.893 CURVE",
"494.456 215.456 LINE",
"499.825 294.408 LINE SMOOTH",
"510.291 424.806 OFFCURVE",
"463.456 521.631 OFFCURVE",
"306.165 521.631 CURVE SMOOTH",
"222.369 521.631 OFFCURVE",
"126.874 494.932 OFFCURVE",
"69.243 457.932 CURVE",
"106.738 337.252 LINE",
"156.874 367.854 OFFCURVE",
"221.272 387.32 OFFCURVE",
"267.709 387.32 CURVE SMOOTH",
"327.816 387.32 OFFCURVE",
"352.718 365.748 OFFCURVE",
"348.417 312.67 CURVE SMOOTH",
"340.65 207.602 LINE SMOOTH",
"336.583 152.456 OFFCURVE",
"301.573 113.748 OFFCURVE",
"254.961 113.748 CURVE SMOOTH",
"222.184 113.748 OFFCURVE",
"199.379 131.553 OFFCURVE",
"199.379 171.291 CURVE SMOOTH",
"199.379 224.33 OFFCURVE",
"235.68 238.039 OFFCURVE",
"307.282 238.039 CURVE SMOOTH",
"346.019 238.039 LINE",
"353.951 320.029 LINE",
"304.515 320.029 LINE SMOOTH",
"107.243 320.029 OFFCURVE",
"25.243 271.893 OFFCURVE",
"25.243 149.563 CURVE SMOOTH",
"25.243 55.699 OFFCURVE",
"100.408 -8.233 OFFCURVE",
"219.136 -8.233 CURVE SMOOTH"
);
},
{
closed = 1;
nodes = (
"687.369 -8.233 OFFCURVE",
"759.971 14.068 OFFCURVE",
"804.67 52.602 CURVE",
"768.641 172.282 LINE",
"724.806 141.379 OFFCURVE",
"679.835 124.845 OFFCURVE",
"628.835 124.845 CURVE SMOOTH",
"556.757 124.845 OFFCURVE",
"515.019 163.087 OFFCURVE",
"515.019 247.029 CURVE SMOOTH",
"515.019 358.505 OFFCURVE",
"549.961 397.718 OFFCURVE",
"610.544 397.718 CURVE SMOOTH",
"651.524 397.718 OFFCURVE",
"682.699 366.476 OFFCURVE",
"680.029 288.631 CURVE",
"725.456 320.029 LINE",
"511.816 320.029 LINE",
"503.417 235.573 LINE",
"825.204 235.573 LINE",
"848.136 415.903 OFFCURVE",
"750.107 521.631 OFFCURVE",
"613.709 521.631 CURVE SMOOTH",
"472.107 521.631 OFFCURVE",
"365.913 407.165 OFFCURVE",
"365.913 242.631 CURVE SMOOTH",
"365.913 90.466 OFFCURVE",
"456.243 -8.233 OFFCURVE",
"615.272 -8.233 CURVE SMOOTH"
);
}
);
width = 859.87379;
},
{
anchors = (
{
name = bottom;
position = "{414.69, 0}";
},
{
name = top;
position = "{455.427, 507.31}";
}
);
layerId = "FCB30AE2-FEFD-4E77-A1D9-4C86342947F4";
paths = (
{
closed = 1;
nodes = (
"337.524 -7.262 OFFCURVE",
"422.194 64.786 OFFCURVE",
"440.573 182.505 CURVE",
"463.388 184.388 LINE",
"475.553 317.709 LINE SMOOTH",
"484.077 442.282 OFFCURVE",
"432.388 514.835 OFFCURVE",
"301.31 514.835 CURVE SMOOTH",
"229.165 514.835 OFFCURVE",
"148.233 491.049 OFFCURVE",
"97.398 454.049 CURVE",
"120.33 394.534 LINE",
"178.233 430.961 OFFCURVE",
"236.806 448.485 OFFCURVE",
"293.923 448.485 CURVE SMOOTH",
"374.417 448.485 OFFCURVE",
"408.058 408.466 OFFCURVE",
"400.844 322.379 CURVE SMOOTH",
"392.107 213.427 LINE SMOOTH",
"384.156 121.388 OFFCURVE",
"320.02 56.466 OFFCURVE",
"238.456 56.466 CURVE SMOOTH",
"175.583 56.466 OFFCURVE",
"135.301 91.747 OFFCURVE",
"135.301 145.077 CURVE SMOOTH",
"135.301 214.621 OFFCURVE",
"174.515 254.544 OFFCURVE",
"351.942 254.544 CURVE SMOOTH",
"404.272 254.544 LINE",
"408.32 307.407 LINE",
"348.204 307.407 LINE SMOOTH",
"135.398 307.407 OFFCURVE",
"53.398 251.505 OFFCURVE",
"53.398 138.883 CURVE SMOOTH",
"53.398 52.786 OFFCURVE",
"123.709 -7.262 OFFCURVE",
"226.903 -7.262 CURVE SMOOTH"
);
},
{
closed = 1;
nodes = (
"694.165 -7.262 OFFCURVE",
"772.593 17.951 OFFCURVE",
"814.379 58.427 CURVE",
"790.971 116.942 LINE",
"742.282 77.301 OFFCURVE",
"684.69 58.826 OFFCURVE",
"633.69 58.826 CURVE SMOOTH",
"528.602 58.826 OFFCURVE",
"473.272 125.223 OFFCURVE",
"473.272 234.407 CURVE SMOOTH",
"473.272 373.068 OFFCURVE",
"533.456 453.058 OFFCURVE",
"641.612 453.058 CURVE SMOOTH",
"724.34 453.058 OFFCURVE",
"779.786 393.66 OFFCURVE",
"767.407 281.835 CURVE",
"794.388 307.407 LINE",
"458.417 307.407 LINE",
"455.844 254.02 LINE",
"836.854 254.02 LINE",
"855.903 424.641 OFFCURVE",
"770.495 514.835 OFFCURVE",
"639.923 514.835 CURVE SMOOTH",
"492.495 514.835 OFFCURVE",
"403.777 402.31 OFFCURVE",
"403.777 235.835 CURVE SMOOTH",
"403.777 88.524 OFFCURVE",
"484.398 -7.262 OFFCURVE",
"630.806 -7.262 CURVE SMOOTH"
);
}
);
width = 881.23301;
}
);
leftKerningGroup = a;
rightKerningGroup = e;
unicode = 00E6;
userData = {
com.typemytype.robofont.layerData = {
b = {
anchors = (
);
components = (
);
contours = (
);
lib = {
};
name = ae;
unicodes = (
);
width = 1734;
};
};
};
},
{
color = 3;
glyphname = b;
lastChange = "2019-01-16 15:38:21 +0000";
layers = (
{
anchors = (
{
name = bottom;
position = "{289.951, 0}";
},
{
name = top;
position = "{325.544, 505.417}";
}
);
layerId = "CF304C0A-4888-46C0-9BE5-45819D47B95E";
paths = (
{
closed = 1;
nodes = (
"433.777 -6.883 OFFCURVE",
"528.427 102.417 OFFCURVE",
"528.427 270.417 CURVE SMOOTH",
"528.427 416.835 OFFCURVE",
"441.544 512.184 OFFCURVE",
"314.66 512.184 CURVE SMOOTH",
"230.961 512.184 OFFCURVE",
"149.981 463.019 OFFCURVE",
"126.563 379.456 CURVE",
"137.563 364.087 LINE",
"167.796 736 LINE",
"126.913 736 LINE",
"67.796 0 LINE",
"110.029 0 LINE",
"121.146 140.864 LINE",
"106.913 137.592 LINE",
"123.282 46.097 OFFCURVE",
"198.379 -6.883 OFFCURVE",
"295.476 -6.883 CURVE SMOOTH"
);
},
{
closed = 1;
nodes = (
"189.01 32.961 OFFCURVE",
"127.796 102.408 OFFCURVE",
"127.796 229.136 CURVE SMOOTH",
"127.796 380.194 OFFCURVE",
"197.476 472.456 OFFCURVE",
"313.019 472.456 CURVE SMOOTH",
"419.631 472.456 OFFCURVE",
"484.194 399.893 OFFCURVE",
"484.194 275.049 CURVE SMOOTH",
"484.194 124.34 OFFCURVE",
"414.398 32.961 OFFCURVE",
"302.553 32.961 CURVE SMOOTH"
);
}
);
width = 582.64078;
},
{
anchors = (
{
name = bottom;
position = "{302.097, 0}";
},
{
name = top;
position = "{411.913, 512.165}";
}
);
layerId = "EC690951-C754-4A23-894B-8F4258F2E540";
paths = (
{
closed = 1;
nodes = (
"517.447 -8.233 OFFCURVE",
"616.146 109.165 OFFCURVE",
"616.146 277.165 CURVE SMOOTH",
"616.146 430.33 OFFCURVE",
"527.913 521.631 OFFCURVE",
"399.68 521.631 CURVE SMOOTH",
"324.078 521.631 OFFCURVE",
"266.039 485.961 OFFCURVE",
"235.874 432.087 CURVE",
"246.874 397.825 LINE",
"274.408 736 LINE",
"93.175 736 LINE",
"35.408 0 LINE",
"213.942 0 LINE",
"223.709 119.272 LINE",
"212.175 72.816 LINE",
"247.437 21.806 OFFCURVE",
"298.243 -8.233 OFFCURVE",
"371.049 -8.233 CURVE SMOOTH"
);
},
{
closed = 1;
nodes = (
"269.981 126.078 OFFCURVE",
"234.408 167.184 OFFCURVE",
"234.408 250.728 CURVE SMOOTH",
"234.408 331.612 OFFCURVE",
"273.049 386.087 OFFCURVE",
"335.961 386.087 CURVE SMOOTH",
"400.738 386.087 OFFCURVE",
"435.612 343.214 OFFCURVE",
"435.612 262.903 CURVE SMOOTH",
"435.612 178.32 OFFCURVE",
"398.204 126.078 OFFCURVE",
"330.893 126.078 CURVE SMOOTH"
);
}
);
width = 644.71845;
},
{
anchors = (
{
name = bottom;
position = "{293.359, 0}";
},
{
name = top;
position = "{349.777, 507.31}";
}
);
layerId = "FCB30AE2-FEFD-4E77-A1D9-4C86342947F4";
paths = (
{
closed = 1;
nodes = (
"457.253 -7.262 OFFCURVE",
"553.039 104.31 OFFCURVE",
"553.039 272.31 CURVE SMOOTH",
"553.039 420.621 OFFCURVE",
"465.777 514.835 OFFCURVE",
"338.515 514.835 CURVE SMOOTH",
"257.087 514.835 OFFCURVE",
"182.544 469.456 OFFCURVE",
"157.233 394.223 CURVE",
"168.233 373.553 LINE",
"197.709 736 LINE",
"117.447 736 LINE",
"58.709 0 LINE",
"139.184 0 LINE",
"149.923 134.806 LINE",
"136.447 119.417 LINE",
"158.117 39.282 OFFCURVE",
"226.398 -7.262 OFFCURVE",
"316.68 -7.262 CURVE SMOOTH"
);
},
{
closed = 1;
nodes = (
"211.728 59.087 OFFCURVE",
"157.709 120.583 OFFCURVE",
"157.709 235.194 CURVE SMOOTH",
"157.709 366.563 OFFCURVE",
"218.68 448.223 OFFCURVE",
"319.456 448.223 CURVE SMOOTH",
"414.33 448.223 OFFCURVE",
"470.563 383.99 OFFCURVE",
"470.563 271.641 CURVE SMOOTH",
"470.563 139.485 OFFCURVE",
"409.854 59.087 OFFCURVE",
"310.505 59.087 CURVE SMOOTH"
);
}
);
width = 600.05826;
}
);
leftKerningGroup = h;
rightKerningGroup = o;
unicode = 0062;
userData = {
anchors = (
);
b = {
};
com.typemytype.robofont.layerData = {
b = {
anchors = (
);
components = (
);
contours = (
{
points = (
{
segmentType = curve;
smooth = 1;
x = 238;
y = 1425;
},
{
smooth = 0;
x = 198;
y = 1425;
},
{
smooth = 0;
x = 158;
y = 1400;
},
{
segmentType = curve;
smooth = 1;
x = 158;
y = 1351;
},
{
segmentType = line;
smooth = 1;
x = 158;
y = 76;
},
{
smooth = 0;
x = 158;
y = 27;
},
{
smooth = 0;
x = 197;
y = 3;
},
{
segmentType = curve;
smooth = 1;
x = 237;
y = 3;
},
{
smooth = 0;
x = 297;
y = 3;
},
{
smooth = 0;
x = 318;
y = 38;
},
{
segmentType = curve;
smooth = 1;
x = 318;
y = 76;
},
{
segmentType = line;
smooth = 0;
x = 318;
y = 183;
},
{
smooth = 0;
x = 384;
y = 46;
},
{
smooth = 0;
x = 516;
y = "-20";
},
{
segmentType = curve;
smooth = 1;
x = 666;
y = "-20";
},
{
smooth = 0;
x = 957;
y = "-20";
},
{
smooth = 0;
x = 1095;
y = 225;
},
{
segmentType = curve;
smooth = 1;
x = 1095;
y = 502;
},
{
smooth = 0;
x = 1095;
y = 777;
},
{
smooth = 0;
x = 939;
y = 1013;
},
{
segmentType = curve;
smooth = 1;
x = 650;
y = 1013;
},
{
smooth = 0;
x = 503;
y = 1013;
},
{
smooth = 0;
x = 376;
y = 942;
},
{
segmentType = curve;
smooth = 0;
x = 318;
y = 814;
},
{
segmentType = line;
smooth = 1;
x = 318;
y = 1351;
},
{
smooth = 0;
x = 318;
y = 1400;
},
{
smooth = 0;
x = 278;
y = 1425;
}
);
},
{
points = (
{
segmentType = curve;
smooth = 1;
x = 632;
y = 903;
},
{
smooth = 0;
x = 859;
y = 903;
},
{
smooth = 0;
x = 935;
y = 685;
},
{
segmentType = curve;
smooth = 1;
x = 935;
y = 496;
},
{
smooth = 0;
x = 935;
y = 316;
},
{
smooth = 0;
x = 869;
y = 93;
},
{
segmentType = curve;
smooth = 0;
x = 645;
y = 90;
},
{
smooth = 0;
x = 395;
y = 90;
},
{
smooth = 0;
x = 319;
y = 279;
},
{
segmentType = curve;
smooth = 1;
x = 319;
y = 501;
},
{
smooth = 0;
x = 319;
y = 701;
},
{
smooth = 0;
x = 407;
y = 903;
}
);
}
);
lib = {
};
name = b;
unicodes = (
);
width = 1181;
};
};
components = (
);
contours = (
);
lib = {
};
name = b;
unicodes = (
);
width = 1203;
};
},
{
color = 3;
glyphname = c;
lastChange = "2019-01-16 15:38:21 +0000";
layers = (
{
anchors = (
{
name = bottom;
position = "{260.485, 0}";
},
{
name = top;
position = "{302.786, 505.417}";
}
);
layerId = "CF304C0A-4888-46C0-9BE5-45819D47B95E";
paths = (
{
closed = 1;
nodes = (
"336.505 -6.883 OFFCURVE",
"398.806 19.583 OFFCURVE",
"439.223 60.699 CURVE",
"421.854 95.01 LINE",
"369.922 51.845 OFFCURVE",
"329.272 32.728 OFFCURVE",
"273.922 32.728 CURVE SMOOTH",
"158.262 32.728 OFFCURVE",
"97.748 110.223 OFFCURVE",
"97.748 229.602 CURVE SMOOTH",
"97.748 379.961 OFFCURVE",
"166.961 472.573 OFFCURVE",
"290.155 472.573 CURVE SMOOTH",
"349.437 472.573 OFFCURVE",
"392.854 453.573 OFFCURVE",
"447.019 410.408 CURVE",
"468.99 444.602 LINE",
"426.573 487.068 OFFCURVE",
"363.922 512.184 OFFCURVE",
"295.67 512.184 CURVE SMOOTH",
"145.883 512.184 OFFCURVE",
"53.981 400.485 OFFCURVE",
"53.981 233.301 CURVE SMOOTH",
"53.981 87.65 OFFCURVE",
"138.128 -6.872 OFFCURVE",
"268.505 -6.883 CURVE SMOOTH"
);
}
);
width = 486.5534;
},
{
anchors = (
{
name = bottom;
position = "{278.029, 0}";
},
{
name = top;
position = "{328.427, 512.165}";
}
);
layerId = "EC690951-C754-4A23-894B-8F4258F2E540";
paths = (
{
closed = 1;
nodes = (
"376.99 -8.233 OFFCURVE",
"447.388 12.835 OFFCURVE",
"494.553 52.602 CURVE",
"458.291 175.981 LINE",
"417.155 146.311 OFFCURVE",
"372.456 128.544 OFFCURVE",
"321.155 128.544 CURVE SMOOTH",
"259.476 128.544 OFFCURVE",
"216.505 165.553 OFFCURVE",
"216.505 245.796 CURVE SMOOTH",
"216.505 334.078 OFFCURVE",
"260.078 384.854 OFFCURVE",
"334.689 384.854 CURVE SMOOTH",
"379.126 384.854 OFFCURVE",
"429.291 365.854 OFFCURVE",
"469.961 336.184 CURVE",
"527.019 460.796 LINE",
"477.854 497.864 OFFCURVE",
"411.155 521.631 OFFCURVE",
"322.66 521.631 CURVE SMOOTH",
"147.233 521.631 OFFCURVE",
"31.039 418.029 OFFCURVE",
"31.039 241.398 CURVE SMOOTH",
"31.039 91.699 OFFCURVE",
"136.765 -8.235 OFFCURVE",
"308.99 -8.233 CURVE SMOOTH"
);
}
);
width = 514.8932;
},
{
anchors = (
{
name = bottom;
position = "{265.407, 0}";
},
{
name = top;
position = "{309.98, 507.31}";
}
);
layerId = "FCB30AE2-FEFD-4E77-A1D9-4C86342947F4";
paths = (
{
closed = 1;
nodes = (
"347.864 -7.262 OFFCURVE",
"412.437 17.69 OFFCURVE",
"454.747 58.427 CURVE",
"432.077 117.728 LINE",
"383.174 78.35 OFFCURVE",
"341.388 59.612 OFFCURVE",
"287.174 59.612 CURVE SMOOTH",
"186.66 59.612 OFFCURVE",
"131.068 125.747 OFFCURVE",
"131.068 234.146 CURVE SMOOTH",
"131.068 367.087 OFFCURVE",
"193.087 447.961 OFFCURVE",
"302.65 447.961 CURVE SMOOTH",
"357.767 447.961 OFFCURVE",
"403.077 428.961 OFFCURVE",
"453.456 389.583 CURVE",
"485.272 449.146 LINE",
"440.961 490.097 OFFCURVE",
"377.174 514.835 OFFCURVE",
"303.243 514.835 CURVE SMOOTH",
"146.262 514.835 OFFCURVE",
"47.544 405.407 OFFCURVE",
"47.544 235.573 CURVE SMOOTH",
"47.544 88.786 OFFCURVE",
"137.746 -7.254 OFFCURVE",
"279.864 -7.262 CURVE SMOOTH"
);
}
);
width = 494.50485;
}
);
leftKerningGroup = o;
rightKerningGroup = c;
unicode = 0063;
userData = {
anchors = (
);
b = {
};
com.typemytype.robofont.layerData = {
b = {
anchors = (
);
components = (
);
contours = (
);
lib = {
};
name = c;
unicodes = (
);
width = 956.141;
};
};
components = (
);
contours = (
);
lib = {
};
name = c;
unicodes = (
);
width = 992;
};
},
{
color = 3;
glyphname = d;
lastChange = "2019-01-16 15:38:21 +0000";
layers = (
{
anchors = (
{
name = bottom;
position = "{274.553, 0}";
},
{
name = center;
position = "{293.437, 252.65}";
},
{
name = top;
position = "{314.553, 505.417}";
},
{
name = topright;
position = "{575.476, 736}";
}
);
layerId = "CF304C0A-4888-46C0-9BE5-45819D47B95E";
paths = (
{
closed = 1;
nodes = (
"351.563 -6.883 OFFCURVE",
"432.544 42.515 OFFCURVE",
"454.845 125.961 CURVE",
"444.961 140.864 LINE",
"433.728 0 LINE",
"473.728 0 LINE",
"531.612 736 LINE",
"491.961 736 LINE",
"462.728 364.087 LINE",
"476.728 366.592 LINE",
"458.01 459.204 OFFCURVE",
"385.262 512.184 OFFCURVE",
"287.049 512.184 CURVE SMOOTH",
"148.631 512.184 OFFCURVE",
"53.981 403 OFFCURVE",
"53.981 233.767 CURVE SMOOTH",
"53.981 88.466 OFFCURVE",
"139.748 -6.883 OFFCURVE",
"266.631 -6.883 CURVE SMOOTH"
);
},
{
closed = 1;
nodes = (
"161.66 32.961 OFFCURVE",
"98.33 106.641 OFFCURVE",
"98.33 232.602 CURVE SMOOTH",
"98.33 381.194 OFFCURVE",
"167.893 472.456 OFFCURVE",
"282.204 472.456 CURVE SMOOTH",
"393.515 472.456 OFFCURVE",
"454.728 403.01 OFFCURVE",
"454.728 276.398 CURVE SMOOTH",
"454.728 125.223 OFFCURVE",
"385.049 32.961 OFFCURVE",
"270.505 32.961 CURVE SMOOTH"
);
}
);
width = 582.75728;
},
{
anchors = (
{
name = bottom;
position = "{302.893, 0}";
},
{
name = center;
position = "{323.126, 256.699}";
},
{
name = top;
position = "{342.893, 512.165}";
},
{
name = topright;
position = "{651.049, 736}";
}
);
layerId = "EC690951-C754-4A23-894B-8F4258F2E540";
paths = (
{
closed = 1;
nodes = (
"321.874 -8.233 OFFCURVE",
"379.913 24.971 OFFCURVE",
"410.311 80.078 CURVE",
"399.078 119.272 LINE",
"390.544 0 LINE",
"569.544 0 LINE",
"628.777 736 LINE",
"446.078 736 LINE",
"419.544 397.825 LINE",
"433.544 440.816 LINE",
"399.981 491.592 OFFCURVE",
"347.476 521.631 OFFCURVE",
"274.903 521.631 CURVE SMOOTH",
"129.738 521.631 OFFCURVE",
"31.039 403 OFFCURVE",
"31.039 236.466 CURVE SMOOTH",
"31.039 83.068 OFFCURVE",
"119.505 -8.233 OFFCURVE",
"247.738 -8.233 CURVE SMOOTH"
);
},
{
closed = 1;
nodes = (
"246.68 126.078 OFFCURVE",
"210.34 168.718 OFFCURVE",
"210.34 248.796 CURVE SMOOTH",
"210.34 332.612 OFFCURVE",
"250.214 386.087 OFFCURVE",
"314.592 386.087 CURVE SMOOTH",
"375.971 386.087 OFFCURVE",
"411.544 344.981 OFFCURVE",
"411.544 260.204 CURVE SMOOTH",
"411.544 180.553 OFFCURVE",
"372.903 126.078 OFFCURVE",
"310.99 126.078 CURVE SMOOTH"
);
}
);
width = 643.48544;
},
{
anchors = (
{
name = bottom;
position = "{282.505, 0}";
},
{
name = center;
position = "{301.767, 253.786}";
},
{
name = top;
position = "{322.505, 507.31}";
},
{
name = topright;
position = "{596.68, 736}";
}
);
layerId = "FCB30AE2-FEFD-4E77-A1D9-4C86342947F4";
paths = (
{
closed = 1;
nodes = (
"343.233 -7.262 OFFCURVE",
"417.777 37.593 OFFCURVE",
"442.35 113.087 CURVE",
"432.087 134.806 LINE",
"421.612 0 LINE",
"500.612 0 LINE",
"558.874 736 LINE",
"479.087 736 LINE",
"450.612 373.553 LINE",
"464.612 387.417 LINE",
"441.728 468.291 OFFCURVE",
"374.66 514.835 OFFCURVE",
"283.641 514.835 CURVE SMOOTH",
"143.33 514.835 OFFCURVE",
"47.544 403 OFFCURVE",
"47.544 234.524 CURVE SMOOTH",
"47.544 86.951 OFFCURVE",
"134.068 -7.262 OFFCURVE",
"261.33 -7.262 CURVE SMOOTH"
);
},
{
closed = 1;
nodes = (
"185.515 59.087 OFFCURVE",
"129.757 124.058 OFFCURVE",
"129.757 237.146 CURVE SMOOTH",
"129.757 367.563 OFFCURVE",
"190.99 448.223 OFFCURVE",
"291.291 448.223 CURVE SMOOTH",
"388.593 448.223 OFFCURVE",
"442.612 386.728 OFFCURVE",
"442.612 271.854 CURVE SMOOTH",
"442.612 140.747 OFFCURVE",
"381.641 59.087 OFFCURVE",
"281.864 59.087 CURVE SMOOTH"
);
}
);
width = 599.79612;
}
);
leftKerningGroup = o;
rightKerningGroup = l;
unicode = 0064;
userData = {
anchors = (
);
b = {
};
com.typemytype.robofont.layerData = {
b = {
anchors = (
);
components = (
);
contours = (
);
lib = {
};
name = d;
unicodes = (
);
width = 1181;
};
};
components = (
);
contours = (
);
lib = {
};
name = d;
unicodes = (
);
width = 1207;
};
},
{
color = 3;
glyphname = eth;
lastChange = "2019-01-16 15:38:21 +0000";
layers = (
{
layerId = "CF304C0A-4888-46C0-9BE5-45819D47B95E";
paths = (
{
closed = 1;
nodes = (
"409.408 -6.883 OFFCURVE",
"507.961 94.816 OFFCURVE",
"507.961 333.583 CURVE SMOOTH",
"507.961 547.864 OFFCURVE",
"406.709 678.272 OFFCURVE",
"219.417 741.301 CURVE",
"203.097 709.223 LINE",
"404.107 642.563 OFFCURVE",
"485.495 486.835 OFFCURVE",
"466.796 295.806 CURVE",
"477.767 317.485 LINE",
"472.981 400.155 OFFCURVE",
"399.981 470 OFFCURVE",
"285.417 470 CURVE SMOOTH",
"144.883 470 OFFCURVE",
"53.097 367.184 OFFCURVE",
"53.097 214.301 CURVE SMOOTH",
"53.097 79.767 OFFCURVE",
"137.233 -6.883 OFFCURVE",
"267.621 -6.883 CURVE SMOOTH"
);
},
{
closed = 1;
nodes = (
"159.126 32.845 OFFCURVE",
"96.33 93.126 OFFCURVE",
"96.33 210.718 CURVE SMOOTH",
"96.33 347.825 OFFCURVE",
"169.524 428.806 OFFCURVE",
"282.437 428.806 CURVE SMOOTH",
"389.049 428.806 OFFCURVE",
"455.194 363.592 OFFCURVE",
"455.194 255.049 CURVE SMOOTH",
"455.194 112.825 OFFCURVE",
"383.117 32.845 OFFCURVE",
"272.32 32.845 CURVE SMOOTH"
);
},
{
closed = 1;
nodes = (
"532.777 669.223 LINE",
"521.126 704.563 LINE",
"200.447 574.35 LINE",
"213.214 537.893 LINE"
);
}
);
width = 555.82524;
},
{
layerId = "EC690951-C754-4A23-894B-8F4258F2E540";
paths = (
{
closed = 1;
nodes = (
"474.184 -8.233 OFFCURVE",
"601.078 85.369 OFFCURVE",
"601.078 326.835 CURVE SMOOTH",
"601.078 526.272 OFFCURVE",
"479.583 721.456 OFFCURVE",
"226.165 749.398 CURVE",
"178.806 625.553 LINE",
"321.786 612.874 OFFCURVE",
"445.01 500.33 OFFCURVE",
"434.408 344.388 CURVE",
"480.466 335.029 LINE",
"450.039 444.689 OFFCURVE",
"377.039 470 OFFCURVE",
"292.165 470 CURVE SMOOTH",
"146.233 470 OFFCURVE",
"28.806 376.631 OFFCURVE",
"28.806 222.398 CURVE SMOOTH",
"28.806 82.466 OFFCURVE",
"134.534 -8.233 OFFCURVE",
"306.757 -8.233 CURVE SMOOTH"
);
},
{
closed = 1;
nodes = (
"238.748 127.311 OFFCURVE",
"208.34 172.748 OFFCURVE",
"208.34 225.563 CURVE SMOOTH",
"208.34 280.35 OFFCURVE",
"232.951 338.388 OFFCURVE",
"312.126 338.388 CURVE SMOOTH",
"376.903 338.388 OFFCURVE",
"406.612 298.816 OFFCURVE",
"406.612 242.903 CURVE SMOOTH",
"406.612 184.35 OFFCURVE",
"381.767 127.311 OFFCURVE",
"303.359 127.311 CURVE SMOOTH"
);
},
{
closed = 1;
nodes = (
"616.447 585.553 LINE",
"600.748 674.874 LINE",
"172.107 570.301 LINE",
"187.573 481.214 LINE"
);
}
);
width = 627.34951;
},
{
layerId = "FCB30AE2-FEFD-4E77-A1D9-4C86342947F4";
paths = (
{
closed = 1;
nodes = (
"427.583 -7.262 OFFCURVE",
"534.087 92.165 OFFCURVE",
"534.087 331.69 CURVE SMOOTH",
"534.087 541.806 OFFCURVE",
"427.156 690.388 OFFCURVE",
"221.31 743.573 CURVE",
"196.282 685.747 LINE",
"381.01 634.233 OFFCURVE",
"474.136 490.621 OFFCURVE",
"457.709 309.437 CURVE",
"478.524 322.407 LINE",
"466.544 412.65 OFFCURVE",
"393.544 470 OFFCURVE",
"287.31 470 CURVE SMOOTH",
"145.262 470 OFFCURVE",
"46.282 369.835 OFFCURVE",
"46.282 216.573 CURVE SMOOTH",
"46.282 80.524 OFFCURVE",
"136.476 -7.262 OFFCURVE",
"278.602 -7.262 CURVE SMOOTH"
);
},
{
closed = 1;
nodes = (
"181.466 59.35 OFFCURVE",
"127.757 115.466 OFFCURVE",
"127.757 214.883 CURVE SMOOTH",
"127.757 328.893 OFFCURVE",
"187.32 403.437 OFFCURVE",
"290.767 403.437 CURVE SMOOTH",
"385.641 403.437 OFFCURVE",
"441.563 345.417 OFFCURVE",
"441.563 251.641 CURVE SMOOTH",
"441.563 132.893 OFFCURVE",
"382.738 59.35 OFFCURVE",
"281.029 59.35 CURVE SMOOTH"
);
},
{
closed = 1;
nodes = (
"556.253 645.747 LINE",
"543.466 696.233 LINE",
"192.495 573.214 LINE",
"206.02 521.99 LINE"
);
}
);
width = 575.8932;
}
);
leftKerningGroup = o;
rightKerningGroup = o;
unicode = 00F0;
userData = {
com.typemytype.robofont.layerData = {
b = {
anchors = (
);
components = (
);
contours = (
);
lib = {
};
name = eth;
unicodes = (
);
width = 1230;
};
};
};
},
{
color = 3;
glyphname = dcaron;
lastChange = "2019-01-16 15:38:21 +0000";
layers = (
{
components = (
{
alignment = -1;
name = d;
}
);
layerId = "CF304C0A-4888-46C0-9BE5-45819D47B95E";
paths = (
{
closed = 1;
nodes = (
"627.447 736 LINE",
"569.893 736 LINE",
"556.01 541.583 LINE",
"586.563 541.583 LINE"
);
}
);
width = 582.75728;
},
{
components = (
{
alignment = -1;
name = d;
}
);
layerId = "EC690951-C754-4A23-894B-8F4258F2E540";
paths = (
{
closed = 1;
nodes = (
"738.107 736 LINE",
"652.214 736 LINE",
"636.981 534.835 LINE",
"695.874 534.835 LINE"
);
}
);
width = 643.48544;
},
{
components = (
{
alignment = -1;
name = d;
}
);
layerId = "FCB30AE2-FEFD-4E77-A1D9-4C86342947F4";
paths = (
{
closed = 1;
nodes = (
"658.495 736 LINE",
"592.99 736 LINE",
"578.728 539.69 LINE",
"617.233 539.69 LINE"
);
}
);
width = 599.79612;
}
);
leftKerningGroup = o;
rightKerningGroup = lcaron;
unicode = 010F;
},
{
color = 3;
glyphname = dcroat;
lastChange = "2019-01-16 15:38:21 +0000";
layers = (
{
layerId = "CF304C0A-4888-46C0-9BE5-45819D47B95E";
paths = (
{
closed = 1;
nodes = (
"352.563 -6.883 OFFCURVE",
"433.544 42.515 OFFCURVE",
"455.845 125.961 CURVE",
"445.845 140.864 LINE",
"434.612 0 LINE",
"474.612 0 LINE",
"532.612 736 LINE",
"492.961 736 LINE",
"463.728 364.087 LINE",
"477.728 366.592 LINE",
"459.01 459.204 OFFCURVE",
"386.262 512.184 OFFCURVE",
"288.049 512.184 CURVE SMOOTH",
"149.631 512.184 OFFCURVE",
"54.981 403.466 OFFCURVE",
"54.981 234.835 CURVE SMOOTH",
"54.981 88.233 OFFCURVE",
"140.748 -6.883 OFFCURVE",
"267.631 -6.883 CURVE SMOOTH"
);
},
{
closed = 1;
nodes = (
"162.311 32.961 OFFCURVE",
"99.33 107.223 OFFCURVE",
"99.33 230.485 CURVE SMOOTH",
"99.33 380.961 OFFCURVE",
"168.544 472.456 OFFCURVE",
"283.437 472.456 CURVE SMOOTH",
"394.282 472.456 OFFCURVE",
"455.728 402.66 OFFCURVE",
"455.728 275.117 CURVE SMOOTH",
"455.728 125.573 OFFCURVE",
"385.699 32.961 OFFCURVE",
"271.505 32.961 CURVE SMOOTH"
);
},
{
closed = 1;
nodes = (
"621.126 594.845 LINE",
"624.66 631.272 LINE",
"281.447 631.272 LINE",
"277.913 594.845 LINE"
);
}
);
width = 582.75728;
},
{
layerId = "EC690951-C754-4A23-894B-8F4258F2E540";
paths = (
{
closed = 1;
nodes = (
"322.874 -8.233 OFFCURVE",
"380.913 24.971 OFFCURVE",
"411.311 80.078 CURVE",
"401.311 119.272 LINE",
"392.777 0 LINE",
"571.777 0 LINE",
"629.777 736 LINE",
"447.078 736 LINE",
"420.544 397.825 LINE",
"434.544 440.816 LINE",
"400.981 491.592 OFFCURVE",
"348.476 521.631 OFFCURVE",
"275.903 521.631 CURVE SMOOTH",
"130.738 521.631 OFFCURVE",
"32.039 398.068 OFFCURVE",
"32.039 248.33 CURVE SMOOTH",
"32.039 85.534 OFFCURVE",
"120.505 -8.233 OFFCURVE",
"248.738 -8.233 CURVE SMOOTH"
);
},
{
closed = 1;
nodes = (
"251.379 126.078 OFFCURVE",
"211.34 162.553 OFFCURVE",
"211.34 248.029 CURVE SMOOTH",
"211.34 335.078 OFFCURVE",
"254.913 386.087 OFFCURVE",
"313.126 386.087 CURVE SMOOTH",
"379.437 386.087 OFFCURVE",
"412.544 348.68 OFFCURVE",
"412.544 273.767 CURVE SMOOTH",
"412.544 176.854 OFFCURVE",
"377.602 126.078 OFFCURVE",
"311.99 126.078 CURVE SMOOTH"
);
},
{
closed = 1;
nodes = (
"700.748 550.311 LINE",
"709.68 674.456 LINE",
"253.107 674.456 LINE",
"244.175 550.311 LINE"
);
}
);
width = 643.48544;
},
{
layerId = "FCB30AE2-FEFD-4E77-A1D9-4C86342947F4";
paths = (
{
closed = 1;
nodes = (
"344.233 -7.262 OFFCURVE",
"418.777 37.593 OFFCURVE",
"443.35 113.087 CURVE",
"433.35 134.806 LINE",
"422.874 0 LINE",
"501.874 0 LINE",
"559.874 736 LINE",
"480.087 736 LINE",
"451.612 373.553 LINE",
"465.612 387.417 LINE",
"442.728 468.291 OFFCURVE",
"375.66 514.835 OFFCURVE",
"284.641 514.835 CURVE SMOOTH",
"144.33 514.835 OFFCURVE",
"48.544 401.951 OFFCURVE",
"48.544 238.621 CURVE SMOOTH",
"48.544 87.476 OFFCURVE",
"135.068 -7.262 OFFCURVE",
"262.33 -7.262 CURVE SMOOTH"
);
},
{
closed = 1;
nodes = (
"187.301 59.087 OFFCURVE",
"130.757 122.747 OFFCURVE",
"130.757 235.407 CURVE SMOOTH",
"130.757 368.087 OFFCURVE",
"192.777 448.223 OFFCURVE",
"291.767 448.223 CURVE SMOOTH",
"390.117 448.223 OFFCURVE",
"443.612 387.515 OFFCURVE",
"443.612 274.738 CURVE SMOOTH",
"443.612 139.961 OFFCURVE",
"383.427 59.087 OFFCURVE",
"282.864 59.087 CURVE SMOOTH"
);
},
{
closed = 1;
nodes = (
"643.466 582.35 LINE",
"648.515 643.388 LINE",
"273.495 643.388 LINE",
"268.447 582.35 LINE"
);
}
);
width = 599.79612;
}
);
leftKerningGroup = o;
rightKerningGroup = l;
unicode = 0111;
userData = {
com.typemytype.robofont.layerData = {
b = {
anchors = (
);
components = (
);
contours = (
);
lib = {
};
name = dcroat;
unicodes = (
);
width = 1181;
};
};
};
},
{
color = 3;
glyphname = e;
lastChange = "2019-01-16 15:38:21 +0000";
layers = (
{
anchors = (
{
name = bottom;
position = "{275.835, 0}";
},
{
name = ogonek;
position = "{368.553, 10}";
},
{
name = top;
position = "{306, 505.417}";
}
);
layerId = "CF304C0A-4888-46C0-9BE5-45819D47B95E";
paths = (
{
closed = 1;
nodes = (
"451.068 95.359 LINE",
"400.485 52.311 OFFCURVE",
"336.854 33.078 OFFCURVE",
"277.388 33.078 CURVE SMOOTH",
"159.777 33.078 OFFCURVE",
"100.146 110.456 OFFCURVE",
"100.146 229.485 CURVE SMOOTH",
"100.146 378.748 OFFCURVE",
"170.175 474.641 OFFCURVE",
"300.233 474.641 CURVE SMOOTH",
"402.893 474.641 OFFCURVE",
"467.922 404.262 OFFCURVE",
"451.757 277.437 CURVE",
"471.544 302.485 LINE",
"93.029 302.485 LINE",
"91.612 261.214 LINE",
"492.786 261.214 LINE",
"510.32 428.049 OFFCURVE",
"429.718 512.184 OFFCURVE",
"296.466 512.184 CURVE SMOOTH",
"146.117 512.184 OFFCURVE",
"53.981 400.417 OFFCURVE",
"53.981 233.184 CURVE SMOOTH",
"53.981 87.767 OFFCURVE",
"137.767 -6.883 OFFCURVE",
"278.67 -6.883 CURVE SMOOTH",
"348.204 -6.883 OFFCURVE",
"429.019 19.466 OFFCURVE",
"469.553 60.699 CURVE"
);
}
);
width = 540.95146;
},
{
anchors = (
{
name = bottom;
position = "{289.33, 0}";
},
{
name = ogonek;
position = "{396.893, 10}";
},
{
name = top;
position = "{306, 512.165}";
}
);
layerId = "EC690951-C754-4A23-894B-8F4258F2E540";
paths = (
{
closed = 1;
nodes = (
"461.864 172.282 LINE",
"418.029 141.379 OFFCURVE",
"373.291 124.845 OFFCURVE",
"319.223 124.845 CURVE SMOOTH",
"243.447 124.845 OFFCURVE",
"202.709 163.087 OFFCURVE",
"202.709 247.029 CURVE SMOOTH",
"202.709 358.505 OFFCURVE",
"237.65 397.718 OFFCURVE",
"297.534 397.718 CURVE SMOOTH",
"346.214 397.718 OFFCURVE",
"376.155 366.476 OFFCURVE",
"373.485 307.126 CURVE",
"418.913 320.029 LINE",
"196.942 320.029 LINE",
"188.777 235.573 LINE",
"518.427 235.573 LINE",
"541.359 415.903 OFFCURVE",
"444.563 521.631 OFFCURVE",
"291.068 521.631 CURVE SMOOTH",
"144.767 521.631 OFFCURVE",
"31.039 407.165 OFFCURVE",
"31.039 242.631 CURVE SMOOTH",
"31.039 90.466 OFFCURVE",
"140.466 -8.233 OFFCURVE",
"305.66 -8.233 CURVE SMOOTH",
"380.592 -8.233 OFFCURVE",
"451.961 14.068 OFFCURVE",
"497.893 52.602 CURVE"
);
}
);
width = 553.09709;
},
{
anchors = (
{
name = bottom;
position = "{279.621, 0}";
},
{
name = ogonek;
position = "{376.505, 10}";
},
{
name = top;
position = "{306, 507.31}";
}
);
layerId = "FCB30AE2-FEFD-4E77-A1D9-4C86342947F4";
paths = (
{
closed = 1;
nodes = (
"454.097 116.942 LINE",
"405.407 77.301 OFFCURVE",
"347.077 58.826 OFFCURVE",
"289.126 58.826 CURVE SMOOTH",
"183.253 58.826 OFFCURVE",
"128.923 125.223 OFFCURVE",
"128.923 234.407 CURVE SMOOTH",
"128.923 373.068 OFFCURVE",
"189.107 453.058 OFFCURVE",
"299.476 453.058 CURVE SMOOTH",
"386.99 453.058 OFFCURVE",
"442.174 393.66 OFFCURVE",
"429.796 285.767 CURVE",
"456.777 307.407 LINE",
"122.184 307.407 LINE",
"118.874 254.02 LINE",
"499.98 254.02 LINE",
"519.029 424.641 OFFCURVE",
"433.883 514.835 OFFCURVE",
"294.951 514.835 CURVE SMOOTH",
"145.738 514.835 OFFCURVE",
"47.544 402.31 OFFCURVE",
"47.544 235.835 CURVE SMOOTH",
"47.544 88.524 OFFCURVE",
"138.524 -7.262 OFFCURVE",
"286.243 -7.262 CURVE SMOOTH",
"357.291 -7.262 OFFCURVE",
"435.456 17.951 OFFCURVE",
"477.505 58.427 CURVE"
);
}
);
width = 544.35923;
}
);
leftKerningGroup = o;
rightKerningGroup = e;
unicode = 0065;
userData = {
anchors = (
);
b = {
};
com.typemytype.robofont.layerData = {
b = {
anchors = (
);
components = (
);
contours = (
);
lib = {
};
name = e;
unicodes = (
);
width = 1132;
};
};
components = (
);
contours = (
);
lib = {
};
name = e;
unicodes = (
);
width = 1132;
};
},
{
color = 3;
glyphname = eogonek;
lastChange = "2019-01-16 15:38:21 +0000";
layers = (
{
anchors = (
{
name = top;
position = "{306, 505.417}";
}
);
layerId = "CF304C0A-4888-46C0-9BE5-45819D47B95E";
paths = (
{
closed = 1;
nodes = (
"401.184 -196.184 OFFCURVE",
"433.068 -184.835 OFFCURVE",
"449.553 -172.951 CURVE",
"436.32 -135.796 LINE",
"413.32 -151.495 OFFCURVE",
"388.738 -157.728 OFFCURVE",
"371.738 -157.728 CURVE SMOOTH",
"330.922 -157.728 OFFCURVE",
"306.689 -135.379 OFFCURVE",
"306.689 -91.214 CURVE SMOOTH",
"306.689 -56.214 OFFCURVE",
"322.223 -14.583 OFFCURVE",
"412.019 22.583 CURVE SMOOTH",
"438.903 33.583 OFFCURVE",
"459.786 49.932 OFFCURVE",
"469.553 60.699 CURVE",
"451.068 95.359 LINE",
"400.485 52.311 OFFCURVE",
"340.204 33.078 OFFCURVE",
"277.388 33.078 CURVE SMOOTH",
"159.777 33.078 OFFCURVE",
"100.146 110.456 OFFCURVE",
"100.146 229.485 CURVE SMOOTH",
"100.146 404.427 OFFCURVE",
"189.039 474.641 OFFCURVE",
"300.233 474.641 CURVE SMOOTH",
"402.893 474.641 OFFCURVE",
"467.922 404.262 OFFCURVE",
"451.757 277.437 CURVE",
"471.544 302.485 LINE",
"93.029 302.485 LINE",
"91.612 261.214 LINE",
"492.786 261.214 LINE",
"510.32 428.049 OFFCURVE",
"427.485 512.184 OFFCURVE",
"296.466 512.184 CURVE SMOOTH",
"146.117 512.184 OFFCURVE",
"53.981 400.417 OFFCURVE",
"53.981 233.184 CURVE SMOOTH",
"53.981 87.767 OFFCURVE",
"137.767 -6.883 OFFCURVE",
"278.67 -6.883 CURVE SMOOTH",
"301.184 -6.883 OFFCURVE",
"316.301 -3.767 OFFCURVE",
"344 5.932 CURVE",
"333.864 13 LINE",
"290.981 -6.117 OFFCURVE",
"260.515 -43.767 OFFCURVE",
"260.515 -98.466 CURVE SMOOTH",
"260.515 -156.883 OFFCURVE",
"302.816 -196.184 OFFCURVE",
"369.301 -196.184 CURVE SMOOTH"
);
}
);
width = 540.95146;
},
{
anchors = (
{
name = top;
position = "{306, 512.165}";
}
);
layerId = "EC690951-C754-4A23-894B-8F4258F2E540";
paths = (
{
closed = 1;
nodes = (
"410.631 -205.631 OFFCURVE",
"443.864 -198.33 OFFCURVE",
"477.893 -185.097 CURVE",
"467.359 -103.408 LINE",
"444.359 -111.01 OFFCURVE",
"426.524 -114.544 OFFCURVE",
"409.524 -114.544 CURVE SMOOTH",
"378.155 -114.544 OFFCURVE",
"356.621 -96.243 OFFCURVE",
"356.621 -65.573 CURVE SMOOTH",
"356.621 -30.573 OFFCURVE",
"377.553 -7.835 OFFCURVE",
"434.961 15.835 CURVE SMOOTH",
"463.194 26.835 OFFCURVE",
"485.427 39.136 OFFCURVE",
"497.893 52.602 CURVE",
"461.864 172.282 LINE",
"418.029 141.379 OFFCURVE",
"372.592 124.845 OFFCURVE",
"319.223 124.845 CURVE SMOOTH",
"243.447 124.845 OFFCURVE",
"202.709 163.087 OFFCURVE",
"202.709 247.029 CURVE SMOOTH",
"202.709 353.146 OFFCURVE",
"234.922 397.718 OFFCURVE",
"297.534 397.718 CURVE SMOOTH",
"346.214 397.718 OFFCURVE",
"376.155 366.476 OFFCURVE",
"373.485 307.126 CURVE",
"418.913 320.029 LINE",
"196.942 320.029 LINE",
"188.777 235.573 LINE",
"518.427 235.573 LINE",
"541.359 415.903 OFFCURVE",
"445.029 521.631 OFFCURVE",
"291.068 521.631 CURVE SMOOTH",
"144.767 521.631 OFFCURVE",
"31.039 407.165 OFFCURVE",
"31.039 242.631 CURVE SMOOTH",
"31.039 90.466 OFFCURVE",
"140.466 -8.233 OFFCURVE",
"305.66 -8.233 CURVE SMOOTH",
"310.631 -8.233 OFFCURVE",
"324.398 -6.466 OFFCURVE",
"344 -4.864 CURVE",
"312.272 13 LINE",
"268.039 -4.767 OFFCURVE",
"242.971 -46.466 OFFCURVE",
"242.971 -93.068 CURVE SMOOTH",
"242.971 -158.233 OFFCURVE",
"293.369 -205.631 OFFCURVE",
"377.398 -205.631 CURVE SMOOTH"
);
}
);
width = 553.09709;
},
{
anchors = (
{
name = top;
position = "{306, 507.31}";
}
);
layerId = "FCB30AE2-FEFD-4E77-A1D9-4C86342947F4";
paths = (
{
closed = 1;
nodes = (
"403.835 -198.835 OFFCURVE",
"436.097 -188.621 OFFCURVE",
"457.505 -176.359 CURVE",
"445.029 -126.709 LINE",
"422.029 -140.136 OFFCURVE",
"399.34 -145.612 OFFCURVE",
"382.34 -145.612 CURVE SMOOTH",
"344.174 -145.612 OFFCURVE",
"320.699 -124.398 OFFCURVE",
"320.699 -84.02 CURVE SMOOTH",
"320.699 -49.02 OFFCURVE",
"337.747 -12.69 OFFCURVE",
"418.456 20.69 CURVE SMOOTH",
"445.718 31.69 OFFCURVE",
"466.98 46.903 OFFCURVE",
"477.505 58.427 CURVE",
"454.097 116.942 LINE",
"405.407 77.301 OFFCURVE",
"349.291 58.826 OFFCURVE",
"289.126 58.826 CURVE SMOOTH",
"183.253 58.826 OFFCURVE",
"128.923 125.223 OFFCURVE",
"128.923 234.407 CURVE SMOOTH",
"128.923 390.039 OFFCURVE",
"201.913 453.058 OFFCURVE",
"299.476 453.058 CURVE SMOOTH",
"386.99 453.058 OFFCURVE",
"442.174 393.66 OFFCURVE",
"429.796 285.767 CURVE",
"456.777 307.407 LINE",
"122.184 307.407 LINE",
"118.874 254.02 LINE",
"499.98 254.02 LINE",
"519.029 424.641 OFFCURVE",
"432.407 514.835 OFFCURVE",
"294.951 514.835 CURVE SMOOTH",
"145.738 514.835 OFFCURVE",
"47.544 402.31 OFFCURVE",
"47.544 235.835 CURVE SMOOTH",
"47.544 88.524 OFFCURVE",
"138.524 -7.262 OFFCURVE",
"286.243 -7.262 CURVE SMOOTH",
"303.835 -7.262 OFFCURVE",
"318.573 -4.524 OFFCURVE",
"344 2.903 CURVE",
"327.806 13 LINE",
"284.544 -5.738 OFFCURVE",
"255.593 -44.524 OFFCURVE",
"255.593 -96.951 CURVE SMOOTH",
"255.593 -157.262 OFFCURVE",
"300.165 -198.835 OFFCURVE",
"371.573 -198.835 CURVE SMOOTH"
);
}
);
width = 544.35923;
}
);
leftKerningGroup = o;
rightKerningGroup = e;
unicode = 0119;
},
